STARTFONT 2.1
FONT -FontForge-Bebas Neue Regular-Regular-R-Normal--41-390-75-75-P-155-ISO10646-1
SIZE 39 75 75
FONTBOUNDINGBOX 37 45 -3 -8
COMMENT "Generated by fontforge, http://fontforge.sourceforge.net"
COMMENT "Copyright \(c\) 2010 by Ryoichi Tsunekawa. All rights reserved."
STARTPROPERTIES 39
FOUNDRY "FontForge"
FAMILY_NAME "Bebas Neue Regular"
WEIGHT_NAME "Regular"
SLANT "R"
SETWIDTH_NAME "Normal"
ADD_STYLE_NAME ""
PIXEL_SIZE 41
POINT_SIZE 390
RESOLUTION_X 75
RESOLUTION_Y 75
SPACING "P"
AVERAGE_WIDTH 155
CHARSET_REGISTRY "ISO10646"
CHARSET_ENCODING "1"
FONTNAME_REGISTRY ""
CHARSET_COLLECTIONS "ISO8859-2 ISO8859-5 ISO8859-9 ISO8859-4 ISO10646-1"
FONT_NAME "BebasNeueRegular"
FACE_NAME "Bebas Neue Regular"
COPYRIGHT "Copyright \(c\) 2010 by Ryoichi Tsunekawa. All rights reserved."
FONT_VERSION "001.001"
FONT_ASCENT 31
FONT_DESCENT 10
UNDERLINE_POSITION -5
UNDERLINE_THICKNESS 3
X_HEIGHT 29
CAP_HEIGHT 29
RAW_ASCENT 750
RAW_DESCENT 250
NORM_SPACE 6
RELATIVE_WEIGHT 40
RELATIVE_SETWIDTH 50
SUPERSCRIPT_X 0
SUPERSCRIPT_Y 14
SUPERSCRIPT_SIZE 24
SUBSCRIPT_X 0
SUBSCRIPT_Y 3
SUBSCRIPT_SIZE 24
AVG_LOWERCASE_WIDTH 161
AVG_UPPERCASE_WIDTH 161
ENDPROPERTIES
CHARS 486
STARTCHAR space
ENCODING 32
SWIDTH 155 0
DWIDTH 6 0
BBX 1 1 0 0
BITMAP
00
ENDCHAR
STARTCHAR exclam
ENCODING 33
SWIDTH 158 0
DWIDTH 6 0
BBX 3 31 2 -1
BITMAP
E0
E0
E0
E0
E0
E0
E0
E0
E0
E0
E0
E0
E0
E0
E0
E0
E0
E0
E0
E0
E0
E0
E0
C0
00
00
00
E0
E0
E0
E0
ENDCHAR
STARTCHAR quotedbl
ENCODING 34
SWIDTH 265 0
DWIDTH 11 0
BBX 7 8 2 22
BITMAP
EE
EE
EE
CE
CE
CE
CE
C6
ENDCHAR
STARTCHAR numbersign
ENCODING 35
SWIDTH 412 0
DWIDTH 17 0
BBX 15 31 1 -1
BITMAP
0E18
0E18
0E18
0E38
0E38
0C38
0C38
0C38
7FFE
7FFE
1C30
1C30
1C30
1C70
1C70
1870
1870
1870
1870
FFFC
FFFC
3860
3860
38E0
38E0
38E0
30E0
30E0
30E0
30E0
70C0
ENDCHAR
STARTCHAR dollar
ENCODING 36
SWIDTH 387 0
DWIDTH 16 0
BBX 13 33 1 -2
BITMAP
0300
0300
0780
1FE0
3FF0
7878
7038
7038
7038
7038
7000
7000
7800
3C00
3E00
1F00
0F80
03E0
01F0
00F0
0078
0038
E038
E038
F038
7038
7038
7878
3FF0
1FE0
0FC0
0300
0300
ENDCHAR
STARTCHAR percent
ENCODING 37
SWIDTH 616 0
DWIDTH 25 0
BBX 23 31 1 -1
BITMAP
1E00C0
7F00C0
630180
638180
E18180
E18300
E18300
E18600
E18600
E18600
E18C00
E18C78
E18CFC
E1998C
E1998E
619186
63B186
633186
7F6186
1C6186
006186
00C186
00C186
00C186
018186
018186
010186
030186
03018C
0601FC
060078
ENDCHAR
STARTCHAR ampersand
ENCODING 38
SWIDTH 408 0
DWIDTH 17 0
BBX 14 31 2 -1
BITMAP
1FE0
3FE0
7FE0
F000
E000
E000
E000
E000
E000
E000
E078
E078
7078
7FFC
1FFC
7FFC
7878
F078
E078
E078
E078
E078
E078
E078
E078
E078
E078
F0F8
7FF8
7FF8
3E38
ENDCHAR
STARTCHAR quotesingle
ENCODING 39
SWIDTH 151 0
DWIDTH 6 0
BBX 3 8 2 22
BITMAP
E0
E0
C0
C0
C0
C0
C0
C0
ENDCHAR
STARTCHAR parenleft
ENCODING 40
SWIDTH 241 0
DWIDTH 10 0
BBX 7 31 2 -1
BITMAP
1E
7E
7E
F0
E0
E0
E0
E0
E0
E0
E0
E0
E0
E0
E0
E0
E0
E0
E0
E0
E0
E0
E0
E0
E0
E0
E0
F0
7E
7E
1E
ENDCHAR
STARTCHAR parenright
ENCODING 41
SWIDTH 241 0
DWIDTH 10 0
BBX 7 31 1 -1
BITMAP
F0
FC
FC
1E
0E
0E
0E
0E
0E
0E
0E
0E
0E
0E
0E
0E
0E
0E
0E
0E
0E
0E
0E
0E
0E
0E
0E
1E
FC
FC
F0
ENDCHAR
STARTCHAR asterisk
ENCODING 42
SWIDTH 395 0
DWIDTH 16 0
BBX 14 14 1 15
BITMAP
0300
0300
0300
0300
C30C
F33C
FFFC
0780
0780
0CC0
0CE0
1870
3870
1020
ENDCHAR
STARTCHAR plus
ENCODING 43
SWIDTH 392 0
DWIDTH 16 0
BBX 14 14 1 7
BITMAP
0300
0300
0300
0300
0300
0300
FFFC
FFFC
0300
0300
0300
0300
0300
0300
ENDCHAR
STARTCHAR comma
ENCODING 44
SWIDTH 160 0
DWIDTH 7 0
BBX 3 8 2 -5
BITMAP
E0
E0
E0
E0
60
40
C0
80
ENDCHAR
STARTCHAR hyphen
ENCODING 45
SWIDTH 265 0
DWIDTH 11 0
BBX 7 3 2 13
BITMAP
FE
FE
FE
ENDCHAR
STARTCHAR period
ENCODING 46
SWIDTH 155 0
DWIDTH 6 0
BBX 3 4 2 -1
BITMAP
E0
E0
E0
E0
ENDCHAR
STARTCHAR slash
ENCODING 47
SWIDTH 376 0
DWIDTH 15 0
BBX 14 31 1 -1
BITMAP
001C
0038
0038
0030
0070
0070
0060
00E0
00E0
01C0
01C0
01C0
0380
0380
0300
0700
0700
0600
0E00
0E00
1C00
1C00
1C00
3800
3800
3000
7000
7000
6000
E000
E000
ENDCHAR
STARTCHAR zero
ENCODING 48
SWIDTH 389 0
DWIDTH 16 0
BBX 14 31 1 -1
BITMAP
0FC0
1FE0
3FF0
7878
7038
7038
F03C
F03C
F03C
F03C
F03C
F03C
F03C
F03C
F03C
F03C
F03C
F03C
F03C
F03C
F03C
F03C
F03C
F03C
F03C
7038
7038
7878
3FF0
3FE0
0FC0
ENDCHAR
STARTCHAR one
ENCODING 49
SWIDTH 338 0
DWIDTH 14 0
BBX 7 31 4 -1
BITMAP
0E
0E
1E
3E
FE
FE
DE
1E
1E
1E
1E
1E
1E
1E
1E
1E
1E
1E
1E
1E
1E
1E
1E
1E
1E
1E
1E
1E
1E
1E
1E
ENDCHAR
STARTCHAR two
ENCODING 50
SWIDTH 387 0
DWIDTH 16 0
BBX 13 31 2 -1
BITMAP
1F80
3FE0
7FE0
F0F0
E070
E070
E078
E078
E078
E070
0070
0070
00F0
00E0
01E0
03C0
0380
0700
0F00
1E00
3C00
3800
7800
7000
E000
E000
E000
E000
FFF0
FFF0
FFF0
ENDCHAR
STARTCHAR three
ENCODING 51
SWIDTH 387 0
DWIDTH 16 0
BBX 13 31 1 -1
BITMAP
0FC0
1FE0
3FF0
7878
7038
7038
7038
E038
E038
0038
0038
0038
0070
07E0
07C0
07F0
00F0
0078
0038
0038
0038
E038
E038
E038
7038
7038
7038
7878
3FF0
1FE0
0FC0
ENDCHAR
STARTCHAR four
ENCODING 52
SWIDTH 400 0
DWIDTH 16 0
BBX 15 31 1 -1
BITMAP
0070
00F0
00F0
01F0
01F0
01F0
03F0
03F0
0770
0770
0770
0E70
0E70
1C70
1C70
1C70
3870
3870
7070
7070
E070
E070
FFFE
FFFE
FFFE
0070
0070
0070
0070
0070
0070
ENDCHAR
STARTCHAR five
ENCODING 53
SWIDTH 387 0
DWIDTH 16 0
BBX 12 30 2 -1
BITMAP
FFF0
FFF0
FFF0
E000
E000
E000
E000
E000
E000
E7C0
EFE0
FFF0
FFF0
E0F0
E070
E070
0070
0070
0070
0070
E070
E070
E070
E070
E070
E0F0
FFF0
7FE0
3FC0
1F80
ENDCHAR
STARTCHAR six
ENCODING 54
SWIDTH 389 0
DWIDTH 16 0
BBX 14 31 1 -1
BITMAP
0FC0
1FF0
3FF0
7878
7038
7038
7038
F01C
F000
F000
F000
F000
F3E0
F7F0
FFF8
F878
F038
F03C
F03C
F03C
F03C
F03C
F03C
F03C
F03C
7038
7038
7878
3FF0
1FE0
0FC0
ENDCHAR
STARTCHAR seven
ENCODING 55
SWIDTH 387 0
DWIDTH 16 0
BBX 13 31 1 -1
BITMAP
FFF8
FFF8
FFF8
0038
0038
0038
0070
0070
0070
00F0
00E0
00E0
00E0
01E0
01C0
01C0
01C0
03C0
0380
0380
0380
0780
0700
0700
0700
0E00
0E00
0E00
0E00
1C00
1C00
ENDCHAR
STARTCHAR eight
ENCODING 56
SWIDTH 392 0
DWIDTH 16 0
BBX 14 31 1 -1
BITMAP
0FC0
3FF0
3FF8
7878
7038
F03C
F01C
E01C
E01C
E01C
F03C
7038
7878
3FF0
1FE0
3FF0
7878
7038
703C
F01C
E01C
E01C
E01C
E01C
F01C
F03C
7038
7878
3FF8
3FF0
0FC0
ENDCHAR
STARTCHAR nine
ENCODING 57
SWIDTH 389 0
DWIDTH 16 0
BBX 14 31 1 -1
BITMAP
0FC0
1FE0
3FF0
7878
7038
7038
F038
F03C
F03C
F03C
F03C
F03C
F03C
F03C
703C
787C
7FFC
3FBC
1F3C
003C
003C
003C
003C
E038
E038
7038
7038
7878
3FF0
3FE0
0FC0
ENDCHAR
STARTCHAR colon
ENCODING 58
SWIDTH 155 0
DWIDTH 6 0
BBX 3 20 2 -1
BITMAP
E0
E0
E0
E0
00
00
00
00
00
00
00
00
00
00
00
00
E0
E0
E0
E0
ENDCHAR
STARTCHAR semicolon
ENCODING 59
SWIDTH 160 0
DWIDTH 7 0
BBX 3 24 2 -5
BITMAP
E0
E0
E0
E0
00
00
00
00
00
00
00
00
00
00
00
00
E0
E0
E0
E0
60
40
C0
80
ENDCHAR
STARTCHAR less
ENCODING 60
SWIDTH 383 0
DWIDTH 16 0
BBX 13 12 1 8
BITMAP
0018
0078
03F0
0FC0
3E00
F800
F000
7E00
1F80
03E0
00F8
0018
ENDCHAR
STARTCHAR equal
ENCODING 61
SWIDTH 350 0
DWIDTH 14 0
BBX 11 8 2 11
BITMAP
FFE0
FFE0
0000
0000
0000
0000
FFE0
FFE0
ENDCHAR
STARTCHAR greater
ENCODING 62
SWIDTH 383 0
DWIDTH 16 0
BBX 12 12 2 8
BITMAP
8000
F000
FC00
1F80
07E0
00F0
0070
03F0
0F80
7E00
F800
C000
ENDCHAR
STARTCHAR question
ENCODING 63
SWIDTH 361 0
DWIDTH 15 0
BBX 13 31 1 -1
BITMAP
0F80
3FE0
7FF0
70F0
F078
E078
E038
E038
E038
E038
0078
0070
0070
00E0
01E0
01C0
03C0
0380
0700
0700
0E00
0E00
0E00
0E00
0000
0000
0000
0E00
0E00
0E00
0E00
ENDCHAR
STARTCHAR at
ENCODING 64
SWIDTH 689 0
DWIDTH 28 0
BBX 26 32 1 -2
BITMAP
001FE000
00FFFC00
01FFFE00
03C00F00
07000780
0E000380
1C0001C0
1C0001C0
381E71C0
383F60C0
707F60C0
70F0E0C0
70E0E0C0
60E0E0C0
E0E0E0C0
E0E0E0C0
E0C0E1C0
E0C0E1C0
E1C0E180
E1C0C380
E1E1C300
E0E3E700
60FEFE00
70FCFC00
70187000
38000000
38000000
1C000000
1F001800
07FBF800
03FFF000
007F8000
ENDCHAR
STARTCHAR A
ENCODING 65
SWIDTH 422 0
DWIDTH 17 0
BBX 15 31 1 -1
BITMAP
07C0
07C0
07C0
07E0
06E0
0EE0
0EE0
0EE0
0EE0
0CF0
1C70
1C70
1C70
1C70
1C78
1838
3838
3838
3838
3838
383C
701C
7FFC
7FFC
7FFC
701C
701E
E00E
E00E
E00E
E00E
ENDCHAR
STARTCHAR B
ENCODING 66
SWIDTH 392 0
DWIDTH 16 0
BBX 13 31 2 -1
BITMAP
FF80
FFE0
FFF0
E0F0
E070
E070
E070
E070
E070
E070
E070
E070
E0E0
FFE0
FF80
FFE0
E0F0
E070
E078
E038
E038
E038
E038
E038
E038
E078
E078
E0F0
FFF0
FFE0
FF80
ENDCHAR
STARTCHAR C
ENCODING 67
SWIDTH 380 0
DWIDTH 16 0
BBX 13 31 1 -1
BITMAP
0FC0
3FE0
3FF0
7878
7038
7038
F038
F038
F038
F038
F000
F000
F000
F000
F000
F000
F000
F000
F000
F000
F038
F038
F038
F038
F038
7038
7038
7878
3FF0
3FE0
0FC0
ENDCHAR
STARTCHAR D
ENCODING 68
SWIDTH 396 0
DWIDTH 16 0
BBX 13 31 2 -1
BITMAP
FF80
FFE0
FFF0
E0F0
E078
E038
E038
E038
E038
E038
E038
E038
E038
E038
E038
E038
E038
E038
E038
E038
E038
E038
E038
E038
E038
E038
E078
E0F0
FFF0
FFE0
FF80
ENDCHAR
STARTCHAR E
ENCODING 69
SWIDTH 360 0
DWIDTH 15 0
BBX 11 31 2 -1
BITMAP
FFE0
FFE0
FFE0
E000
E000
E000
E000
E000
E000
E000
E000
E000
E000
E000
FFC0
FFC0
FFC0
E000
E000
E000
E000
E000
E000
E000
E000
E000
E000
E000
FFE0
FFE0
FFE0
ENDCHAR
STARTCHAR F
ENCODING 70
SWIDTH 340 0
DWIDTH 14 0
BBX 11 31 2 -1
BITMAP
FFE0
FFE0
FFE0
E000
E000
E000
E000
E000
E000
E000
E000
E000
E000
E000
FF80
FF80
FF80
E000
E000
E000
E000
E000
E000
E000
E000
E000
E000
E000
E000
E000
E000
ENDCHAR
STARTCHAR G
ENCODING 71
SWIDTH 383 0
DWIDTH 16 0
BBX 13 31 1 -1
BITMAP
0FC0
3FE0
3FF0
7878
7038
7038
F038
F038
F038
F038
F000
F000
F000
F000
F1F8
F1F8
F1F8
F038
F038
F038
F038
F038
F038
F038
F038
7038
7038
7878
3FF0
3FE0
0FC0
ENDCHAR
STARTCHAR H
ENCODING 72
SWIDTH 408 0
DWIDTH 17 0
BBX 13 31 2 -1
BITMAP
E038
E038
E038
E038
E038
E038
E038
E038
E038
E038
E038
E038
E038
E038
FFF8
FFF8
FFF8
E038
E038
E038
E038
E038
E038
E038
E038
E038
E038
E038
E038
E038
E038
ENDCHAR
STARTCHAR I
ENCODING 73
SWIDTH 158 0
DWIDTH 6 0
BBX 3 31 2 -1
BITMAP
E0
E0
E0
E0
E0
E0
E0
E0
E0
E0
E0
E0
E0
E0
E0
E0
E0
E0
E0
E0
E0
E0
E0
E0
E0
E0
E0
E0
E0
E0
E0
ENDCHAR
STARTCHAR J
ENCODING 74
SWIDTH 255 0
DWIDTH 10 0
BBX 8 31 1 -1
BITMAP
07
07
07
07
07
07
07
07
07
07
07
07
07
07
07
07
07
07
07
07
07
07
07
07
07
07
0F
1E
FE
FC
F0
ENDCHAR
STARTCHAR K
ENCODING 75
SWIDTH 409 0
DWIDTH 17 0
BBX 14 31 2 -1
BITMAP
E038
E038
E070
E070
E0E0
E0E0
E1C0
E1C0
E380
E380
E700
E700
EE00
EE00
FE00
FE00
FF00
FF00
F700
E780
E380
E3C0
E1C0
E1E0
E0E0
E0F0
E070
E070
E038
E038
E03C
ENDCHAR
STARTCHAR L
ENCODING 76
SWIDTH 337 0
DWIDTH 14 0
BBX 11 31 2 -1
BITMAP
E000
E000
E000
E000
E000
E000
E000
E000
E000
E000
E000
E000
E000
E000
E000
E000
E000
E000
E000
E000
E000
E000
E000
E000
E000
E000
E000
E000
FFE0
FFE0
FFE0
ENDCHAR
STARTCHAR M
ENCODING 77
SWIDTH 523 0
DWIDTH 21 0
BBX 18 31 2 -1
BITMAP
F007C0
F007C0
F807C0
F807C0
F80FC0
F80FC0
F80FC0
DC0FC0
DC0DC0
DC0DC0
DC1DC0
DC1DC0
CC1DC0
CE19C0
CE19C0
CE39C0
CE39C0
C639C0
C731C0
C731C0
C731C0
C771C0
C771C0
C3F1C0
C3E1C0
C3E1C0
C3E1C0
C3E1C0
C1E1C0
C1C1C0
C1C1C0
ENDCHAR
STARTCHAR N
ENCODING 78
SWIDTH 409 0
DWIDTH 17 0
BBX 13 31 2 -1
BITMAP
F038
F038
F038
F838
F838
F838
DC38
DC38
DC38
CC38
CE38
CE38
CE38
C738
C738
C738
C3B8
C3B8
C3B8
C3B8
C1F8
C1F8
C1F8
C0F8
C0F8
C0F8
C0F8
C078
C078
C078
C038
ENDCHAR
STARTCHAR O
ENCODING 79
SWIDTH 389 0
DWIDTH 16 0
BBX 14 31 1 -1
BITMAP
0FC0
1FE0
3FF0
7878
7038
7038
F03C
F03C
F03C
F03C
F03C
F03C
F03C
F03C
F03C
F03C
F03C
F03C
F03C
F03C
F03C
F03C
F03C
F03C
F03C
7038
7038
7878
3FF0
3FE0
0FC0
ENDCHAR
STARTCHAR P
ENCODING 80
SWIDTH 374 0
DWIDTH 15 0
BBX 12 31 2 -1
BITMAP
FF80
FFC0
FFE0
E0F0
E070
E070
E070
E070
E070
E070
E070
E070
E070
E070
E070
E0F0
FFE0
FFC0
FF00
E000
E000
E000
E000
E000
E000
E000
E000
E000
E000
E000
E000
ENDCHAR
STARTCHAR Q
ENCODING 81
SWIDTH 402 0
DWIDTH 16 0
BBX 15 32 1 -2
BITMAP
0FC0
1FE0
3FF0
7878
7038
7038
F03C
F03C
F03C
F03C
F03C
F03C
F03C
F03C
F03C
F03C
F03C
F03C
F03C
F03C
F03C
F03C
F03C
F03C
F03C
7038
7038
7878
3FF8
3FFE
0FDE
000E
ENDCHAR
STARTCHAR R
ENCODING 82
SWIDTH 394 0
DWIDTH 16 0
BBX 13 31 2 -1
BITMAP
FF80
FFE0
FFF0
E0F0
E070
E070
E070
E070
E070
E070
E070
E070
E070
E070
E0E0
FFC0
FFC0
FFE0
E0F0
E070
E070
E070
E070
E070
E070
E070
E070
E070
E078
E078
E038
ENDCHAR
STARTCHAR S
ENCODING 83
SWIDTH 372 0
DWIDTH 15 0
BBX 13 31 1 -1
BITMAP
01C0
0FE0
3FF0
7870
7078
7038
F038
F038
F000
F000
7000
7800
7C00
3E00
1F00
0F80
07C0
03E0
01F0
00F0
0078
0038
E038
E038
E038
E038
7078
7870
7FF0
3FE0
0F80
ENDCHAR
STARTCHAR T
ENCODING 84
SWIDTH 363 0
DWIDTH 15 0
BBX 13 31 1 -1
BITMAP
FFF8
FFF8
FFF8
0700
0700
0700
0700
0700
0700
0700
0700
0700
0700
0700
0700
0700
0700
0700
0700
0700
0700
0700
0700
0700
0700
0700
0700
0700
0700
0700
0700
ENDCHAR
STARTCHAR U
ENCODING 85
SWIDTH 387 0
DWIDTH 16 0
BBX 12 30 2 0
BITMAP
E070
E070
E070
E070
E070
E070
E070
E070
E070
E070
E070
E070
E070
E070
E070
E070
E070
E070
E070
E070
E070
E070
E070
E070
E070
E070
F0F0
7FE0
3FC0
1F80
ENDCHAR
STARTCHAR V
ENCODING 86
SWIDTH 418 0
DWIDTH 17 0
BBX 15 31 1 -1
BITMAP
E00E
E00E
E00E
F00E
700E
701C
701C
701C
781C
781C
3818
3838
3838
3838
3C38
1C38
1C30
1C70
1C70
1C70
1E70
0E70
0E60
0EE0
0EE0
0EE0
0FE0
07E0
07C0
07C0
07C0
ENDCHAR
STARTCHAR W
ENCODING 87
SWIDTH 583 0
DWIDTH 24 0
BBX 22 31 1 -1
BITMAP
E0381C
E0781C
E0781C
F0781C
F07818
707818
707C38
707C38
707C38
70FC38
70FC38
78FC38
38FC30
38EC30
38CC70
38CE70
38CE70
38CE70
39CE70
3DCE70
1DCE60
1DC660
1D86E0
1D87E0
1D87E0
1D87E0
1F87E0
1F87E0
0F87C0
0F03C0
0F03C0
ENDCHAR
STARTCHAR X
ENCODING 88
SWIDTH 435 0
DWIDTH 18 0
BBX 16 31 1 -1
BITMAP
F00E
700E
780E
381C
381C
3C1C
1C38
1C38
1E70
0E70
0E70
0FE0
07E0
07E0
03C0
03C0
07E0
07E0
0EE0
0EF0
0E70
1C70
1C78
1C38
383C
381C
381C
701E
700E
E00E
E00F
ENDCHAR
STARTCHAR Y
ENCODING 89
SWIDTH 406 0
DWIDTH 17 0
BBX 15 31 1 -1
BITMAP
E00E
E00E
F01C
701C
701C
7838
3838
3838
3870
1C70
1C70
1C60
1EE0
0EE0
0EE0
0FC0
07C0
07C0
0780
0380
0380
0380
0380
0380
0380
0380
0380
0380
0380
0380
0380
ENDCHAR
STARTCHAR Z
ENCODING 90
SWIDTH 379 0
DWIDTH 16 0
BBX 13 31 1 -1
BITMAP
7FF8
7FF8
7FF8
0038
0078
0070
0070
00E0
00E0
01E0
01C0
01C0
03C0
0380
0380
0700
0700
0F00
0E00
0E00
1C00
1C00
3C00
3800
3800
7000
7000
F000
FFF8
FFF8
FFF8
ENDCHAR
STARTCHAR bracketleft
ENCODING 91
SWIDTH 242 0
DWIDTH 10 0
BBX 7 31 2 -1
BITMAP
FE
FE
FE
E0
E0
E0
E0
E0
E0
E0
E0
E0
E0
E0
E0
E0
E0
E0
E0
E0
E0
E0
E0
E0
E0
E0
E0
E0
FE
FE
FE
ENDCHAR
STARTCHAR backslash
ENCODING 92
SWIDTH 376 0
DWIDTH 15 0
BBX 14 31 1 -1
BITMAP
E000
E000
6000
7000
7000
3000
3800
3800
1C00
1C00
1C00
0E00
0E00
0600
0700
0700
0300
0380
0380
01C0
01C0
01C0
00E0
00E0
0060
0070
0070
0030
0038
0038
001C
ENDCHAR
STARTCHAR bracketright
ENCODING 93
SWIDTH 242 0
DWIDTH 10 0
BBX 7 31 1 -1
BITMAP
FE
FE
FE
0E
0E
0E
0E
0E
0E
0E
0E
0E
0E
0E
0E
0E
0E
0E
0E
0E
0E
0E
0E
0E
0E
0E
0E
0E
FE
FE
FE
ENDCHAR
STARTCHAR asciicircum
ENCODING 94
SWIDTH 403 0
DWIDTH 17 0
BBX 14 13 1 16
BITMAP
0380
0380
0780
07C0
0EC0
0CE0
1C60
1870
3830
3038
7018
601C
E00C
ENDCHAR
STARTCHAR underscore
ENCODING 95
SWIDTH 507 0
DWIDTH 21 0
BBX 19 2 1 -3
BITMAP
FFFFE0
FFFFE0
ENDCHAR
STARTCHAR grave
ENCODING 96
SWIDTH 223 0
DWIDTH 9 0
BBX 5 4 2 31
BITMAP
E0
70
38
18
ENDCHAR
STARTCHAR a
ENCODING 97
SWIDTH 422 0
DWIDTH 17 0
BBX 15 31 1 -1
BITMAP
07C0
07C0
07C0
07E0
06E0
0EE0
0EE0
0EE0
0EE0
0CF0
1C70
1C70
1C70
1C70
1C78
1838
3838
3838
3838
3838
383C
701C
7FFC
7FFC
7FFC
701C
701E
E00E
E00E
E00E
E00E
ENDCHAR
STARTCHAR b
ENCODING 98
SWIDTH 392 0
DWIDTH 16 0
BBX 13 31 2 -1
BITMAP
FF80
FFE0
FFF0
E0F0
E070
E070
E070
E070
E070
E070
E070
E070
E0E0
FFE0
FF80
FFE0
E0F0
E070
E078
E038
E038
E038
E038
E038
E038
E078
E078
E0F0
FFF0
FFE0
FF80
ENDCHAR
STARTCHAR c
ENCODING 99
SWIDTH 380 0
DWIDTH 16 0
BBX 13 31 1 -1
BITMAP
0FC0
3FE0
3FF0
7878
7038
7038
F038
F038
F038
F038
F000
F000
F000
F000
F000
F000
F000
F000
F000
F000
F038
F038
F038
F038
F038
7038
7038
7878
3FF0
3FE0
0FC0
ENDCHAR
STARTCHAR d
ENCODING 100
SWIDTH 396 0
DWIDTH 16 0
BBX 13 31 2 -1
BITMAP
FF80
FFE0
FFF0
E0F0
E078
E038
E038
E038
E038
E038
E038
E038
E038
E038
E038
E038
E038
E038
E038
E038
E038
E038
E038
E038
E038
E038
E078
E0F0
FFF0
FFE0
FF80
ENDCHAR
STARTCHAR e
ENCODING 101
SWIDTH 360 0
DWIDTH 15 0
BBX 11 31 2 -1
BITMAP
FFE0
FFE0
FFE0
E000
E000
E000
E000
E000
E000
E000
E000
E000
E000
E000
FFC0
FFC0
FFC0
E000
E000
E000
E000
E000
E000
E000
E000
E000
E000
E000
FFE0
FFE0
FFE0
ENDCHAR
STARTCHAR f
ENCODING 102
SWIDTH 340 0
DWIDTH 14 0
BBX 11 31 2 -1
BITMAP
FFE0
FFE0
FFE0
E000
E000
E000
E000
E000
E000
E000
E000
E000
E000
E000
FF80
FF80
FF80
E000
E000
E000
E000
E000
E000
E000
E000
E000
E000
E000
E000
E000
E000
ENDCHAR
STARTCHAR g
ENCODING 103
SWIDTH 383 0
DWIDTH 16 0
BBX 13 31 1 -1
BITMAP
0FC0
3FE0
3FF0
7878
7038
7038
F038
F038
F038
F038
F000
F000
F000
F000
F1F8
F1F8
F1F8
F038
F038
F038
F038
F038
F038
F038
F038
7038
7038
7878
3FF0
3FE0
0FC0
ENDCHAR
STARTCHAR h
ENCODING 104
SWIDTH 408 0
DWIDTH 17 0
BBX 13 31 2 -1
BITMAP
E038
E038
E038
E038
E038
E038
E038
E038
E038
E038
E038
E038
E038
E038
FFF8
FFF8
FFF8
E038
E038
E038
E038
E038
E038
E038
E038
E038
E038
E038
E038
E038
E038
ENDCHAR
STARTCHAR i
ENCODING 105
SWIDTH 158 0
DWIDTH 6 0
BBX 3 31 2 -1
BITMAP
E0
E0
E0
E0
E0
E0
E0
E0
E0
E0
E0
E0
E0
E0
E0
E0
E0
E0
E0
E0
E0
E0
E0
E0
E0
E0
E0
E0
E0
E0
E0
ENDCHAR
STARTCHAR j
ENCODING 106
SWIDTH 255 0
DWIDTH 10 0
BBX 8 31 1 -1
BITMAP
07
07
07
07
07
07
07
07
07
07
07
07
07
07
07
07
07
07
07
07
07
07
07
07
07
07
0F
1E
FE
FC
F0
ENDCHAR
STARTCHAR k
ENCODING 107
SWIDTH 409 0
DWIDTH 17 0
BBX 14 31 2 -1
BITMAP
E038
E038
E070
E070
E0E0
E0E0
E1C0
E1C0
E380
E380
E700
E700
EE00
EE00
FE00
FE00
FF00
FF00
F700
E780
E380
E3C0
E1C0
E1E0
E0E0
E0F0
E070
E070
E038
E038
E03C
ENDCHAR
STARTCHAR l
ENCODING 108
SWIDTH 337 0
DWIDTH 14 0
BBX 11 31 2 -1
BITMAP
E000
E000
E000
E000
E000
E000
E000
E000
E000
E000
E000
E000
E000
E000
E000
E000
E000
E000
E000
E000
E000
E000
E000
E000
E000
E000
E000
E000
FFE0
FFE0
FFE0
ENDCHAR
STARTCHAR m
ENCODING 109
SWIDTH 523 0
DWIDTH 21 0
BBX 18 31 2 -1
BITMAP
F007C0
F007C0
F807C0
F807C0
F80FC0
F80FC0
F80FC0
DC0FC0
DC0DC0
DC0DC0
DC1DC0
DC1DC0
CC1DC0
CE19C0
CE19C0
CE39C0
CE39C0
C639C0
C731C0
C731C0
C731C0
C771C0
C771C0
C3F1C0
C3E1C0
C3E1C0
C3E1C0
C3E1C0
C1E1C0
C1C1C0
C1C1C0
ENDCHAR
STARTCHAR n
ENCODING 110
SWIDTH 409 0
DWIDTH 17 0
BBX 13 31 2 -1
BITMAP
F038
F038
F038
F838
F838
F838
DC38
DC38
DC38
CC38
CE38
CE38
CE38
C738
C738
C738
C3B8
C3B8
C3B8
C3B8
C1F8
C1F8
C1F8
C0F8
C0F8
C0F8
C0F8
C078
C078
C078
C038
ENDCHAR
STARTCHAR o
ENCODING 111
SWIDTH 389 0
DWIDTH 16 0
BBX 14 31 1 -1
BITMAP
0FC0
1FE0
3FF0
7878
7038
7038
F03C
F03C
F03C
F03C
F03C
F03C
F03C
F03C
F03C
F03C
F03C
F03C
F03C
F03C
F03C
F03C
F03C
F03C
F03C
7038
7038
7878
3FF0
3FE0
0FC0
ENDCHAR
STARTCHAR p
ENCODING 112
SWIDTH 371 0
DWIDTH 15 0
BBX 12 31 2 -1
BITMAP
FF80
FFC0
FFE0
E0F0
E070
E070
E070
E070
E070
E070
E070
E070
E070
E070
E070
E0F0
FFE0
FFC0
FF00
E000
E000
E000
E000
E000
E000
E000
E000
E000
E000
E000
E000
ENDCHAR
STARTCHAR q
ENCODING 113
SWIDTH 392 0
DWIDTH 16 0
BBX 15 32 1 -2
BITMAP
0FC0
1FE0
3FF0
7878
7038
7038
F03C
F03C
F03C
F03C
F03C
F03C
F03C
F03C
F03C
F03C
F03C
F03C
F03C
F03C
F03C
F03C
F03C
F03C
F03C
7038
7038
7878
3FF8
3FFE
0FDE
000E
ENDCHAR
STARTCHAR r
ENCODING 114
SWIDTH 394 0
DWIDTH 16 0
BBX 13 31 2 -1
BITMAP
FF80
FFE0
FFF0
E0F0
E070
E070
E070
E070
E070
E070
E070
E070
E070
E070
E0E0
FFC0
FFC0
FFE0
E0F0
E070
E070
E070
E070
E070
E070
E070
E070
E070
E078
E078
E038
ENDCHAR
STARTCHAR s
ENCODING 115
SWIDTH 372 0
DWIDTH 15 0
BBX 13 31 1 -1
BITMAP
01C0
0FE0
3FF0
7870
7078
7038
F038
F038
F000
F000
7000
7800
7C00
3E00
1F00
0F80
07C0
03E0
01F0
00F0
0078
0038
E038
E038
E038
E038
7078
7870
7FF0
3FE0
0F80
ENDCHAR
STARTCHAR t
ENCODING 116
SWIDTH 360 0
DWIDTH 15 0
BBX 14 31 0 -1
BITMAP
FFFC
FFFC
FFFC
0380
0380
0380
0380
0380
0380
0380
0380
0380
0380
0380
0380
0380
0380
0380
0380
0380
0380
0380
0380
0380
0380
0380
0380
0380
0380
0380
0380
ENDCHAR
STARTCHAR u
ENCODING 117
SWIDTH 387 0
DWIDTH 16 0
BBX 12 30 2 0
BITMAP
E070
E070
E070
E070
E070
E070
E070
E070
E070
E070
E070
E070
E070
E070
E070
E070
E070
E070
E070
E070
E070
E070
E070
E070
E070
E070
F0F0
7FE0
3FC0
1F80
ENDCHAR
STARTCHAR v
ENCODING 118
SWIDTH 418 0
DWIDTH 17 0
BBX 15 31 1 -1
BITMAP
E00E
E00E
E00E
F00E
700E
701C
701C
701C
781C
781C
3818
3838
3838
3838
3C38
1C38
1C30
1C70
1C70
1C70
1E70
0E70
0E60
0EE0
0EE0
0EE0
0FE0
07E0
07C0
07C0
07C0
ENDCHAR
STARTCHAR w
ENCODING 119
SWIDTH 583 0
DWIDTH 24 0
BBX 22 31 1 -1
BITMAP
E0381C
E0781C
E0781C
F0781C
F07818
707818
707C38
707C38
707C38
70FC38
70FC38
78FC38
38FC30
38EC30
38CC70
38CE70
38CE70
38CE70
39CE70
3DCE70
1DCE60
1DC660
1D86E0
1D87E0
1D87E0
1D87E0
1F87E0
1F87E0
0F87C0
0F03C0
0F03C0
ENDCHAR
STARTCHAR x
ENCODING 120
SWIDTH 435 0
DWIDTH 18 0
BBX 16 31 1 -1
BITMAP
F00E
700E
780E
381C
381C
3C1C
1C38
1C38
1E70
0E70
0E70
0FE0
07E0
07E0
03C0
03C0
07E0
07E0
0EE0
0EF0
0E70
1C70
1C78
1C38
383C
381C
381C
701E
700E
E00E
E00F
ENDCHAR
STARTCHAR y
ENCODING 121
SWIDTH 406 0
DWIDTH 17 0
BBX 15 31 1 -1
BITMAP
E00E
E00E
F01C
701C
701C
7838
3838
3838
3870
1C70
1C70
1C60
1EE0
0EE0
0EE0
0FC0
07C0
07C0
0780
0380
0380
0380
0380
0380
0380
0380
0380
0380
0380
0380
0380
ENDCHAR
STARTCHAR z
ENCODING 122
SWIDTH 379 0
DWIDTH 16 0
BBX 13 31 1 -1
BITMAP
7FF8
7FF8
7FF8
0038
0078
0070
0070
00E0
00E0
01E0
01C0
01C0
03C0
0380
0380
0700
0700
0F00
0E00
0E00
1C00
1C00
3C00
3800
3800
7000
7000
F000
FFF8
FFF8
FFF8
ENDCHAR
STARTCHAR braceleft
ENCODING 123
SWIDTH 257 0
DWIDTH 11 0
BBX 9 31 1 -1
BITMAP
0780
0F80
1F80
1C00
1C00
1800
3800
3800
3800
3800
3800
3800
3800
7800
F000
E000
F000
7800
3800
3800
3800
3800
3800
3800
3800
1800
1C00
1C00
1F80
1F80
0780
ENDCHAR
STARTCHAR bar
ENCODING 124
SWIDTH 373 0
DWIDTH 15 0
BBX 3 32 6 -2
BITMAP
E0
E0
E0
E0
E0
E0
E0
E0
E0
E0
E0
E0
E0
E0
E0
E0
E0
E0
E0
E0
E0
E0
E0
E0
E0
E0
E0
E0
E0
E0
E0
E0
ENDCHAR
STARTCHAR braceright
ENCODING 125
SWIDTH 257 0
DWIDTH 11 0
BBX 9 31 1 -1
BITMAP
F000
F800
FC00
1C00
1C00
1C00
1C00
1C00
1C00
1C00
1C00
1C00
1E00
0E00
0F80
0380
0F80
0E00
1E00
1C00
1C00
1C00
1C00
1C00
1C00
1C00
1C00
1C00
FC00
F800
F000
ENDCHAR
STARTCHAR asciitilde
ENCODING 126
SWIDTH 396 0
DWIDTH 16 0
BBX 14 5 1 12
BITMAP
3C00
7E0C
7F9C
C3F8
40F8
ENDCHAR
STARTCHAR uni00A0
ENCODING 160
SWIDTH 155 0
DWIDTH 6 0
BBX 1 1 0 0
BITMAP
00
ENDCHAR
STARTCHAR exclamdown
ENCODING 161
SWIDTH 158 0
DWIDTH 6 0
BBX 3 31 2 -1
BITMAP
E0
E0
E0
E0
00
00
00
C0
E0
E0
E0
E0
E0
E0
E0
E0
E0
E0
E0
E0
E0
E0
E0
E0
E0
E0
E0
E0
E0
E0
E0
ENDCHAR
STARTCHAR cent
ENCODING 162
SWIDTH 387 0
DWIDTH 16 0
BBX 12 29 2 0
BITMAP
0600
0600
1F80
3FE0
7FE0
F0F0
E070
E070
E070
E070
E070
E000
E000
E000
E000
E000
E000
E070
E070
E070
E070
E070
E070
F0F0
7FE0
7FE0
1F80
0600
0600
ENDCHAR
STARTCHAR sterling
ENCODING 163
SWIDTH 391 0
DWIDTH 16 0
BBX 14 31 1 -1
BITMAP
0FC0
1FF0
3FF0
3878
7838
7038
703C
701C
701C
701C
7000
7800
7800
3800
3C00
1C00
1C00
0E00
7E00
7FF0
7FF0
0E00
0E00
0E00
0E00
1C00
1C00
3800
FFF8
FFF8
FFF8
ENDCHAR
STARTCHAR currency
ENCODING 164
SWIDTH 372 0
DWIDTH 15 0
BBX 11 12 2 8
BITMAP
8020
CF60
7FC0
71C0
60C0
6060
6060
60C0
71C0
7FC0
DF60
8020
ENDCHAR
STARTCHAR yen
ENCODING 165
SWIDTH 414 0
DWIDTH 17 0
BBX 15 31 1 -1
BITMAP
E00E
E00E
F01C
701C
701C
781C
3838
3838
3C38
1C70
1C70
1C70
0EE0
0EE0
0EE0
0FC0
07C0
07C0
07C0
3FF8
3FF8
0380
0380
0380
3FF8
3FF8
0380
0380
0380
0380
0380
ENDCHAR
STARTCHAR brokenbar
ENCODING 166
SWIDTH 374 0
DWIDTH 15 0
BBX 3 32 6 -2
BITMAP
E0
E0
E0
E0
E0
E0
E0
E0
E0
E0
E0
E0
E0
00
00
00
00
00
E0
E0
E0
E0
E0
E0
E0
E0
E0
E0
E0
E0
E0
E0
ENDCHAR
STARTCHAR section
ENCODING 167
SWIDTH 387 0
DWIDTH 16 0
BBX 12 33 2 -3
BITMAP
1F80
7FE0
FFE0
F0F0
E070
E070
E070
E000
F800
7E00
3F80
1FC0
7FE0
F0F0
E070
E070
E070
E070
E070
F0F0
7DE0
3FC0
1FC0
07E0
01F0
00F0
E070
E070
E070
F0F0
FFE0
7FE0
1F80
ENDCHAR
STARTCHAR dieresis
ENCODING 168
SWIDTH 219 0
DWIDTH 9 0
BBX 7 4 1 30
BITMAP
EE
EE
EE
EE
ENDCHAR
STARTCHAR copyright
ENCODING 169
SWIDTH 742 0
DWIDTH 30 0
BBX 28 31 1 -1
BITMAP
001FC000
00FFF800
03E07C00
07800E00
0E000700
1C000380
180F01C0
301FC0E0
3038C060
6030C060
6030E070
6030E030
C030E030
C0300030
C0300030
C0300030
C0300030
C0300030
E030E030
6030E030
6030E070
6030C060
7038C060
301FC0C0
180F01C0
1C000180
0E000700
07800E00
03E03C00
00FFF800
003FC000
ENDCHAR
STARTCHAR ordfeminine
ENCODING 170
SWIDTH 275 0
DWIDTH 11 0
BBX 9 20 1 10
BITMAP
0600
1F00
3F80
7380
6180
6180
0180
1F80
7180
6180
E180
C180
E380
6380
7D80
3980
0000
0000
FF80
FF80
ENDCHAR
STARTCHAR guillemotleft
ENCODING 171
SWIDTH 320 0
DWIDTH 13 0
BBX 11 21 1 4
BITMAP
38E0
38E0
38E0
39C0
71C0
71C0
71C0
7380
E380
E380
E380
E380
E380
7380
71C0
71C0
71C0
39C0
38E0
38E0
38E0
ENDCHAR
STARTCHAR logicalnot
ENCODING 172
SWIDTH 388 0
DWIDTH 16 0
BBX 14 7 1 8
BITMAP
FFFC
FFFC
001C
001C
001C
001C
001C
ENDCHAR
STARTCHAR uni00AD
ENCODING 173
SWIDTH 265 0
DWIDTH 11 0
BBX 7 3 2 13
BITMAP
FE
FE
FE
ENDCHAR
STARTCHAR registered
ENCODING 174
SWIDTH 742 0
DWIDTH 30 0
BBX 28 31 1 -1
BITMAP
001FC000
00FFF800
03E07C00
07000F00
0E000700
1C000380
183F81C0
303FC0E0
3030E060
6030E060
60306070
60306030
C0306030
C030E030
C030C030
C03F8030
C03F8030
C031C030
C030E030
60306030
60306070
60306060
70306060
303060E0
383061C0
1C000180
0E000700
07800E00
03E03C00
00FFF800
003FC000
ENDCHAR
STARTCHAR macron
ENCODING 175
SWIDTH 251 0
DWIDTH 10 0
BBX 9 2 1 31
BITMAP
FF80
FF80
ENDCHAR
STARTCHAR degree
ENCODING 176
SWIDTH 219 0
DWIDTH 9 0
BBX 7 7 1 22
BITMAP
38
7C
C6
86
C6
7C
38
ENDCHAR
STARTCHAR plusminus
ENCODING 177
SWIDTH 392 0
DWIDTH 16 0
BBX 13 13 2 8
BITMAP
0600
0600
0600
0600
0600
FFF8
FFF8
0600
0600
0600
0600
FFF8
FFF8
ENDCHAR
STARTCHAR twosuperior
ENCODING 178
SWIDTH 275 0
DWIDTH 11 0
BBX 8 19 2 14
BITMAP
3C
7E
C7
C3
C3
C3
03
06
06
0C
1C
38
70
60
C0
C0
C0
FF
FF
ENDCHAR
STARTCHAR threesuperior
ENCODING 179
SWIDTH 275 0
DWIDTH 11 0
BBX 8 19 2 14
BITMAP
3C
FE
C6
C3
83
83
03
06
3C
3E
06
03
03
83
C3
C3
C6
FE
3C
ENDCHAR
STARTCHAR acute
ENCODING 180
SWIDTH 223 0
DWIDTH 9 0
BBX 5 4 2 31
BITMAP
38
70
E0
C0
ENDCHAR
STARTCHAR uni00B5
ENCODING 181
SWIDTH 398 0
DWIDTH 16 0
BBX 13 25 2 -4
BITMAP
0078
E078
E078
E078
E078
E078
E078
E078
E078
E078
E078
E078
E078
E078
E078
E078
E078
E078
F0F8
FFB8
FFB8
EE00
E000
E000
E000
ENDCHAR
STARTCHAR paragraph
ENCODING 182
SWIDTH 396 0
DWIDTH 16 0
BBX 13 31 1 -1
BITMAP
1FF8
3FF8
7E18
FE18
FE18
FE18
FE18
FE18
FE18
FE18
FE18
FE18
FE18
FE18
7E18
7E18
3E18
0618
0618
0618
0618
0618
0618
0618
0618
0618
0618
0618
0618
0618
0618
ENDCHAR
STARTCHAR periodcentered
ENCODING 183
SWIDTH 155 0
DWIDTH 6 0
BBX 3 4 2 13
BITMAP
E0
E0
E0
E0
ENDCHAR
STARTCHAR cedilla
ENCODING 184
SWIDTH 249 0
DWIDTH 10 0
BBX 8 7 1 -6
BITMAP
18
18
18
07
C3
E7
7E
ENDCHAR
STARTCHAR onesuperior
ENCODING 185
SWIDTH 189 0
DWIDTH 8 0
BBX 5 19 1 14
BITMAP
18
18
38
F8
18
18
18
18
18
18
18
18
18
18
18
18
18
18
18
ENDCHAR
STARTCHAR ordmasculine
ENCODING 186
SWIDTH 277 0
DWIDTH 11 0
BBX 9 20 1 10
BITMAP
1E00
7F00
6380
6180
E180
E180
E180
E180
E180
E180
E180
E180
6180
6380
7F00
3E00
0000
0000
7F80
7F80
ENDCHAR
STARTCHAR guillemotright
ENCODING 187
SWIDTH 320 0
DWIDTH 13 0
BBX 11 21 1 4
BITMAP
E380
E380
6380
7180
71C0
71C0
39C0
38C0
38E0
38E0
18E0
38E0
38E0
39C0
31C0
71C0
71C0
7380
6380
E380
E380
ENDCHAR
STARTCHAR onequarter
ENCODING 188
SWIDTH 577 0
DWIDTH 24 0
BBX 21 31 2 -1
BITMAP
180180
180300
F80300
D80300
180600
180600
180400
180C00
180C00
181800
181800
181860
1830E0
1830E0
1830E0
1861E0
1861E0
18C360
18C360
18C660
018660
018660
018C60
030C60
031860
031FF8
061FF8
060060
0C0060
0C0060
0C0060
ENDCHAR
STARTCHAR onehalf
ENCODING 189
SWIDTH 599 0
DWIDTH 25 0
BBX 21 31 2 -1
BITMAP
180300
180200
F80600
D80600
180C00
180C00
180C00
181800
181800
181800
183000
1831E0
1863F0
186738
186618
18C618
18C618
18C618
198018
198030
018030
030060
0300C0
0601C0
060180
060300
0C0300
0C0600
0C0600
1807F8
1807F8
ENDCHAR
STARTCHAR threequarters
ENCODING 190
SWIDTH 602 0
DWIDTH 25 0
BBX 22 31 2 -1
BITMAP
3C00C0
FE00C0
C60180
C30180
C30100
830300
030300
030600
060600
3C0600
3E0C00
060C00
030C30
031870
831870
C310F0
C330F0
C631B0
FE61B0
7C61B0
006330
00C330
00C630
00C630
018430
018FFC
010FFC
030030
030030
060030
060030
ENDCHAR
STARTCHAR questiondown
ENCODING 191
SWIDTH 361 0
DWIDTH 15 0
BBX 13 31 1 -1
BITMAP
0700
0700
0700
0700
0000
0000
0000
0380
0380
0380
0700
0700
0700
0E00
1E00
1C00
3800
7800
7000
7000
F000
E038
E038
E038
E038
E038
F070
78F0
7FF0
3FE0
1F80
ENDCHAR
STARTCHAR Agrave
ENCODING 192
SWIDTH 422 0
DWIDTH 17 0
BBX 15 37 1 -1
BITMAP
0E00
0700
0300
0180
0000
0000
07C0
07C0
07C0
07E0
06E0
0EE0
0EE0
0EE0
0EE0
0CF0
1C70
1C70
1C70
1C70
1C78
1838
3838
3838
3838
3838
383C
701C
7FFC
7FFC
7FFC
701C
701E
E00E
E00E
E00E
E00E
ENDCHAR
STARTCHAR Aacute
ENCODING 193
SWIDTH 422 0
DWIDTH 17 0
BBX 15 37 1 -1
BITMAP
00E0
01C0
0180
0300
0000
0000
07C0
07C0
07C0
07E0
06E0
0EE0
0EE0
0EE0
0EE0
0CF0
1C70
1C70
1C70
1C70
1C78
1838
3838
3838
3838
3838
383C
701C
7FFC
7FFC
7FFC
701C
701E
E00E
E00E
E00E
E00E
ENDCHAR
STARTCHAR Acircumflex
ENCODING 194
SWIDTH 422 0
DWIDTH 17 0
BBX 15 37 1 -1
BITMAP
0380
07C0
0EE0
1C70
0000
0000
07C0
07C0
07C0
07E0
06E0
0EE0
0EE0
0EE0
0EE0
0CF0
1C70
1C70
1C70
1C70
1C78
1838
3838
3838
3838
3838
383C
701C
7FFC
7FFC
7FFC
701C
701E
E00E
E00E
E00E
E00E
ENDCHAR
STARTCHAR Atilde
ENCODING 195
SWIDTH 422 0
DWIDTH 17 0
BBX 15 36 1 -1
BITMAP
0310
0FF0
1FF0
1C00
0000
07C0
07C0
07C0
07E0
06E0
0EE0
0EE0
0EE0
0EE0
0CF0
1C70
1C70
1C70
1C70
1C78
1878
3838
3838
3838
3838
383C
701C
7FFC
7FFC
7FFC
701C
701E
E00E
E00E
E00E
E00E
ENDCHAR
STARTCHAR Adieresis
ENCODING 196
SWIDTH 422 0
DWIDTH 17 0
BBX 15 36 1 -1
BITMAP
0C70
0C70
0C70
0C70
0000
07C0
07C0
07C0
07E0
06E0
0EE0
0EE0
0EE0
0EE0
0CF0
1C70
1C70
1C70
1C70
1C78
1838
3838
3838
3838
3838
383C
701C
7FFC
7FFC
7FFC
701C
701E
E00E
E00E
E00E
E00E
ENDCHAR
STARTCHAR Aring
ENCODING 197
SWIDTH 422 0
DWIDTH 17 0
BBX 15 38 1 -1
BITMAP
07C0
0440
0460
0440
07C0
0100
0000
07C0
07C0
07C0
07E0
06E0
0EE0
0EE0
0EE0
0EE0
0CF0
1C70
1C70
1C70
1C70
1C78
1838
3838
3838
3838
3838
383C
701C
7FFC
7FFC
7FFC
701C
701E
E00E
E00E
E00E
E00E
ENDCHAR
STARTCHAR AE
ENCODING 198
SWIDTH 585 0
DWIDTH 24 0
BBX 22 31 1 -1
BITMAP
00FFFC
00FFFC
00FFFC
00FC00
01FC00
01FC00
01FC00
03BC00
03BC00
03BC00
03BC00
073C00
073C00
073C00
0E3FF0
0E3FF0
0E3FF0
0E3C00
1C3C00
1C3C00
1C3C00
383C00
3FFC00
3FFC00
3FFC00
703C00
703C00
703C00
E03FFC
E03FFC
E03FFC
ENDCHAR
STARTCHAR Ccedilla
ENCODING 199
SWIDTH 380 0
DWIDTH 16 0
BBX 13 37 1 -7
BITMAP
0FC0
3FE0
3FF0
7878
7038
7038
F038
F038
F038
F038
F000
F000
F000
F000
F000
F000
F000
F000
F000
F000
F038
F038
F038
F038
F038
7038
7038
7878
3FF0
3FE0
0FC0
0300
0380
00C0
18E0
1DC0
0F80
ENDCHAR
STARTCHAR Egrave
ENCODING 200
SWIDTH 360 0
DWIDTH 15 0
BBX 11 37 2 -1
BITMAP
3800
1C00
0E00
0600
0000
0000
FFE0
FFE0
FFE0
E000
E000
E000
E000
E000
E000
E000
E000
E000
E000
E000
FFC0
FFC0
FFC0
E000
E000
E000
E000
E000
E000
E000
E000
E000
E000
E000
FFE0
FFE0
FFE0
ENDCHAR
STARTCHAR Eacute
ENCODING 201
SWIDTH 360 0
DWIDTH 15 0
BBX 11 37 2 -1
BITMAP
0380
0700
0600
0C00
0000
0000
FFE0
FFE0
FFE0
E000
E000
E000
E000
E000
E000
E000
E000
E000
E000
E000
FFC0
FFC0
FFC0
E000
E000
E000
E000
E000
E000
E000
E000
E000
E000
E000
FFE0
FFE0
FFE0
ENDCHAR
STARTCHAR Ecircumflex
ENCODING 202
SWIDTH 360 0
DWIDTH 15 0
BBX 11 37 2 -1
BITMAP
0E00
1F00
3B80
71C0
0000
0000
FFE0
FFE0
FFE0
E000
E000
E000
E000
E000
E000
E000
E000
E000
E000
E000
FFC0
FFC0
FFC0
E000
E000
E000
E000
E000
E000
E000
E000
E000
E000
E000
FFE0
FFE0
FFE0
ENDCHAR
STARTCHAR Edieresis
ENCODING 203
SWIDTH 360 0
DWIDTH 15 0
BBX 11 36 2 -1
BITMAP
3180
3180
3180
3180
0000
FFE0
FFE0
FFE0
E000
E000
E000
E000
E000
E000
E000
E000
E000
E000
E000
FFC0
FFC0
FFC0
E000
E000
E000
E000
E000
E000
E000
E000
E000
E000
E000
FFE0
FFE0
FFE0
ENDCHAR
STARTCHAR Igrave
ENCODING 204
SWIDTH 158 0
DWIDTH 6 0
BBX 6 37 -1 -1
BITMAP
F0
70
38
1C
00
00
1C
1C
1C
1C
1C
1C
1C
1C
1C
1C
1C
1C
1C
1C
1C
1C
1C
1C
1C
1C
1C
1C
1C
1C
1C
1C
1C
1C
1C
1C
1C
ENDCHAR
STARTCHAR Iacute
ENCODING 205
SWIDTH 158 0
DWIDTH 6 0
BBX 5 37 2 -1
BITMAP
38
70
E0
C0
00
00
E0
E0
E0
E0
E0
E0
E0
E0
E0
E0
E0
E0
E0
E0
E0
E0
E0
E0
E0
E0
E0
E0
E0
E0
E0
E0
E0
E0
E0
E0
E0
ENDCHAR
STARTCHAR Icircumflex
ENCODING 206
SWIDTH 158 0
DWIDTH 6 0
BBX 9 37 -1 -1
BITMAP
3C00
3E00
7700
E380
0000
0000
1C00
1C00
1C00
1C00
1C00
1C00
1C00
1C00
1C00
1C00
1C00
1C00
1C00
1C00
1C00
1C00
1C00
1C00
1C00
1C00
1C00
1C00
1C00
1C00
1C00
1C00
1C00
1C00
1C00
1C00
1C00
ENDCHAR
STARTCHAR Idieresis
ENCODING 207
SWIDTH 158 0
DWIDTH 6 0
BBX 8 36 -1 -1
BITMAP
27
E7
E7
E7
80
1C
1C
1C
1C
1C
1C
1C
1C
1C
1C
1C
1C
1C
1C
1C
1C
1C
1C
1C
1C
1C
1C
1C
1C
1C
1C
1C
1C
1C
1C
1C
ENDCHAR
STARTCHAR Eth
ENCODING 208
SWIDTH 396 0
DWIDTH 16 0
BBX 15 31 0 -1
BITMAP
3FE0
3FF8
3FFC
383C
381E
381E
380E
380E
380E
380E
380E
380E
380E
380E
FF0E
FF0E
FF0E
380E
380E
380E
380E
380E
380E
380E
380E
380E
381E
383C
3FFC
3FF8
3FE0
ENDCHAR
STARTCHAR Ntilde
ENCODING 209
SWIDTH 409 0
DWIDTH 17 0
BBX 13 36 2 -1
BITMAP
3E60
3FE0
21C0
0000
0000
F038
F038
F038
F838
F838
F838
DC38
DC38
DC38
CC38
CE38
CE38
CE38
C738
C738
C738
C3B8
C3B8
C3B8
C3B8
C1F8
C1F8
C1F8
C0F8
C0F8
C0F8
C0F8
C078
C078
C078
C038
ENDCHAR
STARTCHAR Ograve
ENCODING 210
SWIDTH 389 0
DWIDTH 16 0
BBX 14 37 1 -1
BITMAP
1C00
0E00
0700
0300
0000
0000
0FC0
1FE0
3FF0
7878
7038
7038
F03C
F03C
F03C
F03C
F03C
F03C
F03C
F03C
F03C
F03C
F03C
F03C
F03C
F03C
F03C
F03C
F03C
F03C
F03C
7038
7038
7878
3FF0
3FE0
0FC0
ENDCHAR
STARTCHAR Oacute
ENCODING 211
SWIDTH 389 0
DWIDTH 16 0
BBX 14 37 1 -1
BITMAP
01E0
01C0
0380
0700
0000
0000
0FC0
1FE0
3FF0
7878
7038
7038
F03C
F03C
F03C
F03C
F03C
F03C
F03C
F03C
F03C
F03C
F03C
F03C
F03C
F03C
F03C
F03C
F03C
F03C
F03C
7038
7038
7878
3FF0
3FE0
0FC0
ENDCHAR
STARTCHAR Ocircumflex
ENCODING 212
SWIDTH 389 0
DWIDTH 16 0
BBX 14 36 1 -1
BITMAP
0780
0FC0
1CE0
3860
0000
0FC0
1FE0
3FF0
7878
7038
7038
F03C
F03C
F03C
F03C
F03C
F03C
F03C
F03C
F03C
F03C
F03C
F03C
F03C
F03C
F03C
F03C
F03C
F03C
F03C
7038
7038
7878
3FF0
3FE0
0FC0
ENDCHAR
STARTCHAR Otilde
ENCODING 213
SWIDTH 389 0
DWIDTH 16 0
BBX 14 36 1 -1
BITMAP
0E20
1FF0
39E0
0000
0000
0FC0
1FE0
3FF0
7878
7038
7038
F03C
F03C
F03C
F03C
F03C
F03C
F03C
F03C
F03C
F03C
F03C
F03C
F03C
F03C
F03C
F03C
F03C
F03C
F03C
7038
7038
7878
3FF0
3FE0
0FC0
ENDCHAR
STARTCHAR Odieresis
ENCODING 214
SWIDTH 389 0
DWIDTH 16 0
BBX 14 36 1 -1
BITMAP
1CE0
1CE0
1CE0
1CE0
0000
0FC0
1FE0
3FF0
7878
7038
7038
F03C
F03C
F03C
F03C
F03C
F03C
F03C
F03C
F03C
F03C
F03C
F03C
F03C
F03C
F03C
F03C
F03C
F03C
F03C
7038
7038
7878
3FF0
3FE0
0FC0
ENDCHAR
STARTCHAR multiply
ENCODING 215
SWIDTH 366 0
DWIDTH 15 0
BBX 11 11 2 9
BITMAP
4040
E0E0
71C0
3B80
1F00
0E00
1F00
3B80
71C0
E0E0
C060
ENDCHAR
STARTCHAR Oslash
ENCODING 216
SWIDTH 389 0
DWIDTH 16 0
BBX 14 33 1 -2
BITMAP
0008
0FD8
1FF8
3FF0
7878
7038
7038
F07C
F07C
F07C
F0FC
F0FC
F0BC
F1BC
F13C
F13C
F33C
F23C
F63C
F63C
F43C
FC3C
FC3C
F83C
F83C
F83C
7038
7038
7878
3FF0
7FE0
4FC0
4000
ENDCHAR
STARTCHAR Ugrave
ENCODING 217
SWIDTH 387 0
DWIDTH 16 0
BBX 12 36 2 0
BITMAP
3800
1C00
0E00
0600
0000
0000
E070
E070
E070
E070
E070
E070
E070
E070
E070
E070
E070
E070
E070
E070
E070
E070
E070
E070
E070
E070
E070
E070
E070
E070
E070
E070
F0F0
7FE0
3FC0
1F80
ENDCHAR
STARTCHAR Uacute
ENCODING 218
SWIDTH 387 0
DWIDTH 16 0
BBX 12 36 2 0
BITMAP
01C0
0380
0700
0600
0000
0000
E070
E070
E070
E070
E070
E070
E070
E070
E070
E070
E070
E070
E070
E070
E070
E070
E070
E070
E070
E070
E070
E070
E070
E070
E070
E070
F0F0
7FE0
3FC0
1F80
ENDCHAR
STARTCHAR Ucircumflex
ENCODING 219
SWIDTH 387 0
DWIDTH 16 0
BBX 12 36 2 0
BITMAP
0F00
1F80
39C0
30C0
0000
0000
E070
E070
E070
E070
E070
E070
E070
E070
E070
E070
E070
E070
E070
E070
E070
E070
E070
E070
E070
E070
E070
E070
E070
E070
E070
E070
F0F0
7FE0
3FC0
1F80
ENDCHAR
STARTCHAR Udieresis
ENCODING 220
SWIDTH 387 0
DWIDTH 16 0
BBX 12 35 2 0
BITMAP
39C0
39C0
39C0
39C0
0000
E070
E070
E070
E070
E070
E070
E070
E070
E070
E070
E070
E070
E070
E070
E070
E070
E070
E070
E070
E070
E070
E070
E070
E070
E070
E070
F0F0
7FE0
3FC0
1F80
ENDCHAR
STARTCHAR Yacute
ENCODING 221
SWIDTH 406 0
DWIDTH 17 0
BBX 15 37 1 -1
BITMAP
00E0
01C0
0180
0300
0000
0000
E00E
E00E
F01C
701C
701C
7838
3838
3838
3870
1C70
1C70
1C60
1EE0
0EE0
0EE0
0FC0
07C0
07C0
0780
0380
0380
0380
0380
0380
0380
0380
0380
0380
0380
0380
0380
ENDCHAR
STARTCHAR Thorn
ENCODING 222
SWIDTH 377 0
DWIDTH 15 0
BBX 12 31 2 -1
BITMAP
E000
E000
E000
E000
E700
FFC0
FFE0
E0F0
E070
E070
E070
E070
E070
E070
E070
E070
E070
E070
E070
E0F0
FFE0
FFC0
FF00
E000
E000
E000
E000
E000
E000
E000
E000
ENDCHAR
STARTCHAR germandbls
ENCODING 223
SWIDTH 729 0
DWIDTH 30 0
BBX 28 31 1 -1
BITMAP
01801F00
0FE07FC0
3FF0FFE0
7870F1E0
7079E0E0
7039C070
E039C070
E039C070
F001C000
F001E000
7001E000
7800F000
7C00F800
3E007C00
1F003E00
0F801F00
07C00F80
03E007C0
01F003C0
00F001E0
007800E0
007800F0
E039C070
E039C070
E039C070
E039C0F0
F079E0E0
78F0E1E0
7FF0FFE0
3FE07FC0
0F803F00
ENDCHAR
STARTCHAR agrave
ENCODING 224
SWIDTH 422 0
DWIDTH 17 0
BBX 15 37 1 -1
BITMAP
0E00
0700
0300
0180
0000
0000
07C0
07C0
07C0
07E0
06E0
0EE0
0EE0
0EE0
0EE0
0CF0
1C70
1C70
1C70
1C70
1C78
1838
3838
3838
3838
3838
383C
701C
7FFC
7FFC
7FFC
701C
701E
E00E
E00E
E00E
E00E
ENDCHAR
STARTCHAR aacute
ENCODING 225
SWIDTH 422 0
DWIDTH 17 0
BBX 15 37 1 -1
BITMAP
00E0
01C0
0180
0300
0000
0000
07C0
07C0
07C0
07E0
06E0
0EE0
0EE0
0EE0
0EE0
0CF0
1C70
1C70
1C70
1C70
1C78
1838
3838
3838
3838
3838
383C
701C
7FFC
7FFC
7FFC
701C
701E
E00E
E00E
E00E
E00E
ENDCHAR
STARTCHAR acircumflex
ENCODING 226
SWIDTH 422 0
DWIDTH 17 0
BBX 15 37 1 -1
BITMAP
0380
07C0
0EE0
1C70
0000
0000
07C0
07C0
07C0
07E0
06E0
0EE0
0EE0
0EE0
0EE0
0CF0
1C70
1C70
1C70
1C70
1C78
1838
3838
3838
3838
3838
383C
701C
7FFC
7FFC
7FFC
701C
701E
E00E
E00E
E00E
E00E
ENDCHAR
STARTCHAR atilde
ENCODING 227
SWIDTH 422 0
DWIDTH 17 0
BBX 15 36 1 -1
BITMAP
0310
0FF0
1FF0
1C00
0000
07C0
07C0
07C0
07E0
06E0
0EE0
0EE0
0EE0
0EE0
0CF0
1C70
1C70
1C70
1C70
1C78
1878
3838
3838
3838
3838
383C
701C
7FFC
7FFC
7FFC
701C
701E
E00E
E00E
E00E
E00E
ENDCHAR
STARTCHAR adieresis
ENCODING 228
SWIDTH 422 0
DWIDTH 17 0
BBX 15 36 1 -1
BITMAP
0C70
0C70
0C70
0C70
0000
07C0
07C0
07C0
07E0
06E0
0EE0
0EE0
0EE0
0EE0
0CF0
1C70
1C70
1C70
1C70
1C78
1838
3838
3838
3838
3838
383C
701C
7FFC
7FFC
7FFC
701C
701E
E00E
E00E
E00E
E00E
ENDCHAR
STARTCHAR aring
ENCODING 229
SWIDTH 422 0
DWIDTH 17 0
BBX 15 38 1 -1
BITMAP
07C0
0440
0460
0440
07C0
0100
0000
07C0
07C0
07C0
07E0
06E0
0EE0
0EE0
0EE0
0EE0
0CF0
1C70
1C70
1C70
1C70
1C78
1838
3838
3838
3838
3838
383C
701C
7FFC
7FFC
7FFC
701C
701E
E00E
E00E
E00E
E00E
ENDCHAR
STARTCHAR ae
ENCODING 230
SWIDTH 585 0
DWIDTH 24 0
BBX 22 31 1 -1
BITMAP
00FFFC
00FFFC
00FFFC
00FC00
01FC00
01FC00
01FC00
03BC00
03BC00
03BC00
03BC00
073C00
073C00
073C00
0E3FF0
0E3FF0
0E3FF0
0E3C00
1C3C00
1C3C00
1C3C00
383C00
3FFC00
3FFC00
3FFC00
703C00
703C00
703C00
E03FFC
E03FFC
E03FFC
ENDCHAR
STARTCHAR ccedilla
ENCODING 231
SWIDTH 380 0
DWIDTH 16 0
BBX 13 37 1 -7
BITMAP
0FC0
3FE0
3FF0
7878
7038
7038
F038
F038
F038
F038
F000
F000
F000
F000
F000
F000
F000
F000
F000
F000
F038
F038
F038
F038
F038
7038
7038
7878
3FF0
3FE0
0FC0
0300
0380
00C0
18E0
1DC0
0F80
ENDCHAR
STARTCHAR egrave
ENCODING 232
SWIDTH 360 0
DWIDTH 15 0
BBX 11 37 2 -1
BITMAP
3800
1C00
0E00
0600
0000
0000
FFE0
FFE0
FFE0
E000
E000
E000
E000
E000
E000
E000
E000
E000
E000
E000
FFC0
FFC0
FFC0
E000
E000
E000
E000
E000
E000
E000
E000
E000
E000
E000
FFE0
FFE0
FFE0
ENDCHAR
STARTCHAR eacute
ENCODING 233
SWIDTH 360 0
DWIDTH 15 0
BBX 11 37 2 -1
BITMAP
0380
0700
0600
0C00
0000
0000
FFE0
FFE0
FFE0
E000
E000
E000
E000
E000
E000
E000
E000
E000
E000
E000
FFC0
FFC0
FFC0
E000
E000
E000
E000
E000
E000
E000
E000
E000
E000
E000
FFE0
FFE0
FFE0
ENDCHAR
STARTCHAR ecircumflex
ENCODING 234
SWIDTH 360 0
DWIDTH 15 0
BBX 11 37 2 -1
BITMAP
0E00
1F00
3B80
71C0
0000
0000
FFE0
FFE0
FFE0
E000
E000
E000
E000
E000
E000
E000
E000
E000
E000
E000
FFC0
FFC0
FFC0
E000
E000
E000
E000
E000
E000
E000
E000
E000
E000
E000
FFE0
FFE0
FFE0
ENDCHAR
STARTCHAR edieresis
ENCODING 235
SWIDTH 360 0
DWIDTH 15 0
BBX 11 36 2 -1
BITMAP
3180
3180
3180
3180
0000
FFE0
FFE0
FFE0
E000
E000
E000
E000
E000
E000
E000
E000
E000
E000
E000
FFC0
FFC0
FFC0
E000
E000
E000
E000
E000
E000
E000
E000
E000
E000
E000
FFE0
FFE0
FFE0
ENDCHAR
STARTCHAR igrave
ENCODING 236
SWIDTH 158 0
DWIDTH 6 0
BBX 6 37 -1 -1
BITMAP
F0
70
38
1C
00
00
1C
1C
1C
1C
1C
1C
1C
1C
1C
1C
1C
1C
1C
1C
1C
1C
1C
1C
1C
1C
1C
1C
1C
1C
1C
1C
1C
1C
1C
1C
1C
ENDCHAR
STARTCHAR iacute
ENCODING 237
SWIDTH 158 0
DWIDTH 6 0
BBX 5 37 2 -1
BITMAP
38
70
E0
C0
00
00
E0
E0
E0
E0
E0
E0
E0
E0
E0
E0
E0
E0
E0
E0
E0
E0
E0
E0
E0
E0
E0
E0
E0
E0
E0
E0
E0
E0
E0
E0
E0
ENDCHAR
STARTCHAR icircumflex
ENCODING 238
SWIDTH 158 0
DWIDTH 6 0
BBX 9 37 -1 -1
BITMAP
3C00
3E00
7700
E380
0000
0000
1C00
1C00
1C00
1C00
1C00
1C00
1C00
1C00
1C00
1C00
1C00
1C00
1C00
1C00
1C00
1C00
1C00
1C00
1C00
1C00
1C00
1C00
1C00
1C00
1C00
1C00
1C00
1C00
1C00
1C00
1C00
ENDCHAR
STARTCHAR idieresis
ENCODING 239
SWIDTH 158 0
DWIDTH 6 0
BBX 8 36 -1 -1
BITMAP
27
E7
E7
E7
80
1C
1C
1C
1C
1C
1C
1C
1C
1C
1C
1C
1C
1C
1C
1C
1C
1C
1C
1C
1C
1C
1C
1C
1C
1C
1C
1C
1C
1C
1C
1C
ENDCHAR
STARTCHAR eth
ENCODING 240
SWIDTH 396 0
DWIDTH 16 0
BBX 15 31 0 -1
BITMAP
3FE0
3FF8
3FFC
383C
381E
381E
380E
380E
380E
380E
380E
380E
380E
380E
FF0E
FF0E
FF0E
380E
380E
380E
380E
380E
380E
380E
380E
380E
381E
383C
3FFC
3FF8
3FE0
ENDCHAR
STARTCHAR ntilde
ENCODING 241
SWIDTH 409 0
DWIDTH 17 0
BBX 13 36 2 -1
BITMAP
3E60
3FE0
21C0
0000
0000
F038
F038
F038
F838
F838
F838
DC38
DC38
DC38
CC38
CE38
CE38
CE38
C738
C738
C738
C3B8
C3B8
C3B8
C3B8
C1F8
C1F8
C1F8
C0F8
C0F8
C0F8
C0F8
C078
C078
C078
C038
ENDCHAR
STARTCHAR ograve
ENCODING 242
SWIDTH 389 0
DWIDTH 16 0
BBX 14 37 1 -1
BITMAP
1C00
0E00
0700
0300
0000
0000
0FC0
1FE0
3FF0
7878
7038
7038
F03C
F03C
F03C
F03C
F03C
F03C
F03C
F03C
F03C
F03C
F03C
F03C
F03C
F03C
F03C
F03C
F03C
F03C
F03C
7038
7038
7878
3FF0
3FE0
0FC0
ENDCHAR
STARTCHAR oacute
ENCODING 243
SWIDTH 389 0
DWIDTH 16 0
BBX 14 37 1 -1
BITMAP
01E0
01C0
0380
0700
0000
0000
0FC0
1FE0
3FF0
7878
7038
7038
F03C
F03C
F03C
F03C
F03C
F03C
F03C
F03C
F03C
F03C
F03C
F03C
F03C
F03C
F03C
F03C
F03C
F03C
F03C
7038
7038
7878
3FF0
3FE0
0FC0
ENDCHAR
STARTCHAR ocircumflex
ENCODING 244
SWIDTH 389 0
DWIDTH 16 0
BBX 14 36 1 -1
BITMAP
0780
0FC0
1CE0
3860
0000
0FC0
1FE0
3FF0
7878
7038
7038
F03C
F03C
F03C
F03C
F03C
F03C
F03C
F03C
F03C
F03C
F03C
F03C
F03C
F03C
F03C
F03C
F03C
F03C
F03C
7038
7038
7878
3FF0
3FE0
0FC0
ENDCHAR
STARTCHAR otilde
ENCODING 245
SWIDTH 389 0
DWIDTH 16 0
BBX 14 36 1 -1
BITMAP
0E20
1FF0
39E0
0000
0000
0FC0
1FE0
3FF0
7878
7038
7038
F03C
F03C
F03C
F03C
F03C
F03C
F03C
F03C
F03C
F03C
F03C
F03C
F03C
F03C
F03C
F03C
F03C
F03C
F03C
7038
7038
7878
3FF0
3FE0
0FC0
ENDCHAR
STARTCHAR odieresis
ENCODING 246
SWIDTH 389 0
DWIDTH 16 0
BBX 14 36 1 -1
BITMAP
1CE0
1CE0
1CE0
1CE0
0000
0FC0
1FE0
3FF0
7878
7038
7038
F03C
F03C
F03C
F03C
F03C
F03C
F03C
F03C
F03C
F03C
F03C
F03C
F03C
F03C
F03C
F03C
F03C
F03C
F03C
7038
7038
7878
3FF0
3FE0
0FC0
ENDCHAR
STARTCHAR divide
ENCODING 247
SWIDTH 350 0
DWIDTH 14 0
BBX 12 15 1 7
BITMAP
0700
0700
0700
0700
0000
0000
0000
FFF0
FFF0
0000
0000
0700
0700
0700
0700
ENDCHAR
STARTCHAR oslash
ENCODING 248
SWIDTH 389 0
DWIDTH 16 0
BBX 14 33 1 -2
BITMAP
0008
0FD8
1FF8
3FF0
7878
7038
7038
F07C
F07C
F07C
F0FC
F0FC
F0BC
F1BC
F13C
F13C
F33C
F23C
F63C
F63C
F43C
FC3C
FC3C
F83C
F83C
F83C
7038
7038
7878
3FF0
7FE0
4FC0
4000
ENDCHAR
STARTCHAR ugrave
ENCODING 249
SWIDTH 387 0
DWIDTH 16 0
BBX 12 36 2 0
BITMAP
3800
1C00
0E00
0600
0000
0000
E070
E070
E070
E070
E070
E070
E070
E070
E070
E070
E070
E070
E070
E070
E070
E070
E070
E070
E070
E070
E070
E070
E070
E070
E070
E070
F0F0
7FE0
3FC0
1F80
ENDCHAR
STARTCHAR uacute
ENCODING 250
SWIDTH 387 0
DWIDTH 16 0
BBX 12 36 2 0
BITMAP
01C0
0380
0700
0600
0000
0000
E070
E070
E070
E070
E070
E070
E070
E070
E070
E070
E070
E070
E070
E070
E070
E070
E070
E070
E070
E070
E070
E070
E070
E070
E070
E070
F0F0
7FE0
3FC0
1F80
ENDCHAR
STARTCHAR ucircumflex
ENCODING 251
SWIDTH 387 0
DWIDTH 16 0
BBX 12 36 2 0
BITMAP
0F00
1F80
39C0
30C0
0000
0000
E070
E070
E070
E070
E070
E070
E070
E070
E070
E070
E070
E070
E070
E070
E070
E070
E070
E070
E070
E070
E070
E070
E070
E070
E070
E070
F0F0
7FE0
3FC0
1F80
ENDCHAR
STARTCHAR udieresis
ENCODING 252
SWIDTH 387 0
DWIDTH 16 0
BBX 12 35 2 0
BITMAP
39C0
39C0
39C0
39C0
0000
E070
E070
E070
E070
E070
E070
E070
E070
E070
E070
E070
E070
E070
E070
E070
E070
E070
E070
E070
E070
E070
E070
E070
E070
E070
E070
F0F0
7FE0
3FC0
1F80
ENDCHAR
STARTCHAR yacute
ENCODING 253
SWIDTH 406 0
DWIDTH 17 0
BBX 15 37 1 -1
BITMAP
00E0
01C0
0180
0300
0000
0000
E00E
E00E
F01C
701C
701C
7838
3838
3838
3870
1C70
1C70
1C60
1EE0
0EE0
0EE0
0FC0
07C0
07C0
0780
0380
0380
0380
0380
0380
0380
0380
0380
0380
0380
0380
0380
ENDCHAR
STARTCHAR thorn
ENCODING 254
SWIDTH 377 0
DWIDTH 15 0
BBX 12 31 2 -1
BITMAP
E000
E000
E000
E000
E700
FFC0
FFE0
E0F0
E070
E070
E070
E070
E070
E070
E070
E070
E070
E070
E070
E0F0
FFE0
FFC0
FF00
E000
E000
E000
E000
E000
E000
E000
E000
ENDCHAR
STARTCHAR ydieresis
ENCODING 255
SWIDTH 406 0
DWIDTH 17 0
BBX 15 36 1 -1
BITMAP
1C60
1C60
1C60
1C60
0000
E00E
E00E
F01C
701C
701C
7838
3838
3838
3870
1C70
1C70
1C60
1EE0
0EE0
0EE0
0FC0
07C0
07C0
0780
0380
0380
0380
0380
0380
0380
0380
0380
0380
0380
0380
0380
ENDCHAR
STARTCHAR Amacron
ENCODING 256
SWIDTH 422 0
DWIDTH 17 0
BBX 15 35 1 -1
BITMAP
1FF0
1FF0
0000
0000
07C0
07C0
07C0
07E0
06E0
0EE0
0EE0
0EE0
0EE0
0CF0
1C70
1C70
1C70
1C70
1C78
1838
3838
3838
3838
3838
383C
701C
7FFC
7FFC
7FFC
701C
701E
E00E
E00E
E00E
E00E
ENDCHAR
STARTCHAR amacron
ENCODING 257
SWIDTH 422 0
DWIDTH 17 0
BBX 15 35 1 -1
BITMAP
1FF0
1FF0
0000
0000
07C0
07C0
07C0
07E0
06E0
0EE0
0EE0
0EE0
0EE0
0CF0
1C70
1C70
1C70
1C70
1C78
1838
3838
3838
3838
3838
383C
701C
7FFC
7FFC
7FFC
701C
701E
E00E
E00E
E00E
E00E
ENDCHAR
STARTCHAR Abreve
ENCODING 258
SWIDTH 422 0
DWIDTH 17 0
BBX 15 36 1 -1
BITMAP
1830
0C70
0FE0
07C0
0000
07C0
07C0
07C0
07E0
06E0
0EE0
0EE0
0EE0
0EE0
0CF0
1C70
1C70
1C70
1C70
1C78
1838
3838
3838
3838
3838
383C
701C
7FFC
7FFC
7FFC
701C
701E
E00E
E00E
E00E
E00E
ENDCHAR
STARTCHAR abreve
ENCODING 259
SWIDTH 422 0
DWIDTH 17 0
BBX 15 36 1 -1
BITMAP
1830
0C70
0FE0
07C0
0000
07C0
07C0
07C0
07E0
06E0
0EE0
0EE0
0EE0
0EE0
0CF0
1C70
1C70
1C70
1C70
1C78
1838
3838
3838
3838
3838
383C
701C
7FFC
7FFC
7FFC
701C
701E
E00E
E00E
E00E
E00E
ENDCHAR
STARTCHAR Aogonek
ENCODING 260
SWIDTH 422 0
DWIDTH 17 0
BBX 16 37 1 -7
BITMAP
07C0
07C0
07C0
07E0
06E0
0EE0
0EE0
0EE0
0EE0
0CF0
1C70
1C70
1C70
1C70
1C78
1838
3838
3838
3838
3838
383C
701C
7FFC
7FFC
7FFC
701C
701E
E00E
E00E
E00E
E00E
000C
0018
0018
0038
001F
000E
ENDCHAR
STARTCHAR aogonek
ENCODING 261
SWIDTH 422 0
DWIDTH 17 0
BBX 16 37 1 -7
BITMAP
07C0
07C0
07C0
07E0
06E0
0EE0
0EE0
0EE0
0EE0
0CF0
1C70
1C70
1C70
1C70
1C78
1838
3838
3838
3838
3838
383C
701C
7FFC
7FFC
7FFC
701C
701E
E00E
E00E
E00E
E00E
000C
0018
0018
0038
001F
000E
ENDCHAR
STARTCHAR Cacute
ENCODING 262
SWIDTH 380 0
DWIDTH 16 0
BBX 13 37 1 -1
BITMAP
01E0
01C0
0380
0700
0000
0000
0FC0
3FE0
3FF0
7878
7038
7038
F038
F038
F038
F038
F000
F000
F000
F000
F000
F000
F000
F000
F000
F000
F038
F038
F038
F038
F038
7038
7038
7878
3FF0
3FE0
0FC0
ENDCHAR
STARTCHAR cacute
ENCODING 263
SWIDTH 380 0
DWIDTH 16 0
BBX 13 37 1 -1
BITMAP
01E0
01C0
0380
0700
0000
0000
0FC0
3FE0
3FF0
7878
7038
7038
F038
F038
F038
F038
F000
F000
F000
F000
F000
F000
F000
F000
F000
F000
F038
F038
F038
F038
F038
7038
7038
7878
3FF0
3FE0
0FC0
ENDCHAR
STARTCHAR Ccircumflex
ENCODING 264
SWIDTH 380 0
DWIDTH 16 0
BBX 13 36 1 -1
BITMAP
0780
0FC0
1CE0
3860
0000
0FC0
3FE0
3FF0
7878
7038
7038
F038
F038
F038
F038
F000
F000
F000
F000
F000
F000
F000
F000
F000
F000
F038
F038
F038
F038
F038
7038
7038
7878
3FF0
3FE0
0FC0
ENDCHAR
STARTCHAR ccircumflex
ENCODING 265
SWIDTH 380 0
DWIDTH 16 0
BBX 13 36 1 -1
BITMAP
0780
0FC0
1CE0
3860
0000
0FC0
3FE0
3FF0
7878
7038
7038
F038
F038
F038
F038
F000
F000
F000
F000
F000
F000
F000
F000
F000
F000
F038
F038
F038
F038
F038
7038
7038
7878
3FF0
3FE0
0FC0
ENDCHAR
STARTCHAR Cdotaccent
ENCODING 266
SWIDTH 380 0
DWIDTH 16 0
BBX 13 36 1 -1
BITMAP
0700
0700
0700
0700
0000
0FC0
3FE0
3FF0
7878
7038
7038
F038
F038
F038
F038
F000
F000
F000
F000
F000
F000
F000
F000
F000
F000
F038
F038
F038
F038
F038
7038
7038
7878
3FF0
3FE0
0FC0
ENDCHAR
STARTCHAR cdotaccent
ENCODING 267
SWIDTH 380 0
DWIDTH 16 0
BBX 13 36 1 -1
BITMAP
0700
0700
0700
0700
0000
0FC0
3FE0
3FF0
7878
7038
7038
F038
F038
F038
F038
F000
F000
F000
F000
F000
F000
F000
F000
F000
F000
F038
F038
F038
F038
F038
7038
7038
7878
3FF0
3FE0
0FC0
ENDCHAR
STARTCHAR Ccaron
ENCODING 268
SWIDTH 380 0
DWIDTH 16 0
BBX 13 36 1 -1
BITMAP
3860
1CE0
0FC0
0780
0000
0FC0
3FE0
3FF0
7878
7038
7038
F038
F038
F038
F038
F000
F000
F000
F000
F000
F000
F000
F000
F000
F000
F038
F038
F038
F038
F038
7038
7038
7878
3FF0
3FE0
0FC0
ENDCHAR
STARTCHAR ccaron
ENCODING 269
SWIDTH 380 0
DWIDTH 16 0
BBX 13 36 1 -1
BITMAP
3860
1CE0
0FC0
0780
0000
0FC0
3FE0
3FF0
7878
7038
7038
F038
F038
F038
F038
F000
F000
F000
F000
F000
F000
F000
F000
F000
F000
F038
F038
F038
F038
F038
7038
7038
7878
3FF0
3FE0
0FC0
ENDCHAR
STARTCHAR Dcaron
ENCODING 270
SWIDTH 396 0
DWIDTH 16 0
BBX 13 37 2 -1
BITMAP
71C0
3980
1F80
0F00
0000
0000
FF80
FFE0
FFF0
E0F0
E078
E038
E038
E038
E038
E038
E038
E038
E038
E038
E038
E038
E038
E038
E038
E038
E038
E038
E038
E038
E038
E038
E078
E0F0
FFF0
FFE0
FF80
ENDCHAR
STARTCHAR dcaron
ENCODING 271
SWIDTH 396 0
DWIDTH 16 0
BBX 13 37 2 -1
BITMAP
71C0
3980
1F80
0F00
0000
0000
FF80
FFE0
FFF0
E0F0
E078
E038
E038
E038
E038
E038
E038
E038
E038
E038
E038
E038
E038
E038
E038
E038
E038
E038
E038
E038
E038
E038
E078
E0F0
FFF0
FFE0
FF80
ENDCHAR
STARTCHAR Dcroat
ENCODING 272
SWIDTH 396 0
DWIDTH 16 0
BBX 15 31 0 -1
BITMAP
3FE0
3FF8
3FFC
383C
381E
381E
380E
380E
380E
380E
380E
380E
380E
380E
FF0E
FF0E
FF0E
380E
380E
380E
380E
380E
380E
380E
380E
380E
381E
383C
3FFC
3FF8
3FE0
ENDCHAR
STARTCHAR dcroat
ENCODING 273
SWIDTH 396 0
DWIDTH 16 0
BBX 15 31 0 -1
BITMAP
3FE0
3FF8
3FFC
383C
381E
381E
380E
380E
380E
380E
380E
380E
380E
380E
FF0E
FF0E
FF0E
380E
380E
380E
380E
380E
380E
380E
380E
380E
381E
383C
3FFC
3FF8
3FE0
ENDCHAR
STARTCHAR Emacron
ENCODING 274
SWIDTH 360 0
DWIDTH 15 0
BBX 11 35 2 -1
BITMAP
7FC0
7FC0
0000
0000
FFE0
FFE0
FFE0
E000
E000
E000
E000
E000
E000
E000
E000
E000
E000
E000
FFC0
FFC0
FFC0
E000
E000
E000
E000
E000
E000
E000
E000
E000
E000
E000
FFE0
FFE0
FFE0
ENDCHAR
STARTCHAR emacron
ENCODING 275
SWIDTH 360 0
DWIDTH 15 0
BBX 11 35 2 -1
BITMAP
7FC0
7FC0
0000
0000
FFE0
FFE0
FFE0
E000
E000
E000
E000
E000
E000
E000
E000
E000
E000
E000
FFC0
FFC0
FFC0
E000
E000
E000
E000
E000
E000
E000
E000
E000
E000
E000
FFE0
FFE0
FFE0
ENDCHAR
STARTCHAR Ebreve
ENCODING 276
SWIDTH 360 0
DWIDTH 15 0
BBX 11 37 2 -1
BITMAP
60C0
71C0
3F80
1F00
0000
0000
FFE0
FFE0
FFE0
E000
E000
E000
E000
E000
E000
E000
E000
E000
E000
E000
FFC0
FFC0
FFC0
E000
E000
E000
E000
E000
E000
E000
E000
E000
E000
E000
FFE0
FFE0
FFE0
ENDCHAR
STARTCHAR ebreve
ENCODING 277
SWIDTH 360 0
DWIDTH 15 0
BBX 11 37 2 -1
BITMAP
60C0
71C0
3F80
1F00
0000
0000
FFE0
FFE0
FFE0
E000
E000
E000
E000
E000
E000
E000
E000
E000
E000
E000
FFC0
FFC0
FFC0
E000
E000
E000
E000
E000
E000
E000
E000
E000
E000
E000
FFE0
FFE0
FFE0
ENDCHAR
STARTCHAR Edotaccent
ENCODING 278
SWIDTH 360 0
DWIDTH 15 0
BBX 11 36 2 -1
BITMAP
0E00
0E00
0E00
0E00
0000
FFE0
FFE0
FFE0
E000
E000
E000
E000
E000
E000
E000
E000
E000
E000
E000
FFC0
FFC0
FFC0
E000
E000
E000
E000
E000
E000
E000
E000
E000
E000
E000
FFE0
FFE0
FFE0
ENDCHAR
STARTCHAR edotaccent
ENCODING 279
SWIDTH 360 0
DWIDTH 15 0
BBX 11 36 2 -1
BITMAP
0E00
0E00
0E00
0E00
0000
FFE0
FFE0
FFE0
E000
E000
E000
E000
E000
E000
E000
E000
E000
E000
E000
FFC0
FFC0
FFC0
E000
E000
E000
E000
E000
E000
E000
E000
E000
E000
E000
FFE0
FFE0
FFE0
ENDCHAR
STARTCHAR Eogonek
ENCODING 280
SWIDTH 360 0
DWIDTH 15 0
BBX 12 37 2 -7
BITMAP
FFE0
FFE0
FFE0
E000
E000
E000
E000
E000
E000
E000
E000
E000
E000
E000
FFC0
FFC0
FFC0
E000
E000
E000
E000
E000
E000
E000
E000
E000
E000
E000
FFE0
FFE0
FFE0
00C0
0180
0380
0380
03F0
00E0
ENDCHAR
STARTCHAR eogonek
ENCODING 281
SWIDTH 360 0
DWIDTH 15 0
BBX 12 37 2 -7
BITMAP
FFE0
FFE0
FFE0
E000
E000
E000
E000
E000
E000
E000
E000
E000
E000
E000
FFC0
FFC0
FFC0
E000
E000
E000
E000
E000
E000
E000
E000
E000
E000
E000
FFE0
FFE0
FFE0
00C0
0180
0380
0380
03F0
00E0
ENDCHAR
STARTCHAR Ecaron
ENCODING 282
SWIDTH 360 0
DWIDTH 15 0
BBX 11 37 2 -1
BITMAP
71C0
3B80
1F00
0E00
0000
0000
FFE0
FFE0
FFE0
E000
E000
E000
E000
E000
E000
E000
E000
E000
E000
E000
FFC0
FFC0
FFC0
E000
E000
E000
E000
E000
E000
E000
E000
E000
E000
E000
FFE0
FFE0
FFE0
ENDCHAR
STARTCHAR ecaron
ENCODING 283
SWIDTH 360 0
DWIDTH 15 0
BBX 11 37 2 -1
BITMAP
71C0
3B80
1F00
0E00
0000
0000
FFE0
FFE0
FFE0
E000
E000
E000
E000
E000
E000
E000
E000
E000
E000
E000
FFC0
FFC0
FFC0
E000
E000
E000
E000
E000
E000
E000
E000
E000
E000
E000
FFE0
FFE0
FFE0
ENDCHAR
STARTCHAR Gcircumflex
ENCODING 284
SWIDTH 383 0
DWIDTH 16 0
BBX 13 36 1 -1
BITMAP
0780
0FC0
1CE0
3860
0000
0FC0
3FE0
3FF0
7878
7038
7038
F038
F038
F038
F038
F000
F000
F000
F000
F1F8
F1F8
F1F8
F038
F038
F038
F038
F038
F038
F038
F038
7038
7038
7878
3FF0
3FE0
0FC0
ENDCHAR
STARTCHAR gcircumflex
ENCODING 285
SWIDTH 383 0
DWIDTH 16 0
BBX 13 36 1 -1
BITMAP
0780
0FC0
1CE0
3860
0000
0FC0
3FE0
3FF0
7878
7038
7038
F038
F038
F038
F038
F000
F000
F000
F000
F1F8
F1F8
F1F8
F038
F038
F038
F038
F038
F038
F038
F038
7038
7038
7878
3FF0
3FE0
0FC0
ENDCHAR
STARTCHAR Gbreve
ENCODING 286
SWIDTH 383 0
DWIDTH 16 0
BBX 13 36 1 -1
BITMAP
1860
1860
1FC0
0780
0000
0FC0
3FE0
3FF0
7878
7038
7038
F038
F038
F038
F038
F000
F000
F000
F000
F1F8
F1F8
F1F8
F038
F038
F038
F038
F038
F038
F038
F038
7038
7038
7878
3FF0
3FE0
0FC0
ENDCHAR
STARTCHAR gbreve
ENCODING 287
SWIDTH 383 0
DWIDTH 16 0
BBX 13 36 1 -1
BITMAP
1860
1860
1FC0
0780
0000
0FC0
3FE0
3FF0
7878
7038
7038
F038
F038
F038
F038
F000
F000
F000
F000
F1F8
F1F8
F1F8
F038
F038
F038
F038
F038
F038
F038
F038
7038
7038
7878
3FF0
3FE0
0FC0
ENDCHAR
STARTCHAR Gdotaccent
ENCODING 288
SWIDTH 383 0
DWIDTH 16 0
BBX 13 36 1 -1
BITMAP
0300
0300
0300
0300
0000
0FC0
3FE0
3FF0
7878
7038
7038
F038
F038
F038
F038
F000
F000
F000
F000
F1F8
F1F8
F1F8
F038
F038
F038
F038
F038
F038
F038
F038
7038
7038
7878
3FF0
3FE0
0FC0
ENDCHAR
STARTCHAR gdotaccent
ENCODING 289
SWIDTH 383 0
DWIDTH 16 0
BBX 13 36 1 -1
BITMAP
0300
0300
0300
0300
0000
0FC0
3FE0
3FF0
7878
7038
7038
F038
F038
F038
F038
F000
F000
F000
F000
F1F8
F1F8
F1F8
F038
F038
F038
F038
F038
F038
F038
F038
7038
7038
7878
3FF0
3FE0
0FC0
ENDCHAR
STARTCHAR uni0122
ENCODING 290
SWIDTH 383 0
DWIDTH 16 0
BBX 13 38 1 -8
BITMAP
0FC0
3FE0
3FF0
7878
7038
7038
F038
F038
F038
F038
F000
F000
F000
F000
F1F8
F1F8
F1F8
F038
F038
F038
F038
F038
F038
F038
F038
7038
7038
7878
3FF0
3FE0
0FC0
0000
0700
0700
0700
0700
0300
0200
ENDCHAR
STARTCHAR uni0123
ENCODING 291
SWIDTH 383 0
DWIDTH 16 0
BBX 13 38 1 -8
BITMAP
0FC0
3FE0
3FF0
7878
7038
7038
F038
F038
F038
F038
F000
F000
F000
F000
F1F8
F1F8
F1F8
F038
F038
F038
F038
F038
F038
F038
F038
7038
7038
7878
3FF0
3FE0
0FC0
0000
0300
0300
0300
0300
0300
0200
ENDCHAR
STARTCHAR Hcircumflex
ENCODING 292
SWIDTH 408 0
DWIDTH 17 0
BBX 13 37 2 -1
BITMAP
0700
0F80
1DC0
38E0
0000
0000
E038
E038
E038
E038
E038
E038
E038
E038
E038
E038
E038
E038
E038
E038
FFF8
FFF8
FFF8
E038
E038
E038
E038
E038
E038
E038
E038
E038
E038
E038
E038
E038
E038
ENDCHAR
STARTCHAR hcircumflex
ENCODING 293
SWIDTH 408 0
DWIDTH 17 0
BBX 13 37 2 -1
BITMAP
0700
0F80
1DC0
38E0
0000
0000
E038
E038
E038
E038
E038
E038
E038
E038
E038
E038
E038
E038
E038
E038
FFF8
FFF8
FFF8
E038
E038
E038
E038
E038
E038
E038
E038
E038
E038
E038
E038
E038
E038
ENDCHAR
STARTCHAR Hbar
ENCODING 294
SWIDTH 415 0
DWIDTH 17 0
BBX 17 31 0 -1
BITMAP
380E00
380E00
380E00
380E00
380E00
FFFF80
FFFF80
FFFF80
380E00
380E00
380E00
380E00
380E00
380E00
3FFE00
3FFE00
3FFE00
380E00
380E00
380E00
380E00
380E00
380E00
380E00
380E00
380E00
380E00
380E00
380E00
380E00
380E00
ENDCHAR
STARTCHAR hbar
ENCODING 295
SWIDTH 415 0
DWIDTH 17 0
BBX 17 31 0 -1
BITMAP
380E00
380E00
380E00
380E00
380E00
FFFF80
FFFF80
FFFF80
380E00
380E00
380E00
380E00
380E00
380E00
3FFE00
3FFE00
3FFE00
380E00
380E00
380E00
380E00
380E00
380E00
380E00
380E00
380E00
380E00
380E00
380E00
380E00
380E00
ENDCHAR
STARTCHAR Itilde
ENCODING 296
SWIDTH 158 0
DWIDTH 6 0
BBX 9 36 -1 -1
BITMAP
F980
FF80
8F00
0000
0000
1C00
1C00
1C00
1C00
1C00
1C00
1C00
1C00
1C00
1C00
1C00
1C00
1C00
1C00
1C00
1C00
1C00
1C00
1C00
1C00
1C00
1C00
1C00
1C00
1C00
1C00
1C00
1C00
1C00
1C00
1C00
ENDCHAR
STARTCHAR itilde
ENCODING 297
SWIDTH 158 0
DWIDTH 6 0
BBX 9 36 -1 -1
BITMAP
F980
FF80
8F00
0000
0000
1C00
1C00
1C00
1C00
1C00
1C00
1C00
1C00
1C00
1C00
1C00
1C00
1C00
1C00
1C00
1C00
1C00
1C00
1C00
1C00
1C00
1C00
1C00
1C00
1C00
1C00
1C00
1C00
1C00
1C00
1C00
ENDCHAR
STARTCHAR Imacron
ENCODING 298
SWIDTH 158 0
DWIDTH 6 0
BBX 8 35 -1 -1
BITMAP
FF
FF
00
00
1C
1C
1C
1C
1C
1C
1C
1C
1C
1C
1C
1C
1C
1C
1C
1C
1C
1C
1C
1C
1C
1C
1C
1C
1C
1C
1C
1C
1C
1C
1C
ENDCHAR
STARTCHAR imacron
ENCODING 299
SWIDTH 158 0
DWIDTH 6 0
BBX 8 35 -1 -1
BITMAP
FF
FF
00
00
1C
1C
1C
1C
1C
1C
1C
1C
1C
1C
1C
1C
1C
1C
1C
1C
1C
1C
1C
1C
1C
1C
1C
1C
1C
1C
1C
1C
1C
1C
1C
ENDCHAR
STARTCHAR Ibreve
ENCODING 300
SWIDTH 158 0
DWIDTH 6 0
BBX 8 36 -1 -1
BITMAP
C3
E3
7F
3C
00
1C
1C
1C
1C
1C
1C
1C
1C
1C
1C
1C
1C
1C
1C
1C
1C
1C
1C
1C
1C
1C
1C
1C
1C
1C
1C
1C
1C
1C
1C
1C
ENDCHAR
STARTCHAR ibreve
ENCODING 301
SWIDTH 158 0
DWIDTH 6 0
BBX 8 36 -1 -1
BITMAP
C3
E3
7F
3C
00
1C
1C
1C
1C
1C
1C
1C
1C
1C
1C
1C
1C
1C
1C
1C
1C
1C
1C
1C
1C
1C
1C
1C
1C
1C
1C
1C
1C
1C
1C
1C
ENDCHAR
STARTCHAR Iogonek
ENCODING 302
SWIDTH 158 0
DWIDTH 6 0
BBX 6 37 0 -7
BITMAP
38
38
38
38
38
38
38
38
38
38
38
38
38
38
38
38
38
38
38
38
38
38
38
38
38
38
38
38
38
38
38
30
60
60
E0
7C
38
ENDCHAR
STARTCHAR iogonek
ENCODING 303
SWIDTH 158 0
DWIDTH 6 0
BBX 6 37 0 -7
BITMAP
38
38
38
38
38
38
38
38
38
38
38
38
38
38
38
38
38
38
38
38
38
38
38
38
38
38
38
38
38
38
38
30
60
60
E0
7C
38
ENDCHAR
STARTCHAR Idotaccent
ENCODING 304
SWIDTH 158 0
DWIDTH 6 0
BBX 3 36 2 -1
BITMAP
E0
E0
E0
E0
00
E0
E0
E0
E0
E0
E0
E0
E0
E0
E0
E0
E0
E0
E0
E0
E0
E0
E0
E0
E0
E0
E0
E0
E0
E0
E0
E0
E0
E0
E0
E0
ENDCHAR
STARTCHAR dotlessi
ENCODING 305
SWIDTH 158 0
DWIDTH 6 0
BBX 3 31 2 -1
BITMAP
E0
E0
E0
E0
E0
E0
E0
E0
E0
E0
E0
E0
E0
E0
E0
E0
E0
E0
E0
E0
E0
E0
E0
E0
E0
E0
E0
E0
E0
E0
E0
ENDCHAR
STARTCHAR IJ
ENCODING 306
SWIDTH 412 0
DWIDTH 17 0
BBX 13 31 2 -1
BITMAP
E038
E038
E038
E038
E038
E038
E038
E038
E038
E038
E038
E038
E038
E038
E038
E038
E038
E038
E038
E038
E038
E038
E038
E038
E038
E038
E038
E078
E7F0
E7E0
E7C0
ENDCHAR
STARTCHAR ij
ENCODING 307
SWIDTH 412 0
DWIDTH 17 0
BBX 13 31 2 -1
BITMAP
E038
E038
E038
E038
E038
E038
E038
E038
E038
E038
E038
E038
E038
E038
E038
E038
E038
E038
E038
E038
E038
E038
E038
E038
E038
E038
E038
E078
E7F0
E7E0
E7C0
ENDCHAR
STARTCHAR Jcircumflex
ENCODING 308
SWIDTH 255 0
DWIDTH 10 0
BBX 10 37 1 -1
BITMAP
0F00
1F80
3980
71C0
0000
0000
0700
0700
0700
0700
0700
0700
0700
0700
0700
0700
0700
0700
0700
0700
0700
0700
0700
0700
0700
0700
0700
0700
0700
0700
0700
0700
0F00
1E00
FE00
FC00
F000
ENDCHAR
STARTCHAR jcircumflex
ENCODING 309
SWIDTH 255 0
DWIDTH 10 0
BBX 10 37 1 -1
BITMAP
0F00
1F80
3980
71C0
0000
0000
0700
0700
0700
0700
0700
0700
0700
0700
0700
0700
0700
0700
0700
0700
0700
0700
0700
0700
0700
0700
0700
0700
0700
0700
0700
0700
0F00
1E00
FE00
FC00
F000
ENDCHAR
STARTCHAR uni0136
ENCODING 310
SWIDTH 409 0
DWIDTH 17 0
BBX 14 38 2 -8
BITMAP
E038
E038
E070
E070
E0E0
E0E0
E1C0
E1C0
E380
E380
E700
E700
EE00
EE00
FE00
FE00
FF00
FF00
F700
E780
E380
E3C0
E1C0
E1E0
E0E0
E0F0
E070
E070
E038
E038
E03C
0000
0700
0700
0700
0700
0200
0600
ENDCHAR
STARTCHAR uni0137
ENCODING 311
SWIDTH 409 0
DWIDTH 17 0
BBX 14 38 2 -8
BITMAP
E038
E038
E070
E070
E0E0
E0E0
E1C0
E1C0
E380
E380
E700
E700
EE00
EE00
FE00
FE00
FF00
FF00
F700
E780
E380
E3C0
E1C0
E1E0
E0E0
E0F0
E070
E070
E038
E038
E03C
0000
0700
0700
0700
0700
0200
0600
ENDCHAR
STARTCHAR kgreenlandic
ENCODING 312
SWIDTH 409 0
DWIDTH 17 0
BBX 14 31 2 -1
BITMAP
E038
E038
E070
E070
E0E0
E0E0
E1C0
E1C0
E380
E380
E700
E700
EE00
EE00
FE00
FE00
FF00
FF00
F700
E780
E380
E3C0
E1C0
E1E0
E0E0
E0F0
E070
E070
E038
E038
E03C
ENDCHAR
STARTCHAR Lacute
ENCODING 313
SWIDTH 337 0
DWIDTH 14 0
BBX 11 37 2 -1
BITMAP
1C00
3800
3000
6000
0000
0000
E000
E000
E000
E000
E000
E000
E000
E000
E000
E000
E000
E000
E000
E000
E000
E000
E000
E000
E000
E000
E000
E000
E000
E000
E000
E000
E000
E000
FFE0
FFE0
FFE0
ENDCHAR
STARTCHAR lacute
ENCODING 314
SWIDTH 337 0
DWIDTH 14 0
BBX 11 37 2 -1
BITMAP
1C00
3800
7000
6000
0000
0000
E000
E000
E000
E000
E000
E000
E000
E000
E000
E000
E000
E000
E000
E000
E000
E000
E000
E000
E000
E000
E000
E000
E000
E000
E000
E000
E000
E000
FFE0
FFE0
FFE0
ENDCHAR
STARTCHAR uni013B
ENCODING 315
SWIDTH 337 0
DWIDTH 14 0
BBX 11 38 2 -8
BITMAP
E000
E000
E000
E000
E000
E000
E000
E000
E000
E000
E000
E000
E000
E000
E000
E000
E000
E000
E000
E000
E000
E000
E000
E000
E000
E000
E000
E000
FFE0
FFE0
FFE0
0000
0E00
0E00
0E00
0E00
0400
0400
ENDCHAR
STARTCHAR uni013C
ENCODING 316
SWIDTH 337 0
DWIDTH 14 0
BBX 11 38 2 -8
BITMAP
E000
E000
E000
E000
E000
E000
E000
E000
E000
E000
E000
E000
E000
E000
E000
E000
E000
E000
E000
E000
E000
E000
E000
E000
E000
E000
E000
E000
FFE0
FFE0
FFE0
0000
0E00
0E00
0E00
0E00
0400
0400
ENDCHAR
STARTCHAR Lcaron
ENCODING 317
SWIDTH 337 0
DWIDTH 14 0
BBX 11 31 2 -1
BITMAP
E1C0
E1C0
E1C0
E1C0
E080
E080
E180
E100
E000
E000
E000
E000
E000
E000
E000
E000
E000
E000
E000
E000
E000
E000
E000
E000
E000
E000
E000
E000
FFE0
FFE0
FFE0
ENDCHAR
STARTCHAR lcaron
ENCODING 318
SWIDTH 337 0
DWIDTH 14 0
BBX 11 31 2 -1
BITMAP
E1C0
E1C0
E1C0
E1C0
E080
E080
E180
E100
E000
E000
E000
E000
E000
E000
E000
E000
E000
E000
E000
E000
E000
E000
E000
E000
E000
E000
E000
E000
FFE0
FFE0
FFE0
ENDCHAR
STARTCHAR Ldot
ENCODING 319
SWIDTH 337 0
DWIDTH 14 0
BBX 11 31 2 -1
BITMAP
E000
E000
E000
E000
E000
E000
E000
E000
E000
E000
E000
E000
E000
E000
E380
E380
E380
E380
E000
E000
E000
E000
E000
E000
E000
E000
E000
E000
FFE0
FFE0
FFE0
ENDCHAR
STARTCHAR ldot
ENCODING 320
SWIDTH 337 0
DWIDTH 14 0
BBX 11 31 2 -1
BITMAP
E000
E000
E000
E000
E000
E000
E000
E000
E000
E000
E000
E000
E000
E000
E380
E380
E380
E380
E000
E000
E000
E000
E000
E000
E000
E000
E000
E000
FFE0
FFE0
FFE0
ENDCHAR
STARTCHAR Lslash
ENCODING 321
SWIDTH 348 0
DWIDTH 14 0
BBX 13 31 0 -1
BITMAP
3800
3800
3800
3800
3800
3800
3800
3800
3800
3800
3840
38C0
38C0
3980
3B80
3F00
3E00
3C00
3800
7800
F800
F800
F800
B800
3800
3800
3800
3800
3FF8
3FF8
3FF8
ENDCHAR
STARTCHAR lslash
ENCODING 322
SWIDTH 348 0
DWIDTH 14 0
BBX 13 31 0 -1
BITMAP
3800
3800
3800
3800
3800
3800
3800
3800
3800
3800
3840
38C0
38C0
3980
3B80
3F00
3E00
3C00
3800
7800
F800
F800
F800
B800
3800
3800
3800
3800
3FF8
3FF8
3FF8
ENDCHAR
STARTCHAR Nacute
ENCODING 323
SWIDTH 409 0
DWIDTH 17 0
BBX 13 37 2 -1
BITMAP
01C0
0380
0300
0600
0000
0000
F038
F038
F038
F838
F838
F838
DC38
DC38
DC38
CC38
CE38
CE38
CE38
C738
C738
C738
C3B8
C3B8
C3B8
C3B8
C1F8
C1F8
C1F8
C0F8
C0F8
C0F8
C0F8
C078
C078
C078
C038
ENDCHAR
STARTCHAR nacute
ENCODING 324
SWIDTH 409 0
DWIDTH 17 0
BBX 13 37 2 -1
BITMAP
01C0
0380
0300
0600
0000
0000
F038
F038
F038
F838
F838
F838
DC38
DC38
DC38
CC38
CE38
CE38
CE38
C738
C738
C738
C3B8
C3B8
C3B8
C3B8
C1F8
C1F8
C1F8
C0F8
C0F8
C0F8
C0F8
C078
C078
C078
C038
ENDCHAR
STARTCHAR uni0145
ENCODING 325
SWIDTH 409 0
DWIDTH 17 0
BBX 13 38 2 -8
BITMAP
F038
F038
F038
F838
F838
F838
DC38
DC38
DC38
CC38
CE38
CE38
CE38
C738
C738
C738
C3B8
C3B8
C3B8
C3B8
C1F8
C1F8
C1F8
C0F8
C0F8
C0F8
C0F8
C078
C078
C078
C038
0000
0700
0700
0700
0700
0200
0600
ENDCHAR
STARTCHAR uni0146
ENCODING 326
SWIDTH 409 0
DWIDTH 17 0
BBX 13 38 2 -8
BITMAP
F038
F038
F038
F838
F838
F838
DC38
DC38
DC38
CC38
CE38
CE38
CE38
C738
C738
C738
C3B8
C3B8
C3B8
C3B8
C1F8
C1F8
C1F8
C0F8
C0F8
C0F8
C0F8
C078
C078
C078
C038
0000
0700
0700
0700
0700
0200
0600
ENDCHAR
STARTCHAR Ncaron
ENCODING 327
SWIDTH 409 0
DWIDTH 17 0
BBX 13 37 2 -1
BITMAP
38E0
1DC0
0F80
0F00
0000
0000
F038
F038
F038
F838
F838
F838
DC38
DC38
DC38
CC38
CE38
CE38
CE38
C738
C738
C738
C3B8
C3B8
C3B8
C3B8
C1F8
C1F8
C1F8
C0F8
C0F8
C0F8
C0F8
C078
C078
C078
C038
ENDCHAR
STARTCHAR ncaron
ENCODING 328
SWIDTH 409 0
DWIDTH 17 0
BBX 13 37 2 -1
BITMAP
38E0
1DC0
0F80
0F00
0000
0000
F038
F038
F038
F838
F838
F838
DC38
DC38
DC38
CC38
CE38
CE38
CE38
C738
C738
C738
C3B8
C3B8
C3B8
C3B8
C1F8
C1F8
C1F8
C0F8
C0F8
C0F8
C0F8
C078
C078
C078
C038
ENDCHAR
STARTCHAR napostrophe
ENCODING 329
SWIDTH 503 0
DWIDTH 21 0
BBX 19 31 0 -1
BITMAP
F7C0E0
F7C0E0
F7C0E0
F7E0E0
67E0E0
67E0E0
4770E0
4770E0
0770E0
0770E0
0738E0
0738E0
0738E0
071CE0
071CE0
071CE0
071CE0
070EE0
070EE0
070EE0
0707E0
0707E0
0707E0
0703E0
0703E0
0703E0
0703E0
0701E0
0701E0
0701E0
0700E0
ENDCHAR
STARTCHAR Omacron
ENCODING 332
SWIDTH 389 0
DWIDTH 16 0
BBX 14 35 1 -1
BITMAP
1FE0
1FE0
0000
0000
0FC0
1FE0
3FF0
7878
7038
7038
F03C
F03C
F03C
F03C
F03C
F03C
F03C
F03C
F03C
F03C
F03C
F03C
F03C
F03C
F03C
F03C
F03C
F03C
F03C
7038
7038
7878
3FF0
3FE0
0FC0
ENDCHAR
STARTCHAR omacron
ENCODING 333
SWIDTH 389 0
DWIDTH 16 0
BBX 14 35 1 -1
BITMAP
1FE0
1FE0
0000
0000
0FC0
1FE0
3FF0
7878
7038
7038
F03C
F03C
F03C
F03C
F03C
F03C
F03C
F03C
F03C
F03C
F03C
F03C
F03C
F03C
F03C
F03C
F03C
F03C
F03C
7038
7038
7878
3FF0
3FE0
0FC0
ENDCHAR
STARTCHAR Obreve
ENCODING 334
SWIDTH 389 0
DWIDTH 16 0
BBX 14 36 1 -1
BITMAP
1860
1860
1FC0
0780
0000
0FC0
1FE0
3FF0
7878
7038
7038
F03C
F03C
F03C
F03C
F03C
F03C
F03C
F03C
F03C
F03C
F03C
F03C
F03C
F03C
F03C
F03C
F03C
F03C
F03C
7038
7038
7878
3FF0
3FE0
0FC0
ENDCHAR
STARTCHAR obreve
ENCODING 335
SWIDTH 389 0
DWIDTH 16 0
BBX 14 36 1 -1
BITMAP
1860
1860
1FC0
0780
0000
0FC0
1FE0
3FF0
7878
7038
7038
F03C
F03C
F03C
F03C
F03C
F03C
F03C
F03C
F03C
F03C
F03C
F03C
F03C
F03C
F03C
F03C
F03C
F03C
F03C
7038
7038
7878
3FF0
3FE0
0FC0
ENDCHAR
STARTCHAR Ohungarumlaut
ENCODING 336
SWIDTH 389 0
DWIDTH 16 0
BBX 14 37 1 -1
BITMAP
0730
0670
0CE0
0CC0
0000
0000
0FC0
1FE0
3FF0
7878
7038
7038
F03C
F03C
F03C
F03C
F03C
F03C
F03C
F03C
F03C
F03C
F03C
F03C
F03C
F03C
F03C
F03C
F03C
F03C
F03C
7038
7038
7878
3FF0
3FE0
0FC0
ENDCHAR
STARTCHAR ohungarumlaut
ENCODING 337
SWIDTH 389 0
DWIDTH 16 0
BBX 14 37 1 -1
BITMAP
0730
0670
0CE0
0CC0
0000
0000
0FC0
1FE0
3FF0
7878
7038
7038
F03C
F03C
F03C
F03C
F03C
F03C
F03C
F03C
F03C
F03C
F03C
F03C
F03C
F03C
F03C
F03C
F03C
F03C
F03C
7038
7038
7878
3FF0
3FE0
0FC0
ENDCHAR
STARTCHAR OE
ENCODING 338
SWIDTH 577 0
DWIDTH 24 0
BBX 21 31 1 -1
BITMAP
0FFFF8
3FFFF8
3FFFF8
783800
703800
703800
F03800
F03800
F03800
F03800
F03800
F03800
F03800
F03800
F03FF0
F03FF0
F03FF0
F03800
F03800
F03800
F03800
F03800
F03800
F03800
F03800
703800
703800
783800
3FFFF8
3FFFF8
0FFFF8
ENDCHAR
STARTCHAR oe
ENCODING 339
SWIDTH 577 0
DWIDTH 24 0
BBX 21 31 1 -1
BITMAP
0FFFF8
3FFFF8
3FFFF8
783800
703800
703800
F03800
F03800
F03800
F03800
F03800
F03800
F03800
F03800
F03FF0
F03FF0
F03FF0
F03800
F03800
F03800
F03800
F03800
F03800
F03800
F03800
703800
703800
783800
3FFFF8
3FFFF8
0FFFF8
ENDCHAR
STARTCHAR Racute
ENCODING 340
SWIDTH 394 0
DWIDTH 16 0
BBX 13 37 2 -1
BITMAP
0380
0300
0700
0E00
0000
0000
FF80
FFE0
FFF0
E0F0
E070
E070
E070
E070
E070
E070
E070
E070
E070
E070
E0E0
FFC0
FFC0
FFE0
E0F0
E070
E070
E070
E070
E070
E070
E070
E070
E070
E078
E078
E038
ENDCHAR
STARTCHAR racute
ENCODING 341
SWIDTH 394 0
DWIDTH 16 0
BBX 13 37 2 -1
BITMAP
0380
0300
0700
0E00
0000
0000
FF80
FFE0
FFF0
E0F0
E070
E070
E070
E070
E070
E070
E070
E070
E070
E070
E0E0
FFC0
FFC0
FFE0
E0F0
E070
E070
E070
E070
E070
E070
E070
E070
E070
E078
E078
E038
ENDCHAR
STARTCHAR uni0156
ENCODING 342
SWIDTH 394 0
DWIDTH 16 0
BBX 13 38 2 -8
BITMAP
FF80
FFE0
FFF0
E0F0
E070
E070
E070
E070
E070
E070
E070
E070
E070
E070
E0E0
FFC0
FFC0
FFE0
E0F0
E070
E070
E070
E070
E070
E070
E070
E070
E070
E078
E078
E038
0000
0600
0600
0600
0600
0600
0400
ENDCHAR
STARTCHAR uni0157
ENCODING 343
SWIDTH 394 0
DWIDTH 16 0
BBX 13 38 2 -8
BITMAP
FF80
FFE0
FFF0
E0F0
E070
E070
E070
E070
E070
E070
E070
E070
E070
E070
E0E0
FFC0
FFC0
FFE0
E0F0
E070
E070
E070
E070
E070
E070
E070
E070
E070
E078
E078
E038
0000
0600
0600
0600
0600
0200
0400
ENDCHAR
STARTCHAR Rcaron
ENCODING 344
SWIDTH 394 0
DWIDTH 16 0
BBX 13 37 2 -1
BITMAP
71C0
3B80
1F00
0F00
0000
0000
FF80
FFE0
FFF0
E0F0
E070
E070
E070
E070
E070
E070
E070
E070
E070
E070
E0E0
FFC0
FFC0
FFE0
E0F0
E070
E070
E070
E070
E070
E070
E070
E070
E070
E078
E078
E038
ENDCHAR
STARTCHAR rcaron
ENCODING 345
SWIDTH 394 0
DWIDTH 16 0
BBX 13 37 2 -1
BITMAP
71C0
3B80
1F00
0F00
0000
0000
FF80
FFE0
FFF0
E0F0
E070
E070
E070
E070
E070
E070
E070
E070
E070
E070
E0E0
FFC0
FFC0
FFE0
E0F0
E070
E070
E070
E070
E070
E070
E070
E070
E070
E078
E078
E038
ENDCHAR
STARTCHAR Sacute
ENCODING 346
SWIDTH 372 0
DWIDTH 15 0
BBX 13 37 1 -1
BITMAP
01C0
0180
0380
0700
0000
0000
0FC0
3FE0
3FF0
7870
7078
F038
F038
F038
F000
F000
7000
7800
3C00
3E00
1F00
0F80
07C0
03E0
00F0
00F0
0078
0038
E038
E038
E038
E038
7078
7870
7FF0
3FE0
0F80
ENDCHAR
STARTCHAR sacute
ENCODING 347
SWIDTH 372 0
DWIDTH 15 0
BBX 13 37 1 -1
BITMAP
01C0
0180
0380
0700
0000
0000
0FC0
3FE0
3FF0
7870
7078
F038
F038
F038
F000
F000
7000
7800
3C00
3E00
1F00
0F80
07C0
03E0
00F0
00F0
0078
0038
E038
E038
E038
E038
7078
7870
7FF0
3FE0
0F80
ENDCHAR
STARTCHAR Scircumflex
ENCODING 348
SWIDTH 372 0
DWIDTH 15 0
BBX 13 36 1 -1
BITMAP
0780
0FC0
1CC0
38E0
0000
0FC0
3FE0
3FF0
7870
7078
F038
F038
F038
F000
F000
7000
7800
3C00
3E00
1F00
0F80
07C0
03E0
00F0
00F0
0078
0038
E038
E038
E038
E038
7078
7870
7FF0
3FE0
0F80
ENDCHAR
STARTCHAR scircumflex
ENCODING 349
SWIDTH 372 0
DWIDTH 15 0
BBX 13 36 1 -1
BITMAP
0780
0FC0
1CC0
38E0
0000
0FC0
3FE0
3FF0
7870
7078
F038
F038
F038
F000
F000
7000
7800
3C00
3E00
1F00
0F80
07C0
03E0
00F0
00F0
0078
0038
E038
E038
E038
E038
7078
7870
7FF0
3FE0
0F80
ENDCHAR
STARTCHAR Scedilla
ENCODING 350
SWIDTH 372 0
DWIDTH 15 0
BBX 13 37 1 -7
BITMAP
0FC0
3FE0
3FF0
7870
7078
F038
F038
F038
F000
7000
7000
7800
3C00
3E00
1F00
0F80
07C0
03E0
01F0
00F0
0078
0038
E038
E038
E038
E038
7078
7870
7FF0
3FE0
0F80
0200
0380
00C0
18C0
1DC0
0F80
ENDCHAR
STARTCHAR scedilla
ENCODING 351
SWIDTH 372 0
DWIDTH 15 0
BBX 13 37 1 -7
BITMAP
0FC0
3FE0
3FF0
7870
7078
F038
F038
F038
F000
7000
7000
7800
3C00
3E00
1F00
0F80
07C0
03E0
01F0
00F0
0078
0038
E038
E038
E038
E038
7078
7870
7FF0
3FE0
0F80
0200
0380
00C0
18C0
1DC0
0F80
ENDCHAR
STARTCHAR Scaron
ENCODING 352
SWIDTH 372 0
DWIDTH 15 0
BBX 13 36 1 -1
BITMAP
38E0
1DC0
0F80
0780
0000
0FC0
3FE0
3FF0
7870
7078
F038
F038
F038
F000
F000
7000
7800
3C00
3E00
1F00
0F80
07C0
03E0
00F0
00F0
0078
0038
E038
E038
E038
E038
7078
7870
7FF0
3FE0
0F80
ENDCHAR
STARTCHAR scaron
ENCODING 353
SWIDTH 372 0
DWIDTH 15 0
BBX 13 36 1 -1
BITMAP
38E0
1DC0
0F80
0700
0000
0FC0
3FE0
3FF0
7870
7078
F038
F038
F038
F000
F000
7000
7800
3C00
3E00
1F00
0F80
07C0
03E0
00F0
00F0
0078
0038
E038
E038
E038
E038
7078
7870
7FF0
3FE0
0F80
ENDCHAR
STARTCHAR uni0162
ENCODING 354
SWIDTH 372 0
DWIDTH 15 0
BBX 14 38 1 -8
BITMAP
FFFC
FFFC
FFFC
0700
0700
0700
0700
0700
0700
0700
0700
0700
0700
0700
0700
0700
0700
0700
0700
0700
0700
0700
0700
0700
0700
0700
0700
0700
0700
0700
0700
0200
0200
0380
00C0
18C0
1FC0
0F80
ENDCHAR
STARTCHAR uni0163
ENCODING 355
SWIDTH 372 0
DWIDTH 15 0
BBX 14 38 1 -8
BITMAP
FFFC
FFFC
FFFC
0700
0700
0700
0700
0700
0700
0700
0700
0700
0700
0700
0700
0700
0700
0700
0700
0700
0700
0700
0700
0700
0700
0700
0700
0700
0700
0700
0700
0200
0200
0380
00C0
18C0
1FC0
0F80
ENDCHAR
STARTCHAR Tcaron
ENCODING 356
SWIDTH 372 0
DWIDTH 15 0
BBX 14 37 1 -1
BITMAP
38E0
1DC0
0F80
0780
0000
0000
FFFC
FFFC
FFFC
0700
0700
0700
0700
0700
0700
0700
0700
0700
0700
0700
0700
0700
0700
0700
0700
0700
0700
0700
0700
0700
0700
0700
0700
0700
0700
0700
0700
ENDCHAR
STARTCHAR tcaron
ENCODING 357
SWIDTH 372 0
DWIDTH 15 0
BBX 14 37 1 -1
BITMAP
38E0
1DC0
0F80
0780
0000
0000
FFFC
FFFC
FFFC
0700
0700
0700
0700
0700
0700
0700
0700
0700
0700
0700
0700
0700
0700
0700
0700
0700
0700
0700
0700
0700
0700
0700
0700
0700
0700
0700
0700
ENDCHAR
STARTCHAR Tbar
ENCODING 358
SWIDTH 372 0
DWIDTH 15 0
BBX 14 31 1 -1
BITMAP
FFFC
FFFC
FFFC
0700
0700
0700
0700
0700
0700
0700
3FE0
3FE0
0700
0700
0700
0700
0700
0700
0700
0700
0700
0700
0700
0700
0700
0700
0700
0700
0700
0700
0700
ENDCHAR
STARTCHAR tbar
ENCODING 359
SWIDTH 372 0
DWIDTH 15 0
BBX 14 31 1 -1
BITMAP
FFFC
FFFC
FFFC
0700
0700
0700
0700
0700
0700
0700
3FE0
3FE0
0700
0700
0700
0700
0700
0700
0700
0700
0700
0700
0700
0700
0700
0700
0700
0700
0700
0700
0700
ENDCHAR
STARTCHAR Utilde
ENCODING 360
SWIDTH 387 0
DWIDTH 16 0
BBX 12 35 2 0
BITMAP
3C40
7FE0
23C0
0000
0000
E070
E070
E070
E070
E070
E070
E070
E070
E070
E070
E070
E070
E070
E070
E070
E070
E070
E070
E070
E070
E070
E070
E070
E070
E070
E070
F0F0
7FE0
3FC0
1F80
ENDCHAR
STARTCHAR utilde
ENCODING 361
SWIDTH 387 0
DWIDTH 16 0
BBX 12 35 2 0
BITMAP
3C40
7FE0
23C0
0000
0000
E070
E070
E070
E070
E070
E070
E070
E070
E070
E070
E070
E070
E070
E070
E070
E070
E070
E070
E070
E070
E070
E070
E070
E070
E070
E070
F0F0
7FE0
3FC0
1F80
ENDCHAR
STARTCHAR Umacron
ENCODING 362
SWIDTH 387 0
DWIDTH 16 0
BBX 12 34 2 0
BITMAP
3FC0
3FC0
0000
0000
E070
E070
E070
E070
E070
E070
E070
E070
E070
E070
E070
E070
E070
E070
E070
E070
E070
E070
E070
E070
E070
E070
E070
E070
E070
E070
F0F0
7FE0
3FC0
1F80
ENDCHAR
STARTCHAR umacron
ENCODING 363
SWIDTH 387 0
DWIDTH 16 0
BBX 12 34 2 0
BITMAP
3FC0
3FC0
0000
0000
E070
E070
E070
E070
E070
E070
E070
E070
E070
E070
E070
E070
E070
E070
E070
E070
E070
E070
E070
E070
E070
E070
E070
E070
E070
E070
F0F0
7FE0
3FC0
1F80
ENDCHAR
STARTCHAR Ubreve
ENCODING 364
SWIDTH 387 0
DWIDTH 16 0
BBX 12 35 2 0
BITMAP
30C0
30C0
1F80
0F00
0000
E070
E070
E070
E070
E070
E070
E070
E070
E070
E070
E070
E070
E070
E070
E070
E070
E070
E070
E070
E070
E070
E070
E070
E070
E070
E070
F0F0
7FE0
3FC0
1F80
ENDCHAR
STARTCHAR ubreve
ENCODING 365
SWIDTH 387 0
DWIDTH 16 0
BBX 12 35 2 0
BITMAP
30C0
30C0
1F80
0F00
0000
E070
E070
E070
E070
E070
E070
E070
E070
E070
E070
E070
E070
E070
E070
E070
E070
E070
E070
E070
E070
E070
E070
E070
E070
E070
E070
F0F0
7FE0
3FC0
1F80
ENDCHAR
STARTCHAR Uring
ENCODING 366
SWIDTH 387 0
DWIDTH 16 0
BBX 12 37 2 0
BITMAP
0F00
1980
1880
1980
0F00
0000
0000
E070
E070
E070
E070
E070
E070
E070
E070
E070
E070
E070
E070
E070
E070
E070
E070
E070
E070
E070
E070
E070
E070
E070
E070
E070
E070
F0F0
7FE0
3FC0
1F80
ENDCHAR
STARTCHAR uring
ENCODING 367
SWIDTH 387 0
DWIDTH 16 0
BBX 12 37 2 0
BITMAP
0F00
1980
1880
1980
0F00
0000
0000
E070
E070
E070
E070
E070
E070
E070
E070
E070
E070
E070
E070
E070
E070
E070
E070
E070
E070
E070
E070
E070
E070
E070
E070
E070
E070
F0F0
7FE0
3FC0
1F80
ENDCHAR
STARTCHAR Uhungarumlaut
ENCODING 368
SWIDTH 387 0
DWIDTH 16 0
BBX 12 36 2 0
BITMAP
0E60
0CE0
19C0
3980
0000
0000
E070
E070
E070
E070
E070
E070
E070
E070
E070
E070
E070
E070
E070
E070
E070
E070
E070
E070
E070
E070
E070
E070
E070
E070
E070
E070
F0F0
7FE0
3FC0
1F80
ENDCHAR
STARTCHAR uhungarumlaut
ENCODING 369
SWIDTH 387 0
DWIDTH 16 0
BBX 12 36 2 0
BITMAP
0E60
0CE0
19C0
3980
0000
0000
E070
E070
E070
E070
E070
E070
E070
E070
E070
E070
E070
E070
E070
E070
E070
E070
E070
E070
E070
E070
E070
E070
E070
E070
E070
E070
F0F0
7FE0
3FC0
1F80
ENDCHAR
STARTCHAR Uogonek
ENCODING 370
SWIDTH 387 0
DWIDTH 16 0
BBX 12 36 2 -6
BITMAP
E070
E070
E070
E070
E070
E070
E070
E070
E070
E070
E070
E070
E070
E070
E070
E070
E070
E070
E070
E070
E070
E070
E070
E070
E070
E070
F0F0
7FE0
3FE0
1F80
0100
0300
0700
0700
07E0
01C0
ENDCHAR
STARTCHAR uogonek
ENCODING 371
SWIDTH 387 0
DWIDTH 16 0
BBX 12 36 2 -6
BITMAP
E070
E070
E070
E070
E070
E070
E070
E070
E070
E070
E070
E070
E070
E070
E070
E070
E070
E070
E070
E070
E070
E070
E070
E070
E070
E070
F0F0
7FE0
3FE0
1F80
0100
0300
0700
0700
07E0
01C0
ENDCHAR
STARTCHAR Wcircumflex
ENCODING 372
SWIDTH 583 0
DWIDTH 24 0
BBX 22 37 1 -1
BITMAP
007800
00FC00
01CE00
018600
000000
000000
E0381C
E0781C
E0781C
F0781C
F07818
707818
707C38
707C38
707C38
70FC38
70FC38
78FC38
38FC30
38EC30
38CC70
38CE70
38CE70
38CE70
39CE70
3DCE70
1DCE60
1DC660
1D86E0
1D87E0
1D87E0
1D87E0
1F87E0
1F87E0
0F87C0
0F03C0
0F03C0
ENDCHAR
STARTCHAR wcircumflex
ENCODING 373
SWIDTH 583 0
DWIDTH 24 0
BBX 22 37 1 -1
BITMAP
007800
00FC00
01CE00
018600
000000
000000
E0381C
E0781C
E0781C
F0781C
F07818
707818
707C38
707C38
707C38
70FC38
70FC38
78FC38
38FC30
38EC30
38CC70
38CE70
38CE70
38CE70
39CE70
3DCE70
1DCE60
1DC660
1D86E0
1D87E0
1D87E0
1D87E0
1F87E0
1F87E0
0F87C0
0F03C0
0F03C0
ENDCHAR
STARTCHAR Ycircumflex
ENCODING 374
SWIDTH 406 0
DWIDTH 17 0
BBX 15 37 1 -1
BITMAP
0380
07C0
0EE0
1C70
0000
0000
E00E
E00E
F01C
701C
701C
7838
3838
3838
3870
1C70
1C70
1C60
1EE0
0EE0
0EE0
0FC0
07C0
07C0
0780
0380
0380
0380
0380
0380
0380
0380
0380
0380
0380
0380
0380
ENDCHAR
STARTCHAR ycircumflex
ENCODING 375
SWIDTH 406 0
DWIDTH 17 0
BBX 15 37 1 -1
BITMAP
0380
07C0
0EE0
1C70
0000
0000
E00E
E00E
F01C
701C
701C
7838
3838
3838
3870
1C70
1C70
1C60
1EE0
0EE0
0EE0
0FC0
07C0
07C0
0780
0380
0380
0380
0380
0380
0380
0380
0380
0380
0380
0380
0380
ENDCHAR
STARTCHAR Ydieresis
ENCODING 376
SWIDTH 406 0
DWIDTH 17 0
BBX 15 36 1 -1
BITMAP
1C60
1C60
1C60
1C60
0000
E00E
E00E
F01C
701C
701C
7838
3838
3838
3870
1C70
1C70
1C60
1EE0
0EE0
0EE0
0FC0
07C0
07C0
0780
0380
0380
0380
0380
0380
0380
0380
0380
0380
0380
0380
0380
ENDCHAR
STARTCHAR Zacute
ENCODING 377
SWIDTH 379 0
DWIDTH 16 0
BBX 13 37 1 -1
BITMAP
00E0
01C0
0380
0300
0000
0000
7FF8
7FF8
7FF8
0038
0078
0070
0070
00E0
00E0
01E0
01C0
01C0
03C0
0380
0380
0700
0700
0F00
0E00
0E00
1C00
1C00
3C00
3800
3800
7000
7000
F000
FFF8
FFF8
FFF8
ENDCHAR
STARTCHAR zacute
ENCODING 378
SWIDTH 379 0
DWIDTH 16 0
BBX 13 37 1 -1
BITMAP
00E0
01C0
0380
0300
0000
0000
7FF8
7FF8
7FF8
0038
0078
0070
0070
00E0
00E0
01E0
01C0
01C0
03C0
0380
0380
0700
0700
0F00
0E00
0E00
1C00
1C00
3C00
3800
3800
7000
7000
F000
FFF8
FFF8
FFF8
ENDCHAR
STARTCHAR Zdotaccent
ENCODING 379
SWIDTH 379 0
DWIDTH 16 0
BBX 13 37 1 -1
BITMAP
0300
0300
0300
0300
0000
0000
7FF8
7FF8
7FF8
0038
0078
0070
0070
00E0
00E0
01E0
01C0
01C0
03C0
0380
0380
0700
0700
0F00
0E00
0E00
1C00
1C00
3C00
3800
3800
7000
7000
F000
FFF8
FFF8
FFF8
ENDCHAR
STARTCHAR zdotaccent
ENCODING 380
SWIDTH 379 0
DWIDTH 16 0
BBX 13 37 1 -1
BITMAP
0300
0300
0300
0300
0000
0000
7FF8
7FF8
7FF8
0038
0078
0070
0070
00E0
00E0
01E0
01C0
01C0
03C0
0380
0380
0700
0700
0F00
0E00
0E00
1C00
1C00
3C00
3800
3800
7000
7000
F000
FFF8
FFF8
FFF8
ENDCHAR
STARTCHAR Zcaron
ENCODING 381
SWIDTH 379 0
DWIDTH 16 0
BBX 13 37 1 -1
BITMAP
3860
1CE0
0FC0
0780
0000
0000
7FF8
7FF8
7FF8
0038
0078
0070
0070
00E0
00E0
01E0
01C0
01C0
03C0
0380
0380
0700
0700
0F00
0E00
0E00
1C00
1C00
3C00
3800
3800
7000
7000
F000
FFF8
FFF8
FFF8
ENDCHAR
STARTCHAR zcaron
ENCODING 382
SWIDTH 379 0
DWIDTH 16 0
BBX 13 37 1 -1
BITMAP
3860
1CE0
0FC0
0780
0000
0000
7FF8
7FF8
7FF8
0038
0078
0070
0070
00E0
00E0
01E0
01C0
01C0
03C0
0380
0380
0700
0700
0F00
0E00
0E00
1C00
1C00
3C00
3800
3800
7000
7000
F000
FFF8
FFF8
FFF8
ENDCHAR
STARTCHAR AEacute
ENCODING 508
SWIDTH 585 0
DWIDTH 24 0
BBX 22 37 1 -1
BITMAP
000E00
000C00
001C00
003800
000000
000000
00FFFC
00FFFC
00FFFC
00FC00
01FC00
01FC00
01FC00
03BC00
03BC00
03BC00
03BC00
073C00
073C00
073C00
0E3FF0
0E3FF0
0E3FF0
0E3C00
1C3C00
1C3C00
1C3C00
383C00
3FFC00
3FFC00
3FFC00
703C00
703C00
703C00
E03FFC
E03FFC
E03FFC
ENDCHAR
STARTCHAR aeacute
ENCODING 509
SWIDTH 585 0
DWIDTH 24 0
BBX 22 37 1 -1
BITMAP
000E00
000C00
001C00
003800
000000
000000
00FFFC
00FFFC
00FFFC
00FC00
01FC00
01FC00
01FC00
03BC00
03BC00
03BC00
03BC00
073C00
073C00
073C00
0E3FF0
0E3FF0
0E3FF0
0E3C00
1C3C00
1C3C00
1C3C00
383C00
3FFC00
3FFC00
3FFC00
703C00
703C00
703C00
E03FFC
E03FFC
E03FFC
ENDCHAR
STARTCHAR Oslashacute
ENCODING 510
SWIDTH 389 0
DWIDTH 16 0
BBX 14 38 1 -2
BITMAP
00E0
01C0
0380
0300
0000
0008
0FD8
1FF8
3FF0
7878
7038
7038
F07C
F07C
F07C
F0FC
F0FC
F0BC
F1BC
F13C
F13C
F33C
F23C
F63C
F63C
F43C
FC3C
FC3C
F83C
F83C
F83C
7038
7038
7878
3FF0
7FE0
4FC0
4000
ENDCHAR
STARTCHAR oslashacute
ENCODING 511
SWIDTH 389 0
DWIDTH 16 0
BBX 14 38 1 -2
BITMAP
00E0
01C0
0380
0300
0000
0008
0FD8
1FF8
3FF0
7878
7038
7038
F07C
F07C
F07C
F0FC
F0FC
F0BC
F1BC
F13C
F13C
F33C
F23C
F63C
F63C
F43C
FC3C
FC3C
F83C
F83C
F83C
7038
7038
7878
3FF0
7FE0
4FC0
4000
ENDCHAR
STARTCHAR uni0218
ENCODING 536
SWIDTH 372 0
DWIDTH 15 0
BBX 13 38 1 -8
BITMAP
01C0
0FE0
3FF0
7870
7078
7038
F038
F038
F000
F000
7000
7800
7C00
3E00
1F00
0F80
07C0
03E0
01F0
00F0
0078
0038
E038
E038
E038
E038
7078
7870
7FF0
3FE0
0F80
0000
0700
0700
0700
0700
0200
0600
ENDCHAR
STARTCHAR uni0219
ENCODING 537
SWIDTH 372 0
DWIDTH 15 0
BBX 13 38 1 -8
BITMAP
01C0
0FE0
3FF0
7870
7078
7038
F038
F038
F000
F000
7000
7800
7C00
3E00
1F00
0F80
07C0
03E0
01F0
00F0
0078
0038
E038
E038
E038
E038
7078
7870
7FF0
3FE0
0F80
0000
0700
0700
0700
0700
0200
0600
ENDCHAR
STARTCHAR uni021A
ENCODING 538
SWIDTH 372 0
DWIDTH 15 0
BBX 14 38 1 -8
BITMAP
FFFC
FFFC
FFFC
0700
0700
0700
0700
0700
0700
0700
0700
0700
0700
0700
0700
0700
0700
0700
0700
0700
0700
0700
0700
0700
0700
0700
0700
0700
0700
0700
0700
0000
0700
0700
0700
0700
0300
0200
ENDCHAR
STARTCHAR uni021B
ENCODING 539
SWIDTH 372 0
DWIDTH 15 0
BBX 14 38 1 -8
BITMAP
FFFC
FFFC
FFFC
0700
0700
0700
0700
0700
0700
0700
0700
0700
0700
0700
0700
0700
0700
0700
0700
0700
0700
0700
0700
0700
0700
0700
0700
0700
0700
0700
0700
0000
0700
0700
0700
0700
0300
0200
ENDCHAR
STARTCHAR uni0237
ENCODING 567
SWIDTH 255 0
DWIDTH 10 0
BBX 8 31 1 -1
BITMAP
07
07
07
07
07
07
07
07
07
07
07
07
07
07
07
07
07
07
07
07
07
07
07
07
07
07
0F
1E
FE
FC
F0
ENDCHAR
STARTCHAR uni02BC
ENCODING 700
SWIDTH 160 0
DWIDTH 7 0
BBX 3 8 2 22
BITMAP
E0
E0
E0
E0
60
40
C0
80
ENDCHAR
STARTCHAR circumflex
ENCODING 710
SWIDTH 250 0
DWIDTH 10 0
BBX 9 4 1 31
BITMAP
3C00
7E00
6700
C380
ENDCHAR
STARTCHAR caron
ENCODING 711
SWIDTH 250 0
DWIDTH 10 0
BBX 9 4 1 31
BITMAP
C380
E700
7E00
3C00
ENDCHAR
STARTCHAR breve
ENCODING 728
SWIDTH 252 0
DWIDTH 10 0
BBX 8 4 1 30
BITMAP
C3
E3
7F
3C
ENDCHAR
STARTCHAR dotaccent
ENCODING 729
SWIDTH 198 0
DWIDTH 8 0
BBX 2 4 3 30
BITMAP
C0
C0
C0
C0
ENDCHAR
STARTCHAR ring
ENCODING 730
SWIDTH 234 0
DWIDTH 10 0
BBX 6 5 2 31
BITMAP
78
CC
8C
CC
F8
ENDCHAR
STARTCHAR ogonek
ENCODING 731
SWIDTH 227 0
DWIDTH 9 0
BBX 5 6 2 -6
BITMAP
20
60
C0
E0
F8
78
ENDCHAR
STARTCHAR tilde
ENCODING 732
SWIDTH 256 0
DWIDTH 11 0
BBX 10 3 0 31
BITMAP
38C0
7FC0
E780
ENDCHAR
STARTCHAR hungarumlaut
ENCODING 733
SWIDTH 242 0
DWIDTH 10 0
BBX 9 4 0 31
BITMAP
3B80
7300
6700
C600
ENDCHAR
STARTCHAR uni0401
ENCODING 1025
SWIDTH 360 0
DWIDTH 15 0
BBX 11 37 2 -1
BITMAP
3180
3180
3180
3180
0000
0000
FFE0
FFE0
FFE0
E000
E000
E000
E000
E000
E000
E000
E000
E000
E000
E000
FFC0
FFC0
FFC0
E000
E000
E000
E000
E000
E000
E000
E000
E000
E000
E000
FFE0
FFE0
FFE0
ENDCHAR
STARTCHAR uni0410
ENCODING 1040
SWIDTH 422 0
DWIDTH 17 0
BBX 15 31 1 -1
BITMAP
07C0
07C0
07C0
07E0
06E0
0EE0
0EE0
0EE0
0EE0
0CF0
1C70
1C70
1C70
1C70
1C78
1838
3838
3838
3838
3838
383C
701C
7FFC
7FFC
7FFC
701C
701E
E00E
E00E
E00E
E00E
ENDCHAR
STARTCHAR uni0411
ENCODING 1041
SWIDTH 401 0
DWIDTH 16 0
BBX 13 31 2 -1
BITMAP
FFF0
FFF0
FFF0
E000
E000
E000
E000
E000
E000
E000
E000
E000
E000
FF80
FFE0
FFF0
E070
E078
E038
E038
E038
E038
E038
E038
E038
E038
E078
E070
FFF0
FFE0
FF80
ENDCHAR
STARTCHAR uni0412
ENCODING 1042
SWIDTH 392 0
DWIDTH 16 0
BBX 13 31 2 -1
BITMAP
FF80
FFE0
FFF0
E0F0
E070
E070
E070
E070
E070
E070
E070
E070
E0E0
FFE0
FF80
FFE0
E0F0
E070
E078
E038
E038
E038
E038
E038
E038
E078
E078
E0F0
FFF0
FFE0
FF80
ENDCHAR
STARTCHAR uni0413
ENCODING 1043
SWIDTH 356 0
DWIDTH 15 0
BBX 11 31 2 -1
BITMAP
FFE0
FFE0
FFE0
E000
E000
E000
E000
E000
E000
E000
E000
E000
E000
E000
E000
E000
E000
E000
E000
E000
E000
E000
E000
E000
E000
E000
E000
E000
E000
E000
E000
ENDCHAR
STARTCHAR uni0414
ENCODING 1044
SWIDTH 489 0
DWIDTH 20 0
BBX 18 35 1 -5
BITMAP
0FFF00
0FFF00
0FFF00
0E0F00
0E0F00
0E0F00
0E0F00
0E0F00
0E0F00
0E0F00
0E0F00
0E0F00
0E0F00
0E0F00
0E0F00
1E0F00
1E0F00
1C0F00
1C0F00
1C0F00
1C0F00
1C0F00
1C0F00
1C0F00
1C0F00
1C0F00
1C0F00
380F40
FFFFC0
FFFFC0
FFFFC0
E001C0
E001C0
E001C0
E00100
ENDCHAR
STARTCHAR uni0415
ENCODING 1045
SWIDTH 360 0
DWIDTH 15 0
BBX 11 31 2 -1
BITMAP
FFE0
FFE0
FFE0
E000
E000
E000
E000
E000
E000
E000
E000
E000
E000
E000
FFC0
FFC0
FFC0
E000
E000
E000
E000
E000
E000
E000
E000
E000
E000
E000
FFE0
FFE0
FFE0
ENDCHAR
STARTCHAR uni0416
ENCODING 1046
SWIDTH 613 0
DWIDTH 25 0
BBX 23 31 1 -1
BITMAP
E0380E
70381E
70381C
38383C
383838
1C3878
1C3870
0E38F0
0E38E0
0739E0
0739C0
03BBC0
03BB80
03FF80
03FFC0
07FFC0
077DC0
077DE0
0F38E0
0E38E0
0E38F0
1E3870
1C3870
3C3878
383838
383838
78383C
70381C
70381E
F0380E
E0380E
ENDCHAR
STARTCHAR uni0417
ENCODING 1047
SWIDTH 387 0
DWIDTH 16 0
BBX 13 31 1 -1
BITMAP
0FC0
1FE0
3FF0
7878
7038
7038
7038
6038
6038
0038
0038
0038
0070
07E0
07C0
07F0
00F0
0078
0038
0038
E038
E038
E038
E038
7038
7038
7038
7878
3FF0
1FE0
0FC0
ENDCHAR
STARTCHAR uni0418
ENCODING 1048
SWIDTH 409 0
DWIDTH 17 0
BBX 13 31 2 -1
BITMAP
C078
C078
C078
C0F8
C0F8
C0F8
C0F8
C1F8
C1F8
C1B8
C3B8
C3B8
C338
C738
C738
C738
CE38
CE38
CE38
CC38
DC38
DC38
D838
F838
F838
F838
F038
F038
F038
E038
E038
ENDCHAR
STARTCHAR uni0419
ENCODING 1049
SWIDTH 410 0
DWIDTH 17 0
BBX 13 37 2 -1
BITMAP
3060
38E0
1FC0
0F80
0000
0000
C078
C078
C078
C0F8
C0F8
C0F8
C0F8
C1F8
C1F8
C1B8
C3B8
C3B8
C338
C738
C738
C738
CE38
CE38
CE38
CC38
DC38
DC38
D838
F838
F838
F838
F038
F038
F038
E038
E038
ENDCHAR
STARTCHAR uni041A
ENCODING 1050
SWIDTH 409 0
DWIDTH 17 0
BBX 14 31 2 -1
BITMAP
E038
E038
E070
E070
E0E0
E0E0
E1C0
E1C0
E380
E380
E700
E700
EE00
EE00
FE00
FE00
FF00
FF00
F700
E780
E380
E3C0
E1C0
E1E0
E0E0
E0F0
E070
E070
E038
E038
E03C
ENDCHAR
STARTCHAR uni041B
ENCODING 1051
SWIDTH 444 0
DWIDTH 18 0
BBX 15 31 1 -1
BITMAP
0FFE
0FFE
0FFE
0E0E
0E0E
0E0E
0E0E
0E0E
1E0E
1E0E
1C0E
1C0E
1C0E
1C0E
1C0E
1C0E
1C0E
1C0E
1C0E
1C0E
1C0E
1C0E
1C0E
1C0E
1C0E
1C0E
1C0E
3C0E
F80E
F00E
E00E
ENDCHAR
STARTCHAR uni041C
ENCODING 1052
SWIDTH 523 0
DWIDTH 21 0
BBX 18 31 2 -1
BITMAP
F007C0
F007C0
F807C0
F807C0
F80FC0
F80FC0
F80FC0
DC0FC0
DC0DC0
DC0DC0
DC1DC0
DC1DC0
CC1DC0
CE19C0
CE19C0
CE39C0
CE39C0
C639C0
C731C0
C731C0
C731C0
C771C0
C771C0
C3F1C0
C3E1C0
C3E1C0
C3E1C0
C3E1C0
C1E1C0
C1C1C0
C1C1C0
ENDCHAR
STARTCHAR uni041D
ENCODING 1053
SWIDTH 408 0
DWIDTH 17 0
BBX 13 31 2 -1
BITMAP
E038
E038
E038
E038
E038
E038
E038
E038
E038
E038
E038
E038
E038
E038
FFF8
FFF8
FFF8
E038
E038
E038
E038
E038
E038
E038
E038
E038
E038
E038
E038
E038
E038
ENDCHAR
STARTCHAR uni041E
ENCODING 1054
SWIDTH 389 0
DWIDTH 16 0
BBX 14 31 1 -1
BITMAP
0FC0
1FE0
3FF0
7878
7038
7038
F03C
F03C
F03C
F03C
F03C
F03C
F03C
F03C
F03C
F03C
F03C
F03C
F03C
F03C
F03C
F03C
F03C
F03C
F03C
7038
7038
7878
3FF0
3FE0
0FC0
ENDCHAR
STARTCHAR uni041F
ENCODING 1055
SWIDTH 408 0
DWIDTH 17 0
BBX 13 31 2 -1
BITMAP
FFF8
FFF8
FFF8
E038
E038
E038
E038
E038
E038
E038
E038
E038
E038
E038
E038
E038
E038
E038
E038
E038
E038
E038
E038
E038
E038
E038
E038
E038
E038
E038
E038
ENDCHAR
STARTCHAR uni0420
ENCODING 1056
SWIDTH 371 0
DWIDTH 15 0
BBX 12 31 2 -1
BITMAP
FF80
FFC0
FFE0
E0F0
E070
E070
E070
E070
E070
E070
E070
E070
E070
E070
E070
E0F0
FFE0
FFC0
FF00
E000
E000
E000
E000
E000
E000
E000
E000
E000
E000
E000
E000
ENDCHAR
STARTCHAR uni0421
ENCODING 1057
SWIDTH 380 0
DWIDTH 16 0
BBX 13 31 1 -1
BITMAP
0FC0
3FE0
3FF0
7878
7038
7038
F038
F038
F038
F038
F000
F000
F000
F000
F000
F000
F000
F000
F000
F000
F038
F038
F038
F038
F038
7038
7038
7878
3FF0
3FE0
0FC0
ENDCHAR
STARTCHAR uni0422
ENCODING 1058
SWIDTH 372 0
DWIDTH 15 0
BBX 14 31 1 -1
BITMAP
FFFC
FFFC
FFFC
0700
0700
0700
0700
0700
0700
0700
0700
0700
0700
0700
0700
0700
0700
0700
0700
0700
0700
0700
0700
0700
0700
0700
0700
0700
0700
0700
0700
ENDCHAR
STARTCHAR uni0423
ENCODING 1059
SWIDTH 417 0
DWIDTH 17 0
BBX 15 31 1 -1
BITMAP
E00E
E00E
F01E
701E
701C
701C
381C
383C
3838
3838
1C38
1C70
1C70
0E70
0E70
0EE0
0EE0
07E0
07E0
07C0
03C0
03C0
03C0
0380
0380
0380
0780
0F00
3F00
3E00
3800
ENDCHAR
STARTCHAR uni0424
ENCODING 1060
SWIDTH 569 0
DWIDTH 23 0
BBX 21 31 1 -1
BITMAP
007000
007000
007000
03F200
1FFFC0
3FFFE0
7870F0
707070
707078
707038
F07038
F07038
F07038
F07038
F07038
F07038
F07038
F07038
F07038
F07038
F07038
F07038
707078
707070
7870F0
3FFFF0
1FFFE0
07FF80
007000
007000
007000
ENDCHAR
STARTCHAR uni0425
ENCODING 1061
SWIDTH 435 0
DWIDTH 18 0
BBX 16 31 1 -1
BITMAP
F00E
700E
780E
381C
381C
3C1C
1C38
1C38
1E70
0E70
0E70
0FE0
07E0
07E0
03C0
03C0
07E0
07E0
0EE0
0EF0
0E70
1C70
1C78
1C38
383C
381C
381C
701E
700E
E00E
E00F
ENDCHAR
STARTCHAR uni0426
ENCODING 1062
SWIDTH 455 0
DWIDTH 19 0
BBX 16 35 2 -5
BITMAP
E038
E038
E038
E038
E038
E038
E038
E038
E038
E038
E038
E038
E038
E038
E038
E038
E038
E038
E038
E038
E038
E038
E038
E038
E038
E038
E038
E039
FFFF
FFFF
FFFF
000F
000F
000F
000C
ENDCHAR
STARTCHAR uni0427
ENCODING 1063
SWIDTH 401 0
DWIDTH 16 0
BBX 14 31 1 -1
BITMAP
F01C
F01C
F01C
F01C
F01C
F01C
F01C
F01C
F01C
F01C
F01C
F01C
F01C
F01C
703C
703C
787C
3FFC
3FDC
0F1C
001C
001C
001C
001C
001C
001C
001C
001C
001C
001C
001C
ENDCHAR
STARTCHAR uni0428
ENCODING 1064
SWIDTH 581 0
DWIDTH 24 0
BBX 20 31 2 -1
BITMAP
E0F070
E0F070
E0F070
E0F070
E0F070
E0F070
E0F070
E0F070
E0F070
E0F070
E0F070
E0F070
E0F070
E0F070
E0F070
E0F070
E0F070
E0F070
E0F070
E0F070
E0F070
E0F070
E0F070
E0F070
E0F070
E0F070
E0F070
E0F070
FFFFF0
FFFFF0
FFFFF0
ENDCHAR
STARTCHAR uni0429
ENCODING 1065
SWIDTH 622 0
DWIDTH 26 0
BBX 22 35 2 -5
BITMAP
E0E070
E0E070
E0E070
E0E070
E0E070
E0E070
E0E070
E0E070
E0E070
E0E070
E0E070
E0E070
E0E070
E0E070
E0E070
E0E070
E0E070
E0E070
E0E070
E0E070
E0E070
E0E070
E0E070
E0E070
E0E070
E0E070
E0E070
E0E070
FFFFFC
FFFFFC
FFFFFC
00001C
00001C
00001C
000010
ENDCHAR
STARTCHAR uni042A
ENCODING 1066
SWIDTH 438 0
DWIDTH 18 0
BBX 17 31 0 -1
BITMAP
FE0000
FE0000
FE0000
0E0000
0E0000
0E0000
0E0000
0E0000
0E0000
0E0000
0E0000
0E0000
0FF000
0FFE00
0FFF00
0E0F00
0E0700
0E0780
0E0780
0E0380
0E0380
0E0380
0E0380
0E0380
0E0380
0E0780
0E0700
0E0F00
0FFF00
0FFE00
0FF800
ENDCHAR
STARTCHAR uni042B
ENCODING 1067
SWIDTH 532 0
DWIDTH 22 0
BBX 18 31 2 -1
BITMAP
E001C0
E001C0
E001C0
E001C0
E001C0
E001C0
E001C0
E001C0
E001C0
E001C0
E001C0
E001C0
FF01C0
FFC1C0
FFE1C0
E0F1C0
E071C0
E071C0
E071C0
E071C0
E071C0
E071C0
E071C0
E071C0
E071C0
E071C0
E071C0
E0F1C0
FFE1C0
FFC1C0
FF81C0
ENDCHAR
STARTCHAR uni042C
ENCODING 1068
SWIDTH 381 0
DWIDTH 16 0
BBX 12 31 2 -1
BITMAP
E000
E000
E000
E000
E000
E000
E000
E000
E000
E000
E000
E000
FF00
FFC0
FFE0
E0F0
E070
E070
E070
E070
E070
E070
E070
E070
E070
E070
E070
E0F0
FFE0
FFC0
FF80
ENDCHAR
STARTCHAR uni042D
ENCODING 1069
SWIDTH 380 0
DWIDTH 16 0
BBX 13 31 1 -1
BITMAP
0FC0
3FE0
3FF0
7878
7078
E038
E038
E038
E038
E038
0038
0038
0038
07F8
07F8
07F8
0038
0038
0038
0038
E038
E038
E038
E038
E038
F038
7078
7870
7FF0
3FE0
0F80
ENDCHAR
STARTCHAR uni042E
ENCODING 1070
SWIDTH 575 0
DWIDTH 24 0
BBX 20 31 2 -1
BITMAP
E01F00
E07FC0
E0FFE0
E0F1E0
E1E0F0
E1C070
E1C070
E1C070
E1C070
E1C070
E1C070
E1C070
E1C070
E1C070
FFC070
FFC070
FFC070
E1C070
E1C070
E1C070
E1C070
E1C070
E1C070
E1C070
E1C070
E1C070
E1E0F0
E0F0E0
E0FFE0
E07FC0
E01F00
ENDCHAR
STARTCHAR uni042F
ENCODING 1071
SWIDTH 394 0
DWIDTH 16 0
BBX 14 30 1 -1
BITMAP
03FC
1FFC
383C
703C
703C
703C
703C
703C
703C
703C
703C
703C
783C
3E3C
1FFC
0FFC
3FFC
783C
703C
703C
703C
703C
703C
703C
703C
703C
703C
703C
703C
F000
ENDCHAR
STARTCHAR uni0430
ENCODING 1072
SWIDTH 422 0
DWIDTH 17 0
BBX 15 31 1 -1
BITMAP
07C0
07C0
07C0
07E0
06E0
0EE0
0EE0
0EE0
0EE0
0CF0
1C70
1C70
1C70
1C70
1C78
1838
3838
3838
3838
3838
383C
701C
7FFC
7FFC
7FFC
701C
701E
E00E
E00E
E00E
E00E
ENDCHAR
STARTCHAR uni0431
ENCODING 1073
SWIDTH 401 0
DWIDTH 16 0
BBX 13 31 2 -1
BITMAP
FFF0
FFF0
FFF0
E000
E000
E000
E000
E000
E000
E000
E000
E000
E000
FF80
FFE0
FFF0
E070
E078
E038
E038
E038
E038
E038
E038
E038
E038
E078
E070
FFF0
FFE0
FF80
ENDCHAR
STARTCHAR uni0432
ENCODING 1074
SWIDTH 392 0
DWIDTH 16 0
BBX 13 31 2 -1
BITMAP
FF80
FFE0
FFF0
E0F0
E070
E070
E070
E070
E070
E070
E070
E070
E0E0
FFE0
FF80
FFE0
E0F0
E070
E078
E038
E038
E038
E038
E038
E038
E078
E078
E0F0
FFF0
FFE0
FF80
ENDCHAR
STARTCHAR uni0433
ENCODING 1075
SWIDTH 356 0
DWIDTH 15 0
BBX 11 31 2 -1
BITMAP
FFE0
FFE0
FFE0
E000
E000
E000
E000
E000
E000
E000
E000
E000
E000
E000
E000
E000
E000
E000
E000
E000
E000
E000
E000
E000
E000
E000
E000
E000
E000
E000
E000
ENDCHAR
STARTCHAR uni0434
ENCODING 1076
SWIDTH 489 0
DWIDTH 20 0
BBX 18 35 1 -5
BITMAP
0FFF00
0FFF00
0FFF00
0E0F00
0E0F00
0E0F00
0E0F00
0E0F00
0E0F00
0E0F00
0E0F00
0E0F00
0E0F00
0E0F00
0E0F00
1E0F00
1E0F00
1C0F00
1C0F00
1C0F00
1C0F00
1C0F00
1C0F00
1C0F00
1C0F00
1C0F00
1C0F00
380F40
FFFFC0
FFFFC0
FFFFC0
E001C0
E001C0
E001C0
E00100
ENDCHAR
STARTCHAR uni0435
ENCODING 1077
SWIDTH 360 0
DWIDTH 15 0
BBX 11 31 2 -1
BITMAP
FFE0
FFE0
FFE0
E000
E000
E000
E000
E000
E000
E000
E000
E000
E000
E000
FFC0
FFC0
FFC0
E000
E000
E000
E000
E000
E000
E000
E000
E000
E000
E000
FFE0
FFE0
FFE0
ENDCHAR
STARTCHAR uni0436
ENCODING 1078
SWIDTH 613 0
DWIDTH 25 0
BBX 23 31 1 -1
BITMAP
E0380E
70381E
70381C
38383C
383838
1C3878
1C3870
0E38F0
0E38E0
0739E0
0739C0
03BBC0
03BB80
03FF80
03FFC0
07FFC0
077DC0
077DE0
0F38E0
0E38E0
0E38F0
1E3870
1C3870
3C3878
383838
383838
78383C
70381C
70381E
F0380E
E0380E
ENDCHAR
STARTCHAR uni0437
ENCODING 1079
SWIDTH 387 0
DWIDTH 16 0
BBX 13 31 1 -1
BITMAP
0FC0
1FE0
3FF0
7878
7038
7038
7038
6038
6038
0038
0038
0038
0070
07E0
07C0
07F0
00F0
0078
0038
0038
E038
E038
E038
E038
7038
7038
7038
7878
3FF0
1FE0
0FC0
ENDCHAR
STARTCHAR uni0438
ENCODING 1080
SWIDTH 409 0
DWIDTH 17 0
BBX 13 31 2 -1
BITMAP
C078
C078
C078
C0F8
C0F8
C0F8
C0F8
C1F8
C1F8
C1B8
C3B8
C3B8
C338
C738
C738
C738
CE38
CE38
CE38
CC38
DC38
DC38
D838
F838
F838
F838
F038
F038
F038
E038
E038
ENDCHAR
STARTCHAR uni0439
ENCODING 1081
SWIDTH 410 0
DWIDTH 17 0
BBX 13 37 2 -1
BITMAP
3060
38E0
1FC0
0F80
0000
0000
C078
C078
C078
C0F8
C0F8
C0F8
C0F8
C1F8
C1F8
C1B8
C3B8
C3B8
C338
C738
C738
C738
CE38
CE38
CE38
CC38
DC38
DC38
DC38
F838
F838
F838
F038
F038
F038
E038
E038
ENDCHAR
STARTCHAR uni043A
ENCODING 1082
SWIDTH 409 0
DWIDTH 17 0
BBX 14 31 2 -1
BITMAP
E038
E038
E070
E070
E0E0
E0E0
E1C0
E1C0
E380
E380
E700
E700
EE00
EE00
FE00
FE00
FF00
FF00
F700
E780
E380
E3C0
E1C0
E1E0
E0E0
E0F0
E070
E070
E038
E038
E03C
ENDCHAR
STARTCHAR uni043B
ENCODING 1083
SWIDTH 444 0
DWIDTH 18 0
BBX 15 31 1 -1
BITMAP
0FFE
0FFE
0FFE
0E0E
0E0E
0E0E
0E0E
0E0E
1E0E
1E0E
1C0E
1C0E
1C0E
1C0E
1C0E
1C0E
1C0E
1C0E
1C0E
1C0E
1C0E
1C0E
1C0E
1C0E
1C0E
1C0E
1C0E
3C0E
F80E
F00E
E00E
ENDCHAR
STARTCHAR uni043C
ENCODING 1084
SWIDTH 523 0
DWIDTH 21 0
BBX 18 31 2 -1
BITMAP
F007C0
F007C0
F807C0
F807C0
F80FC0
F80FC0
F80FC0
DC0FC0
DC0DC0
DC0DC0
DC1DC0
DC1DC0
CC1DC0
CE19C0
CE19C0
CE39C0
CE39C0
C639C0
C731C0
C731C0
C731C0
C771C0
C771C0
C3F1C0
C3E1C0
C3E1C0
C3E1C0
C3E1C0
C1E1C0
C1C1C0
C1C1C0
ENDCHAR
STARTCHAR uni043D
ENCODING 1085
SWIDTH 408 0
DWIDTH 17 0
BBX 13 31 2 -1
BITMAP
E038
E038
E038
E038
E038
E038
E038
E038
E038
E038
E038
E038
E038
E038
FFF8
FFF8
FFF8
E038
E038
E038
E038
E038
E038
E038
E038
E038
E038
E038
E038
E038
E038
ENDCHAR
STARTCHAR uni043E
ENCODING 1086
SWIDTH 389 0
DWIDTH 16 0
BBX 14 31 1 -1
BITMAP
0FC0
1FE0
3FF0
7878
7038
7038
F03C
F03C
F03C
F03C
F03C
F03C
F03C
F03C
F03C
F03C
F03C
F03C
F03C
F03C
F03C
F03C
F03C
F03C
F03C
7038
7038
7878
3FF0
3FE0
0FC0
ENDCHAR
STARTCHAR uni043F
ENCODING 1087
SWIDTH 408 0
DWIDTH 17 0
BBX 13 31 2 -1
BITMAP
FFF8
FFF8
FFF8
E038
E038
E038
E038
E038
E038
E038
E038
E038
E038
E038
E038
E038
E038
E038
E038
E038
E038
E038
E038
E038
E038
E038
E038
E038
E038
E038
E038
ENDCHAR
STARTCHAR uni0440
ENCODING 1088
SWIDTH 371 0
DWIDTH 15 0
BBX 12 31 2 -1
BITMAP
FF80
FFC0
FFE0
E0F0
E070
E070
E070
E070
E070
E070
E070
E070
E070
E070
E070
E0F0
FFE0
FFC0
FF00
E000
E000
E000
E000
E000
E000
E000
E000
E000
E000
E000
E000
ENDCHAR
STARTCHAR uni0441
ENCODING 1089
SWIDTH 380 0
DWIDTH 16 0
BBX 13 31 1 -1
BITMAP
0FC0
3FE0
3FF0
7878
7038
7038
F038
F038
F038
F038
F000
F000
F000
F000
F000
F000
F000
F000
F000
F000
F038
F038
F038
F038
F038
7038
7038
7878
3FF0
3FE0
0FC0
ENDCHAR
STARTCHAR uni0442
ENCODING 1090
SWIDTH 372 0
DWIDTH 15 0
BBX 14 31 1 -1
BITMAP
FFFC
FFFC
FFFC
0700
0700
0700
0700
0700
0700
0700
0700
0700
0700
0700
0700
0700
0700
0700
0700
0700
0700
0700
0700
0700
0700
0700
0700
0700
0700
0700
0700
ENDCHAR
STARTCHAR uni0443
ENCODING 1091
SWIDTH 417 0
DWIDTH 17 0
BBX 15 31 1 -1
BITMAP
E00E
E00E
F01E
701E
701C
701C
381C
383C
3838
3838
1C38
1C70
1C70
0E70
0E70
0EE0
0EE0
07E0
07E0
07C0
03C0
03C0
03C0
0380
0380
0380
0780
0F00
3F00
3E00
3800
ENDCHAR
STARTCHAR uni0444
ENCODING 1092
SWIDTH 569 0
DWIDTH 23 0
BBX 21 31 1 -1
BITMAP
007000
007000
007000
03F200
1FFFC0
3FFFE0
7870F0
707070
707078
707038
F07038
F07038
F07038
F07038
F07038
F07038
F07038
F07038
F07038
F07038
F07038
F07038
707078
707070
7870F0
3FFFF0
1FFFE0
07FF80
007000
007000
007000
ENDCHAR
STARTCHAR uni0445
ENCODING 1093
SWIDTH 435 0
DWIDTH 18 0
BBX 16 31 1 -1
BITMAP
F00E
700E
780E
381C
381C
3C1C
1C38
1C38
1E70
0E70
0E70
0FE0
07E0
07E0
03C0
03C0
07E0
07E0
0EE0
0EF0
0E70
1C70
1C78
1C38
383C
381C
381C
701E
700E
E00E
E00F
ENDCHAR
STARTCHAR uni0446
ENCODING 1094
SWIDTH 455 0
DWIDTH 19 0
BBX 16 35 2 -5
BITMAP
E038
E038
E038
E038
E038
E038
E038
E038
E038
E038
E038
E038
E038
E038
E038
E038
E038
E038
E038
E038
E038
E038
E038
E038
E038
E038
E038
E039
FFFF
FFFF
FFFF
000F
000F
000F
000C
ENDCHAR
STARTCHAR uni0447
ENCODING 1095
SWIDTH 401 0
DWIDTH 16 0
BBX 14 31 1 -1
BITMAP
F01C
F01C
F01C
F01C
F01C
F01C
F01C
F01C
F01C
F01C
F01C
F01C
F01C
F01C
703C
703C
787C
3FFC
3FDC
0F1C
001C
001C
001C
001C
001C
001C
001C
001C
001C
001C
001C
ENDCHAR
STARTCHAR uni0448
ENCODING 1096
SWIDTH 581 0
DWIDTH 24 0
BBX 20 31 2 -1
BITMAP
E0F070
E0F070
E0F070
E0F070
E0F070
E0F070
E0F070
E0F070
E0F070
E0F070
E0F070
E0F070
E0F070
E0F070
E0F070
E0F070
E0F070
E0F070
E0F070
E0F070
E0F070
E0F070
E0F070
E0F070
E0F070
E0F070
E0F070
E0F070
FFFFF0
FFFFF0
FFFFF0
ENDCHAR
STARTCHAR uni0449
ENCODING 1097
SWIDTH 622 0
DWIDTH 26 0
BBX 22 35 2 -5
BITMAP
E0E070
E0E070
E0E070
E0E070
E0E070
E0E070
E0E070
E0E070
E0E070
E0E070
E0E070
E0E070
E0E070
E0E070
E0E070
E0E070
E0E070
E0E070
E0E070
E0E070
E0E070
E0E070
E0E070
E0E070
E0E070
E0E070
E0E070
E0E070
FFFFFC
FFFFFC
FFFFFC
00001C
00001C
00001C
000010
ENDCHAR
STARTCHAR uni044A
ENCODING 1098
SWIDTH 438 0
DWIDTH 18 0
BBX 17 31 0 -1
BITMAP
FE0000
FE0000
FE0000
0E0000
0E0000
0E0000
0E0000
0E0000
0E0000
0E0000
0E0000
0E0000
0FF000
0FFE00
0FFF00
0E0F00
0E0700
0E0780
0E0780
0E0380
0E0380
0E0380
0E0380
0E0380
0E0380
0E0780
0E0700
0E0F00
0FFF00
0FFE00
0FF800
ENDCHAR
STARTCHAR uni044B
ENCODING 1099
SWIDTH 532 0
DWIDTH 22 0
BBX 18 31 2 -1
BITMAP
E001C0
E001C0
E001C0
E001C0
E001C0
E001C0
E001C0
E001C0
E001C0
E001C0
E001C0
E001C0
FF01C0
FFC1C0
FFE1C0
E0F1C0
E071C0
E071C0
E071C0
E071C0
E071C0
E071C0
E071C0
E071C0
E071C0
E071C0
E071C0
E0F1C0
FFE1C0
FFC1C0
FF81C0
ENDCHAR
STARTCHAR uni044C
ENCODING 1100
SWIDTH 381 0
DWIDTH 16 0
BBX 12 31 2 -1
BITMAP
E000
E000
E000
E000
E000
E000
E000
E000
E000
E000
E000
E000
FF00
FFC0
FFE0
E0F0
E070
E070
E070
E070
E070
E070
E070
E070
E070
E070
E070
E0F0
FFE0
FFC0
FF80
ENDCHAR
STARTCHAR uni044D
ENCODING 1101
SWIDTH 380 0
DWIDTH 16 0
BBX 13 31 1 -1
BITMAP
0FC0
3FE0
3FF0
7878
7078
E038
E038
E038
E038
E038
0038
0038
0038
07F8
07F8
07F8
0038
0038
0038
0038
E038
E038
E038
E038
E038
F038
7078
7870
7FF0
3FE0
0F80
ENDCHAR
STARTCHAR uni044E
ENCODING 1102
SWIDTH 575 0
DWIDTH 24 0
BBX 20 31 2 -1
BITMAP
E01F00
E07FC0
E0FFE0
E0F1E0
E1E0F0
E1C070
E1C070
E1C070
E1C070
E1C070
E1C070
E1C070
E1C070
E1C070
FFC070
FFC070
FFC070
E1C070
E1C070
E1C070
E1C070
E1C070
E1C070
E1C070
E1C070
E1C070
E1E0F0
E0F0E0
E0FFE0
E07FC0
E01F00
ENDCHAR
STARTCHAR uni044F
ENCODING 1103
SWIDTH 394 0
DWIDTH 16 0
BBX 14 30 1 -1
BITMAP
03FC
1FFC
383C
703C
703C
703C
703C
703C
703C
703C
703C
703C
783C
3E3C
1FFC
0FFC
3FFC
783C
703C
703C
703C
703C
703C
703C
703C
703C
703C
703C
703C
F000
ENDCHAR
STARTCHAR uni0451
ENCODING 1105
SWIDTH 360 0
DWIDTH 15 0
BBX 11 37 2 -1
BITMAP
3180
3180
3180
3180
0000
0000
FFE0
FFE0
FFE0
E000
E000
E000
E000
E000
E000
E000
E000
E000
E000
E000
FFC0
FFC0
FFC0
E000
E000
E000
E000
E000
E000
E000
E000
E000
E000
E000
FFE0
FFE0
FFE0
ENDCHAR
STARTCHAR uni1E02
ENCODING 7682
SWIDTH 392 0
DWIDTH 16 0
BBX 13 35 2 -1
BITMAP
0E00
0E00
0E00
0E00
FF80
FFE0
FFF0
E0F0
E070
E070
E070
E070
E070
E070
E070
E070
E0E0
FFE0
FF80
FFE0
E0F0
E070
E078
E038
E038
E038
E038
E038
E038
E078
E078
E0F0
FFF0
FFE0
FF80
ENDCHAR
STARTCHAR uni1E03
ENCODING 7683
SWIDTH 392 0
DWIDTH 16 0
BBX 13 35 2 -1
BITMAP
0E00
0E00
0E00
0E00
FF80
FFE0
FFF0
E0F0
E070
E070
E070
E070
E070
E070
E070
E070
E0E0
FFE0
FF80
FFE0
E0F0
E070
E078
E038
E038
E038
E038
E038
E038
E078
E078
E0F0
FFF0
FFE0
FF80
ENDCHAR
STARTCHAR uni1E0A
ENCODING 7690
SWIDTH 396 0
DWIDTH 16 0
BBX 13 36 2 -1
BITMAP
0E00
0E00
0E00
0E00
0000
FF80
FFE0
FFF0
E0F0
E078
E038
E038
E038
E038
E038
E038
E038
E038
E038
E038
E038
E038
E038
E038
E038
E038
E038
E038
E038
E038
E038
E078
E0F0
FFF0
FFE0
FF80
ENDCHAR
STARTCHAR uni1E0B
ENCODING 7691
SWIDTH 396 0
DWIDTH 16 0
BBX 13 36 2 -1
BITMAP
0E00
0E00
0E00
0E00
0000
FF80
FFE0
FFF0
E0F0
E078
E038
E038
E038
E038
E038
E038
E038
E038
E038
E038
E038
E038
E038
E038
E038
E038
E038
E038
E038
E038
E038
E078
E0F0
FFF0
FFE0
FF80
ENDCHAR
STARTCHAR uni1E1E
ENCODING 7710
SWIDTH 340 0
DWIDTH 14 0
BBX 11 36 2 -1
BITMAP
0E00
0E00
0E00
0E00
0000
FFE0
FFE0
FFE0
E000
E000
E000
E000
E000
E000
E000
E000
E000
E000
E000
FF80
FF80
FF80
E000
E000
E000
E000
E000
E000
E000
E000
E000
E000
E000
E000
E000
E000
ENDCHAR
STARTCHAR uni1E1F
ENCODING 7711
SWIDTH 340 0
DWIDTH 14 0
BBX 11 36 2 -1
BITMAP
0E00
0E00
0E00
0E00
0000
FFE0
FFE0
FFE0
E000
E000
E000
E000
E000
E000
E000
E000
E000
E000
E000
FF80
FF80
FF80
E000
E000
E000
E000
E000
E000
E000
E000
E000
E000
E000
E000
E000
E000
ENDCHAR
STARTCHAR uni1E40
ENCODING 7744
SWIDTH 523 0
DWIDTH 21 0
BBX 18 37 2 -1
BITMAP
01C000
01C000
01C000
01C000
000000
000000
F007C0
F007C0
F807C0
F807C0
F80FC0
F80FC0
F80FC0
DC0FC0
DC0DC0
DC0DC0
DC1DC0
DC1DC0
CC1DC0
CE19C0
CE19C0
CE39C0
CE39C0
C639C0
C731C0
C731C0
C731C0
C771C0
C771C0
C3F1C0
C3E1C0
C3E1C0
C3E1C0
C3E1C0
C1E1C0
C1C1C0
C1C1C0
ENDCHAR
STARTCHAR uni1E41
ENCODING 7745
SWIDTH 523 0
DWIDTH 21 0
BBX 18 37 2 -1
BITMAP
01C000
01C000
01C000
01C000
000000
000000
F007C0
F007C0
F807C0
F807C0
F80FC0
F80FC0
F80FC0
DC0FC0
DC0DC0
DC0DC0
DC1DC0
DC1DC0
CC1DC0
CE19C0
CE19C0
CE39C0
CE39C0
C639C0
C731C0
C731C0
C731C0
C771C0
C771C0
C3F1C0
C3E1C0
C3E1C0
C3E1C0
C3E1C0
C1E1C0
C1C1C0
C1C1C0
ENDCHAR
STARTCHAR uni1E56
ENCODING 7766
SWIDTH 371 0
DWIDTH 15 0
BBX 12 36 2 -1
BITMAP
0E00
0E00
0E00
0E00
0000
FF80
FFC0
FFE0
E0F0
E070
E070
E070
E070
E070
E070
E070
E070
E070
E070
E070
E0F0
FFE0
FFC0
FF00
E000
E000
E000
E000
E000
E000
E000
E000
E000
E000
E000
E000
ENDCHAR
STARTCHAR uni1E57
ENCODING 7767
SWIDTH 371 0
DWIDTH 15 0
BBX 12 36 2 -1
BITMAP
0E00
0E00
0E00
0E00
0000
FF80
FFC0
FFE0
E0F0
E070
E070
E070
E070
E070
E070
E070
E070
E070
E070
E070
E0F0
FFE0
FFC0
FF00
E000
E000
E000
E000
E000
E000
E000
E000
E000
E000
E000
E000
ENDCHAR
STARTCHAR uni1E60
ENCODING 7776
SWIDTH 372 0
DWIDTH 15 0
BBX 13 36 1 -1
BITMAP
0700
0700
0700
0700
0000
0FC0
3FE0
3FF0
7870
7078
F038
F038
F038
F000
F000
7000
7800
3C00
3E00
1F00
0F80
07C0
03E0
00F0
00F0
0078
0038
E038
E038
E038
E038
7078
7870
7FF0
3FE0
0F80
ENDCHAR
STARTCHAR uni1E61
ENCODING 7777
SWIDTH 372 0
DWIDTH 15 0
BBX 13 36 1 -1
BITMAP
0700
0700
0700
0700
0000
0FC0
3FE0
3FF0
7870
7078
F038
F038
F038
F000
F000
7000
7800
3C00
3E00
1F00
0F80
07C0
03E0
00F0
00F0
0078
0038
E038
E038
E038
E038
7078
7870
7FF0
3FE0
0F80
ENDCHAR
STARTCHAR uni1E6A
ENCODING 7786
SWIDTH 372 0
DWIDTH 15 0
BBX 14 36 1 -1
BITMAP
0700
0700
0700
0700
0000
FFFC
FFFC
FFFC
0700
0700
0700
0700
0700
0700
0700
0700
0700
0700
0700
0700
0700
0700
0700
0700
0700
0700
0700
0700
0700
0700
0700
0700
0700
0700
0700
0700
ENDCHAR
STARTCHAR uni1E6B
ENCODING 7787
SWIDTH 372 0
DWIDTH 15 0
BBX 13 36 1 -1
BITMAP
0700
0700
0700
0700
0000
FFF8
FFF8
FFF8
0700
0700
0700
0700
0700
0700
0700
0700
0700
0700
0700
0700
0700
0700
0700
0700
0700
0700
0700
0700
0700
0700
0700
0700
0700
0700
0700
0700
ENDCHAR
STARTCHAR Wgrave
ENCODING 7808
SWIDTH 583 0
DWIDTH 24 0
BBX 22 37 1 -1
BITMAP
01E000
00E000
007000
003800
000000
000000
E0381C
E0781C
E0781C
F0781C
F07818
707818
707C38
707C38
707C38
70FC38
70FC38
78FC38
38FC30
38EC30
38CC70
38CE70
38CE70
38CE70
39CE70
3DCE70
1DCE60
1DC660
1D86E0
1D87E0
1D87E0
1D87E0
1F87E0
1F87E0
0F87C0
0F03C0
0F03C0
ENDCHAR
STARTCHAR wgrave
ENCODING 7809
SWIDTH 583 0
DWIDTH 24 0
BBX 22 37 1 -1
BITMAP
01E000
00E000
007000
003800
000000
000000
E0381C
E0781C
E0781C
F0781C
F07818
707818
707C38
707C38
707C38
70FC38
70FC38
78FC38
38FC30
38EC30
38CC70
38CE70
38CE70
38CE70
39CE70
3DCE70
1DCE60
1DC660
1D86E0
1D87E0
1D87E0
1D87E0
1F87E0
1F87E0
0F87C0
0F03C0
0F03C0
ENDCHAR
STARTCHAR Wacute
ENCODING 7810
SWIDTH 583 0
DWIDTH 24 0
BBX 22 37 1 -1
BITMAP
001E00
001C00
003800
007000
000000
000000
E0381C
E0781C
E0781C
F0781C
F07818
707818
707C38
707C38
707C38
70FC38
70FC38
78FC38
38FC30
38EC30
38CC70
38CE70
38CE70
38CE70
39CE70
3DCE70
1DCE60
1DC660
1D86E0
1D87E0
1D87E0
1D87E0
1F87E0
1F87E0
0F87C0
0F03C0
0F03C0
ENDCHAR
STARTCHAR wacute
ENCODING 7811
SWIDTH 583 0
DWIDTH 24 0
BBX 22 37 1 -1
BITMAP
001E00
001C00
003800
007000
000000
000000
E0381C
E0781C
E0781C
F0781C
F07818
707818
707C38
707C38
707C38
70FC38
70FC38
78FC38
38FC30
38EC30
38CC70
38CE70
38CE70
38CE70
39CE70
3DCE70
1DCE60
1DC660
1D86E0
1D87E0
1D87E0
1D87E0
1F87E0
1F87E0
0F87C0
0F03C0
0F03C0
ENDCHAR
STARTCHAR Wdieresis
ENCODING 7812
SWIDTH 583 0
DWIDTH 24 0
BBX 22 37 1 -1
BITMAP
01CE00
01CE00
01CE00
01CE00
000000
000000
E0381C
E0781C
E0781C
F0781C
F07818
707818
707C38
707C38
707C38
70FC38
70FC38
78FC38
38FC30
38EC30
38CC70
38CE70
38CE70
38CE70
39CE70
3DCE70
1DCE60
1DC660
1D86E0
1D87E0
1D87E0
1D87E0
1F87E0
1F87E0
0F87C0
0F03C0
0F03C0
ENDCHAR
STARTCHAR wdieresis
ENCODING 7813
SWIDTH 583 0
DWIDTH 24 0
BBX 22 37 1 -1
BITMAP
01CE00
01CE00
01CE00
01CE00
000000
000000
E0381C
E0781C
E0781C
F0781C
F07818
707818
707C38
707C38
707C38
70FC38
70FC38
78FC38
38FC30
38EC30
38CC70
38CE70
38CE70
38CE70
39CE70
3DCE70
1DCE60
1DC660
1D86E0
1D87E0
1D87E0
1D87E0
1F87E0
1F87E0
0F87C0
0F03C0
0F03C0
ENDCHAR
STARTCHAR Ygrave
ENCODING 7922
SWIDTH 406 0
DWIDTH 17 0
BBX 15 37 1 -1
BITMAP
0E00
0700
0300
0380
0000
0000
E00E
E00E
F01C
701C
701C
7838
3838
3838
3870
1C70
1C70
1C60
1EE0
0EE0
0EE0
0FC0
07C0
07C0
0780
0380
0380
0380
0380
0380
0380
0380
0380
0380
0380
0380
0380
ENDCHAR
STARTCHAR ygrave
ENCODING 7923
SWIDTH 406 0
DWIDTH 17 0
BBX 15 37 1 -1
BITMAP
0E00
0700
0300
0380
0000
0000
E00E
E00E
F01C
701C
701C
7838
3838
3838
3870
1C70
1C70
1C60
1EE0
0EE0
0EE0
0FC0
07C0
07C0
0780
0380
0380
0380
0380
0380
0380
0380
0380
0380
0380
0380
0380
ENDCHAR
STARTCHAR figuredash
ENCODING 8210
SWIDTH 425 0
DWIDTH 17 0
BBX 16 3 1 13
BITMAP
FFFF
FFFF
FFFF
ENDCHAR
STARTCHAR endash
ENCODING 8211
SWIDTH 458 0
DWIDTH 19 0
BBX 17 3 1 13
BITMAP
FFFF80
FFFF80
FFFF80
ENDCHAR
STARTCHAR emdash
ENCODING 8212
SWIDTH 833 0
DWIDTH 34 0
BBX 33 3 1 13
BITMAP
FFFFFFFF80
FFFFFFFF80
FFFFFFFF80
ENDCHAR
STARTCHAR quoteleft
ENCODING 8216
SWIDTH 160 0
DWIDTH 7 0
BBX 3 8 2 22
BITMAP
40
40
C0
C0
E0
E0
E0
E0
ENDCHAR
STARTCHAR quoteright
ENCODING 8217
SWIDTH 160 0
DWIDTH 7 0
BBX 3 8 2 22
BITMAP
E0
E0
E0
E0
60
40
C0
80
ENDCHAR
STARTCHAR quotesinglbase
ENCODING 8218
SWIDTH 160 0
DWIDTH 7 0
BBX 3 8 2 -5
BITMAP
E0
E0
E0
E0
60
40
C0
80
ENDCHAR
STARTCHAR quotedblleft
ENCODING 8220
SWIDTH 271 0
DWIDTH 11 0
BBX 7 8 2 22
BITMAP
42
46
C4
CC
EE
EE
EE
EE
ENDCHAR
STARTCHAR quotedblright
ENCODING 8221
SWIDTH 271 0
DWIDTH 11 0
BBX 7 8 2 22
BITMAP
EE
EE
EE
EE
46
C6
C4
8C
ENDCHAR
STARTCHAR quotedblbase
ENCODING 8222
SWIDTH 274 0
DWIDTH 11 0
BBX 8 8 2 -5
BITMAP
E7
E7
E7
E7
62
46
C4
84
ENDCHAR
STARTCHAR dagger
ENCODING 8224
SWIDTH 394 0
DWIDTH 16 0
BBX 14 33 1 -3
BITMAP
0300
0300
0300
0300
0300
0300
0300
0300
FFFC
FFFC
FFFC
0300
0300
0300
0300
0300
0300
0300
0300
0300
0300
0300
0300
0300
0300
0300
0300
0300
0300
0300
0300
0300
0300
ENDCHAR
STARTCHAR daggerdbl
ENCODING 8225
SWIDTH 394 0
DWIDTH 16 0
BBX 14 33 1 -3
BITMAP
0300
0300
0300
0300
0300
0300
0300
0300
FFFC
FFFC
FFFC
0300
0300
0300
0300
0300
0300
0300
0300
0300
0300
0300
FFFC
FFFC
FFFC
0300
0300
0300
0300
0300
0300
0300
0300
ENDCHAR
STARTCHAR bullet
ENCODING 8226
SWIDTH 328 0
DWIDTH 13 0
BBX 9 9 2 10
BITMAP
0800
3F00
7F00
7F80
FF80
FF80
7F80
7F00
1E00
ENDCHAR
STARTCHAR ellipsis
ENCODING 8230
SWIDTH 379 0
DWIDTH 16 0
BBX 12 4 2 -1
BITMAP
EE70
EE70
EE70
EE70
ENDCHAR
STARTCHAR perthousand
ENCODING 8240
SWIDTH 867 0
DWIDTH 36 0
BBX 33 31 1 -1
BITMAP
1E00C00000
7F00C00000
6301800000
6381800000
E181800000
E183000000
E183000000
E186000000
E186000000
E186000000
E18C000000
E18C781E00
E18CFC3F00
E1998C7380
E1998E6180
6191866180
63B1866180
6331866180
7F61866180
1C61866180
0061866180
00C1866180
00C1866180
00C1866180
0181866180
0181866180
0101866180
0301866180
03018C7380
0601FC3F00
0600781E00
ENDCHAR
STARTCHAR guilsinglleft
ENCODING 8249
SWIDTH 183 0
DWIDTH 8 0
BBX 6 22 1 3
BITMAP
38
38
38
38
70
70
70
70
F0
E0
E0
E0
E0
70
70
70
70
38
38
38
38
3C
ENDCHAR
STARTCHAR guilsinglright
ENCODING 8250
SWIDTH 183 0
DWIDTH 8 0
BBX 6 21 1 4
BITMAP
E0
E0
70
70
70
70
38
38
38
38
3C
38
38
38
38
70
70
70
70
E0
E0
ENDCHAR
STARTCHAR fraction
ENCODING 8260
SWIDTH 164 0
DWIDTH 7 0
BBX 13 31 -3 -1
BITMAP
0018
0010
0030
0030
0060
0060
0060
00C0
00C0
00C0
0180
0180
0300
0300
0300
0600
0600
0600
0C00
0C00
0C00
1800
1800
3000
3000
3000
6000
6000
6000
C000
C000
ENDCHAR
STARTCHAR zerosuperior
ENCODING 8304
SWIDTH 277 0
DWIDTH 11 0
BBX 9 19 1 14
BITMAP
1E00
7F00
6380
6180
E180
E180
E180
E180
E180
E180
E180
E180
E180
E180
E180
6180
6380
7F00
1E00
ENDCHAR
STARTCHAR foursuperior
ENCODING 8308
SWIDTH 283 0
DWIDTH 12 0
BBX 10 19 1 14
BITMAP
0300
0700
0700
0F00
0F00
1B00
1B00
1B00
3300
3300
6300
6300
C300
FFC0
FFC0
0300
0300
0300
0300
ENDCHAR
STARTCHAR fivesuperior
ENCODING 8309
SWIDTH 275 0
DWIDTH 11 0
BBX 8 19 2 14
BITMAP
FE
FE
C0
C0
C0
C0
D8
FE
C7
C3
03
03
03
C3
C3
C3
C6
FE
3C
ENDCHAR
STARTCHAR sixsuperior
ENCODING 8310
SWIDTH 277 0
DWIDTH 11 0
BBX 8 19 2 14
BITMAP
3C
FE
C7
C3
C3
C0
C0
DC
FE
C7
C3
C3
C3
C3
C3
C3
C7
FE
3C
ENDCHAR
STARTCHAR sevensuperior
ENCODING 8311
SWIDTH 275 0
DWIDTH 11 0
BBX 8 18 2 15
BITMAP
FF
FF
03
06
06
06
0C
0C
0C
0C
18
18
18
30
30
30
30
60
ENDCHAR
STARTCHAR eightsuperior
ENCODING 8312
SWIDTH 279 0
DWIDTH 11 0
BBX 9 19 1 14
BITMAP
1E00
7F00
6380
6180
C180
C180
E180
6380
3F00
3F00
6380
6180
C180
C180
C180
E180
6380
7F00
1E00
ENDCHAR
STARTCHAR ninesuperior
ENCODING 8313
SWIDTH 277 0
DWIDTH 11 0
BBX 9 19 1 14
BITMAP
1E00
7F00
6300
6180
C180
C180
C180
E180
E180
6380
7D80
3980
0180
0180
C180
6180
6300
7F00
1E00
ENDCHAR
STARTCHAR zeroinferior
ENCODING 8320
SWIDTH 277 0
DWIDTH 11 0
BBX 9 19 1 -3
BITMAP
1E00
7F00
6380
6180
E180
E180
E180
E180
E180
E180
E180
E180
E180
E180
E180
6180
6380
7F00
1E00
ENDCHAR
STARTCHAR oneinferior
ENCODING 8321
SWIDTH 189 0
DWIDTH 8 0
BBX 5 19 1 -3
BITMAP
18
18
38
F8
18
18
18
18
18
18
18
18
18
18
18
18
18
18
18
ENDCHAR
STARTCHAR twoinferior
ENCODING 8322
SWIDTH 275 0
DWIDTH 11 0
BBX 8 19 2 -3
BITMAP
3C
7E
C7
C3
C3
C3
03
06
06
0C
18
38
70
60
C0
C0
C0
FF
FF
ENDCHAR
STARTCHAR threeinferior
ENCODING 8323
SWIDTH 275 0
DWIDTH 11 0
BBX 8 19 2 -3
BITMAP
3C
7E
C6
C3
83
83
03
06
3C
3E
06
03
03
83
C3
C3
C6
FE
3C
ENDCHAR
STARTCHAR fourinferior
ENCODING 8324
SWIDTH 283 0
DWIDTH 12 0
BBX 10 19 1 -3
BITMAP
0300
0700
0700
0F00
0F00
0F00
1B00
1B00
3300
3300
6300
6300
C300
FFC0
FFC0
0300
0300
0300
0300
ENDCHAR
STARTCHAR fiveinferior
ENCODING 8325
SWIDTH 275 0
DWIDTH 11 0
BBX 8 19 2 -3
BITMAP
FE
FE
C0
C0
C0
C0
D8
FE
C7
C3
03
03
03
C3
C3
C3
C6
FE
3C
ENDCHAR
STARTCHAR sixinferior
ENCODING 8326
SWIDTH 277 0
DWIDTH 11 0
BBX 8 19 2 -3
BITMAP
3C
7E
C7
C3
C3
C0
C0
DC
FE
C7
C3
C3
C3
C3
C3
C3
C7
FE
3C
ENDCHAR
STARTCHAR seveninferior
ENCODING 8327
SWIDTH 275 0
DWIDTH 11 0
BBX 8 18 2 -2
BITMAP
FF
FF
03
06
06
06
0C
0C
0C
0C
18
18
18
30
30
30
30
60
ENDCHAR
STARTCHAR eightinferior
ENCODING 8328
SWIDTH 279 0
DWIDTH 11 0
BBX 9 19 1 -3
BITMAP
1E00
7F00
6380
6180
C180
C180
E180
6380
3F00
3F00
6380
6180
C180
C180
C180
E180
6380
7F00
1E00
ENDCHAR
STARTCHAR nineinferior
ENCODING 8329
SWIDTH 277 0
DWIDTH 11 0
BBX 9 19 1 -3
BITMAP
1E00
7F00
6300
6180
C180
C180
C180
E180
E180
6380
7F80
3D80
0180
0180
C180
6180
6300
7F00
1E00
ENDCHAR
STARTCHAR Euro
ENCODING 8364
SWIDTH 397 0
DWIDTH 16 0
BBX 14 31 1 -1
BITMAP
07C0
1FF0
1FF8
3C38
383C
781C
781C
701C
701C
7000
7000
7000
FFF0
FFF0
7000
7000
7000
FFF0
FFF0
7000
7000
701C
701C
701C
781C
781C
383C
3C38
3FF8
1FF0
07C0
ENDCHAR
STARTCHAR uni20B9
ENCODING 8377
SWIDTH 388 0
DWIDTH 16 0
BBX 14 31 1 -1
BITMAP
FFFC
FFFC
FFFC
01C0
01E0
00E0
00E0
FFFC
FFFC
FFFC
00E0
00E0
01E0
03C0
FF80
FF00
F000
7000
3800
3C00
1C00
0E00
0F00
0700
0380
03C0
01E0
00E0
00F0
0078
0038
ENDCHAR
STARTCHAR uni2117
ENCODING 8471
SWIDTH 742 0
DWIDTH 30 0
BBX 28 31 1 -1
BITMAP
001FC000
00FFF000
03E07C00
07800E00
0E000700
1C000380
180001C0
381FC0C0
301FE060
60186060
60186070
60187030
E0187030
C0187030
C0186030
C0186030
C01FE030
C01FC030
E0180030
60180030
60180070
70180060
30180060
381800C0
181801C0
1C000380
0E000700
07800E00
03E03C00
00FFF000
003FC000
ENDCHAR
STARTCHAR trademark
ENCODING 8482
SWIDTH 583 0
DWIDTH 24 0
BBX 23 15 0 15
BITMAP
FF9C0E
FF9C1E
0C1E1E
0C1E1E
0C1E16
0C1A36
0C1B36
0C1B36
0C1B26
0C1966
0C19E6
0C19E6
0C19C6
0C18C6
0C18C6
ENDCHAR
STARTCHAR uni2153
ENCODING 8531
SWIDTH 596 0
DWIDTH 24 0
BBX 21 31 2 -1
BITMAP
180300
180200
F80600
D80600
180C00
180C00
180C00
181800
181800
181800
183000
1831E0
1863F0
186638
186618
18C618
18C618
18C018
198018
198030
0181E0
0301F0
030038
060018
060018
060618
0C0618
0C0618
0C0638
1807F0
1801E0
ENDCHAR
STARTCHAR uni2154
ENCODING 8532
SWIDTH 618 0
DWIDTH 25 0
BBX 22 31 2 -1
BITMAP
3C0180
7E0180
C70180
C30300
C30300
C30300
030600
060600
060C00
0C0C00
1C0C00
1818F0
3019F8
601B18
60330C
C0330C
C0230C
C0600C
FF600C
FFC018
00C0F0
00C0F8
018018
01800C
01800C
03030C
03030C
02030C
060318
0603F8
0C00F0
ENDCHAR
STARTCHAR oneeighth
ENCODING 8539
SWIDTH 601 0
DWIDTH 25 0
BBX 21 31 2 -1
BITMAP
180300
180200
F80600
D80600
180C00
180C00
180C00
181800
181800
181800
183000
1831E0
1863F0
186738
186618
18C618
18C618
18C618
198618
198738
0183F0
0303F0
030618
060618
060618
060618
0C0618
0C0618
0C0618
1807F0
1801E0
ENDCHAR
STARTCHAR threeeighths
ENCODING 8540
SWIDTH 626 0
DWIDTH 26 0
BBX 22 31 2 -1
BITMAP
3C0180
FE0180
C60100
C30300
830300
030600
030600
060600
3C0C00
3E0C00
060C00
0718F8
0319F8
83139C
83330C
C3330C
C3630C
C6630C
FE630C
3CC39C
00C1F8
00C1F8
01830C
01830C
01030C
03030C
03030C
06030C
06030C
0601F8
0C00F0
ENDCHAR
STARTCHAR fiveeighths
ENCODING 8541
SWIDTH 626 0
DWIDTH 26 0
BBX 22 30 2 -1
BITMAP
FE0180
FE0180
C00100
C00300
C00300
C00600
C00600
DC0600
E60C00
C30C00
C31800
0318F0
0319F8
03339C
C3330C
C3630C
C7630C
FE630C
FEC30C
3CC39C
0181F0
0183FC
01830C
03030C
03030C
06030C
06030C
06030C
0C03F8
0000F0
ENDCHAR
STARTCHAR seveneighths
ENCODING 8542
SWIDTH 594 0
DWIDTH 24 0
BBX 21 31 2 -1
BITMAP
FF0600
FF0600
070C00
060C00
060C00
061800
0E1800
0C1000
0C3000
0C3000
1C6000
1861E0
1867F0
18C638
30CE18
30CC18
318C18
318C18
610618
630630
0303F0
0607F0
060638
060C18
0C0C18
0C0C18
0C0C18
180E18
180638
1007F0
3003E0
ENDCHAR
STARTCHAR minus
ENCODING 8722
SWIDTH 392 0
DWIDTH 16 0
BBX 14 2 1 13
BITMAP
FFFC
FFFC
ENDCHAR
STARTCHAR infinity
ENCODING 8734
SWIDTH 583 0
DWIDTH 24 0
BBX 21 10 2 10
BITMAP
3F0FC0
7FDFE0
E1F870
C06030
C06038
C06038
C06030
E0F070
7FFFF0
3F9FC0
ENDCHAR
STARTCHAR approxequal
ENCODING 8776
SWIDTH 396 0
DWIDTH 16 0
BBX 14 12 1 8
BITMAP
3E0C
7F0C
E3DC
C1F8
0070
0000
0000
3E04
7F0C
E3DC
C1F8
0070
ENDCHAR
STARTCHAR commaaccentcomb
ENCODING 63171
SWIDTH 0 0
DWIDTH 0 0
BBX 3 6 3 -7
BITMAP
E0
E0
E0
E0
40
C0
ENDCHAR
STARTCHAR .notdef
ENCODING -1
SWIDTH 548 0
DWIDTH 22 0
BBX 18 31 2 -1
BITMAP
FFFFC0
FFFFC0
FFFFC0
E3F9C0
F3F1C0
F1F3C0
F1F3C0
F9E3C0
F8E7C0
FCE7C0
FCCFC0
FC4FC0
FE0FC0
FE1FC0
FE1FC0
FE1FC0
FE1FC0
FE0FC0
FC8FC0
FCCFC0
FCC7C0
F9E7C0
F9E7C0
F9E3C0
F3F3C0
F3F3C0
E3F1C0
E7F9C0
FFFFC0
FFFFC0
FFFFC0
ENDCHAR
STARTCHAR NULL
ENCODING -1
SWIDTH 0 0
DWIDTH 0 0
BBX 1 1 0 0
BITMAP
00
ENDCHAR
STARTCHAR CR
ENCODING -1
SWIDTH 155 0
DWIDTH 6 0
BBX 1 1 0 0
BITMAP
00
ENDCHAR
STARTCHAR zero.alt
ENCODING -1
SWIDTH 389 0
DWIDTH 16 0
BBX 14 31 1 -1
BITMAP
0FC0
1FE0
3FF0
7878
7038
7038
F03C
F03C
F03C
F03C
F03C
F03C
F03C
F03C
F03C
F03C
F03C
F03C
F03C
F03C
F03C
F03C
F03C
F03C
F03C
7038
7038
7878
3FF0
3FE0
0FC0
ENDCHAR
STARTCHAR one.alt
ENCODING -1
SWIDTH 255 0
DWIDTH 10 0
BBX 7 31 1 -1
BITMAP
06
0E
0E
1E
FE
FE
CE
0E
0E
0E
0E
0E
0E
0E
0E
0E
0E
0E
0E
0E
0E
0E
0E
0E
0E
0E
0E
0E
0E
0E
0E
ENDCHAR
STARTCHAR two.alt
ENCODING -1
SWIDTH 368 0
DWIDTH 15 0
BBX 13 31 1 -1
BITMAP
0FC0
3FE0
3FF0
7878
7078
E038
E038
E038
E038
E038
0038
0078
0070
00F0
00E0
01E0
03C0
0780
0700
0E00
1E00
3C00
3800
7800
7000
7000
F000
E000
FFF8
FFF8
FFF8
ENDCHAR
STARTCHAR three.alt
ENCODING -1
SWIDTH 377 0
DWIDTH 15 0
BBX 13 31 1 -1
BITMAP
0FC0
3FE0
3FF0
7878
7078
F038
E038
E038
E038
0038
0038
0078
0070
07E0
07C0
07E0
00F0
0078
0038
0038
0038
E038
E038
E038
E038
F038
7078
7870
7FF0
3FE0
0FC0
ENDCHAR
STARTCHAR four.alt
ENCODING -1
SWIDTH 400 0
DWIDTH 16 0
BBX 15 31 1 -1
BITMAP
0070
00F0
00F0
01F0
01F0
01F0
03F0
03F0
0770
0770
0770
0E70
0E70
1C70
1C70
1C70
3870
3870
7070
7070
E070
E070
FFFE
FFFE
FFFE
0070
0070
0070
0070
0070
0070
ENDCHAR
STARTCHAR five.alt
ENCODING -1
SWIDTH 378 0
DWIDTH 16 0
BBX 13 31 1 -1
BITMAP
7FF8
7FF8
7FF8
7000
7000
7000
7000
7000
7000
7000
73C0
7FF0
7FF0
7878
7078
F038
E038
0038
0038
0038
0038
E038
E038
E038
E038
F038
7078
7878
3FF0
3FE0
0FC0
ENDCHAR
STARTCHAR six.alt
ENCODING -1
SWIDTH 386 0
DWIDTH 16 0
BBX 14 31 1 -1
BITMAP
0FC0
1FE0
3FF0
7878
7038
7038
F038
F038
F000
F000
F000
F000
F3E0
F7F0
FFF8
F878
F038
F03C
F03C
F03C
F03C
F03C
F03C
F03C
F03C
7038
7038
7878
3FF0
3FE0
0FC0
ENDCHAR
STARTCHAR seven.alt
ENCODING -1
SWIDTH 349 0
DWIDTH 14 0
BBX 12 31 1 -1
BITMAP
FFF0
FFF0
FFF0
0070
0070
0070
00F0
00E0
00E0
00E0
01E0
01C0
01C0
01C0
03C0
0380
0380
0380
0780
0700
0700
0700
0F00
0E00
0E00
0E00
1E00
1C00
1C00
1C00
3C00
ENDCHAR
STARTCHAR eight.alt
ENCODING -1
SWIDTH 393 0
DWIDTH 16 0
BBX 14 31 1 -1
BITMAP
0FC0
3FF0
3FF8
7878
703C
F03C
F01C
E01C
E01C
F01C
F03C
7038
7878
3FF0
1FE0
3FF0
7878
7038
703C
F01C
E01C
E01C
E01C
F01C
F01C
F03C
7038
7878
3FF8
3FF0
0FC0
ENDCHAR
STARTCHAR nine.alt
ENCODING -1
SWIDTH 386 0
DWIDTH 16 0
BBX 13 31 1 -1
BITMAP
0FC0
3FE0
3FF0
7878
7038
F038
F038
E038
E038
E038
E038
E038
F038
F038
F038
7878
7FF8
3FB8
1F38
0038
0038
0038
0038
E038
E038
7038
7038
7878
3FF0
3FE0
0FC0
ENDCHAR
STARTCHAR Edotaaccent
ENCODING -1
SWIDTH 405 0
DWIDTH 17 0
BBX 1 1 0 0
BITMAP
00
ENDCHAR
STARTCHAR edotaaccent
ENCODING -1
SWIDTH 405 0
DWIDTH 17 0
BBX 1 1 0 0
BITMAP
00
ENDCHAR
STARTCHAR lcute
ENCODING -1
SWIDTH 405 0
DWIDTH 17 0
BBX 1 1 0 0
BITMAP
00
ENDCHAR
ENDFONT
